CommonSans-Regular.ufo
<glyph name="quotedbl" format="2">
	<unicode hex="0022"/>
	<advance width="290"/>
	<outline>
		<contour>
			<point x="180" y="450" type="line"/>
			<point x="160" y="580" type="line"/>
			<point x="160" y="670" type="line"/>
			<point x="240" y="670" type="line"/>
			<point x="240" y="580" type="line"/>
			<point x="220" y="450" type="line"/>
		</contour>
		<contour>
			<point x="70" y="450" type="line"/>
			<point x="50" y="580" type="line"/>
			<point x="50" y="670" type="line"/>
			<point x="130" y="670" type="line"/>
			<point x="130" y="580" type="line"/>
			<point x="110" y="450" type="line"/>
		</contour>
	</outline>
</glyph>
<glyph name="asterisk" format="2">
	<unicode hex="002A"/>
	<advance width="550"/>
	<outline>
		<contour>
			<point x="178" y="200" type="line"/>
			<point x="50" y="200" type="line"/>
			<point x="50" y="280" type="line"/>
			<point x="178" y="280" type="line"/>
			<point x="88" y="371" type="line"/>
			<point x="144" y="427" type="line"/>
			<point x="235" y="337" type="line"/>
			<point x="235" y="465" type="line"/>
			<point x="315" y="465" type="line"/>
			<point x="315" y="337" type="line"/>
			<point x="406" y="427" type="line"/>
			<point x="462" y="371" type="line"/>
			<point x="372" y="280" type="line"/>
			<point x="500" y="280" type="line"/>
			<point x="500" y="200" type="line"/>
			<point x="372" y="200" type="line"/>
			<point x="462" y="109" type="line"/>
			<point x="406" y="53" type="line"/>
			<point x="315" y="143" type="line"/>
			<point x="315" y="15" type="line"/>
			<point x="235" y="15" type="line"/>
			<point x="235" y="143" type="line"/>
			<point x="144" y="53" type="line"/>
			<point x="88" y="109" type="line"/>
		</contour>
	</outline>
</glyph>
<glyph name="period" format="2">
	<unicode hex="002E"/>
	<advance width="155"/>
	<outline>
		<contour>
			<point x="98.75" y="0" type="line"/>
			<point x="56.25" y="0" type="line"/>
			<point x="56.25" y="80" type="line"/>
			<point x="98.75" y="80" type="line"/>
		</contour>
	</outline>
</glyph>
<glyph name="zero" format="2">
	<unicode hex="0030"/>
	<advance width="540"/>
	<outline>
		<contour>
			<point x="40" y="350" type="curve" smooth="yes"/>
			<point x="40" y="560"/>
			<point x="80" y="710"/>
			<point x="270" y="710" type="curve" smooth="yes"/>
			<point x="460" y="710"/>
			<point x="500" y="560"/>
			<point x="500" y="350" type="curve" smooth="yes"/>
			<point x="500" y="140"/>
			<point x="460" y="-10"/>
			<point x="270" y="-10" type="curve" smooth="yes"/>
			<point x="80" y="-10"/>
			<point x="40" y="140"/>
		</contour>
		<contour>
			<point x="130" y="350" type="curve" smooth="yes"/>
			<point x="130" y="200"/>
			<point x="130" y="70"/>
			<point x="270" y="70" type="curve" smooth="yes"/>
			<point x="410" y="70"/>
			<point x="410" y="200"/>
			<point x="410" y="350" type="curve" smooth="yes"/>
			<point x="410" y="500"/>
			<point x="410" y="630"/>
			<point x="270" y="630" type="curve" smooth="yes"/>
			<point x="130" y="630"/>
			<point x="130" y="500"/>
		</contour>
	</outline>
</glyph>
<glyph name="greater" format="2">
	<unicode hex="003E"/>
	<advance width="514"/>
	<outline>
		<contour>
			<point x="468" y="300" type="line"/>
			<point x="34" y="100" type="line"/>
			<point x="34" y="172" type="line"/>
			<point x="392" y="336" type="line"/>
			<point x="34" y="500" type="line"/>
			<point x="34" y="570" type="line"/>
			<point x="468" y="370" type="line"/>
		</contour>
	</outline>
</glyph>
<glyph name="question" format="2">
	<unicode hex="003F"/>
	<advance width="502"/>
	<outline>
		<contour>
			<point x="270" y="0" type="line"/>
			<point x="190" y="0" type="line"/>
			<point x="190" y="80" type="line"/>
			<point x="270" y="80" type="line"/>
		</contour>
		<contour>
			<point x="120" y="480" type="curve"/>
			<point x="40" y="480" type="line"/>
			<point x="41" y="620"/>
			<point x="129" y="710"/>
			<point x="250" y="710" type="curve" smooth="yes"/>
			<point x="396" y="710"/>
			<point x="462" y="630"/>
			<point x="462" y="509" type="curve" smooth="yes"/>
			<point x="462" y="329"/>
			<point x="270" y="315"/>
			<point x="270" y="170" type="curve" smooth="yes"/>
			<point x="270" y="130" type="line"/>
			<point x="190" y="130" type="line"/>
			<point x="190" y="170" type="line" smooth="yes"/>
			<point x="190" y="344"/>
			<point x="382" y="399"/>
			<point x="382" y="498" type="curve" smooth="yes"/>
			<point x="382" y="565"/>
			<point x="369" y="630"/>
			<point x="250" y="630" type="curve" smooth="yes"/>
			<point x="166" y="630"/>
			<point x="124" y="561"/>
		</contour>
	</outline>
</glyph>
<glyph name="A" format="2">
	<unicode hex="0041"/>
	<advance width="544"/>
	<outline>
		<contour>
			<point x="365" y="279.375" type="line"/>
			<point x="271.875" y="571.625" type="line"/>
			<point x="178.75" y="279.375" type="line"/>
		</contour>
		<contour>
			<point x="452.5" y="0" type="line"/>
			<point x="389.375" y="199.375" type="line"/>
			<point x="154.375" y="199.375" type="line"/>
			<point x="91.25" y="0" type="line"/>
			<point x="10" y="0" type="line"/>
			<point x="224.875" y="680" type="line"/>
			<point x="318.125" y="680" type="line"/>
			<point x="533.75" y="0" type="line"/>
		</contour>
	</outline>
	<anchor name="top" x="267" y="740"/>
</glyph>
<glyph name="B" format="2">
	<unicode hex="0042"/>
	<advance width="606"/>
	<outline>
		<contour>
			<point x="305.625" y="332.625" type="curve" smooth="yes"/>
			<point x="162.5" y="332.625" type="line"/>
			<point x="162.5" y="72.5" type="line"/>
			<point x="284.375" y="72.5" type="line" smooth="yes"/>
			<point x="397.875" y="72.5"/>
			<point x="444.375" y="118.25"/>
			<point x="444.375" y="204.25" type="curve" smooth="yes"/>
			<point x="444.375" y="285.375"/>
			<point x="407.75" y="332.625"/>
		</contour>
		<contour>
			<point x="292.5" y="607.5" type="curve" smooth="yes"/>
			<point x="162.5" y="607.5" type="line"/>
			<point x="162.5" y="405.125" type="line"/>
			<point x="305.625" y="405.125" type="line" smooth="yes"/>
			<point x="363.75" y="405.125"/>
			<point x="403.75" y="436.75"/>
			<point name=".hr01" x="403.75" y="498.375" type="curve" smooth="yes"/>
			<point x="403.75" y="566"/>
			<point x="373.875" y="607.5"/>
		</contour>
		<contour>
			<point x="284.375" y="0" type="curve" smooth="yes"/>
			<point x="81.25" y="0" type="line"/>
			<point x="81.25" y="680" type="line"/>
			<point x="292.5" y="680" type="line" smooth="yes"/>
			<point x="430.625" y="680"/>
			<point x="485" y="614.25"/>
			<point x="485" y="508.875" type="curve" smooth="yes"/>
			<point x="485" y="454.75"/>
			<point x="461.75" y="397.25"/>
			<point x="386.75" y="373.375" type="curve"/>
			<point x="464.75" y="359.375"/>
			<point x="525.625" y="305.875"/>
			<point x="525.625" y="199.75" type="curve" smooth="yes"/>
			<point name=".hr02" x="525.625" y="73.75"/>
			<point x="456.125" y="0"/>
		</contour>
	</outline>
	<anchor name="top" x="270.75" y="740"/>
</glyph>
<glyph name="C" format="2">
	<unicode hex="0043"/>
	<advance width="683"/>
	<outline>
		<contour>
			<point x="354.25" y="617.5" type="curve" smooth="yes"/>
			<point x="223.375" y="617.5"/>
			<point x="142.5" y="510.625"/>
			<point x="142.5" y="340" type="curve" smooth="yes"/>
			<point x="142.5" y="169.375"/>
			<point x="223.375" y="62.5"/>
			<point x="354.25" y="62.5" type="curve" smooth="yes"/>
			<point x="446.5" y="62.5"/>
			<point x="520" y="114.75"/>
			<point x="539.375" y="199" type="curve"/>
			<point x="611.875" y="199" type="line"/>
			<point x="587.75" y="74.125"/>
			<point x="489.875" y="-10"/>
			<point x="354.25" y="-10" type="curve" smooth="yes"/>
			<point x="171.75" y="-10"/>
			<point x="61.25" y="122.125"/>
			<point x="61.25" y="340" type="curve" smooth="yes"/>
			<point x="61.25" y="557.875"/>
			<point x="171.75" y="690"/>
			<point x="354.25" y="690" type="curve" smooth="yes"/>
			<point x="495.25" y="690"/>
			<point x="593.375" y="601.5"/>
			<point x="621.25" y="450.25" type="curve"/>
			<point x="548.75" y="450.25" type="line"/>
			<point x="525.25" y="556.375"/>
			<point x="453.625" y="617.5"/>
		</contour>
	</outline>
	<anchor name="top" x="353.25" y="740"/>
</glyph>
<glyph name="D" format="2">
	<unicode hex="0044"/>
	<advance width="634"/>
	<outline>
		<contour>
			<point x="162.5" y="607.5" type="line"/>
			<point x="162.5" y="72.5" type="line"/>
			<point x="295.5" y="72.5" type="line" smooth="yes"/>
			<point x="425" y="72.5"/>
			<point x="491.875" y="185.5"/>
			<point x="491.875" y="340" type="curve" smooth="yes"/>
			<point x="491.875" y="508"/>
			<point x="427" y="607.5"/>
			<point x="295.5" y="607.5" type="curve" smooth="yes"/>
		</contour>
		<contour>
			<point x="81.25" y="680" type="line"/>
			<point x="295.5" y="680" type="line" smooth="yes"/>
			<point x="485.5" y="680"/>
			<point x="572.5" y="545.25"/>
			<point x="572.5" y="340" type="curve" smooth="yes"/>
			<point x="572.5" y="133.625"/>
			<point x="485.875" y="0"/>
			<point x="295.5" y="0" type="curve" smooth="yes"/>
			<point x="81.25" y="0" type="line"/>
		</contour>
	</outline>
	<anchor name="top" x="275.75" y="740"/>
</glyph>
<glyph name="E" format="2">
	<unicode hex="0045"/>
	<advance width="510"/>
	<outline>
		<contour>
			<point x="420" y="313.75" type="line"/>
			<point x="162.5" y="313.75" type="line"/>
			<point x="162.5" y="68.75" type="line"/>
			<point x="460" y="68.75" type="line"/>
			<point x="460" y="0" type="line"/>
			<point x="81.25" y="0" type="line"/>
			<point x="81.25" y="680" type="line"/>
			<point x="460" y="680" type="line"/>
			<point x="460" y="611.25" type="line"/>
			<point x="162.5" y="611.25" type="line"/>
			<point x="162.5" y="382.5" type="line"/>
			<point x="420" y="382.5" type="line"/>
		</contour>
	</outline>
	<anchor name="top" x="267" y="740"/>
</glyph>
<glyph name="F" format="2">
	<unicode hex="0046"/>
	<advance width="510"/>
	<outline>
		<contour>
			<point x="420" y="313.75" type="line"/>
			<point x="162.5" y="313.75" type="line"/>
			<point x="162.5" y="0" type="line"/>
			<point x="81.25" y="0" type="line"/>
			<point x="81.25" y="680" type="line"/>
			<point x="460" y="680" type="line"/>
			<point x="460" y="611.25" type="line"/>
			<point x="162.5" y="611.25" type="line"/>
			<point x="162.5" y="382.5" type="line"/>
			<point x="420" y="382.5" type="line"/>
		</contour>
	</outline>
	<anchor name="top" x="267" y="740"/>
</glyph>
<glyph name="G" format="2">
	<unicode hex="0047"/>
	<advance width="685"/>
	<outline>
		<contour>
			<point x="354.25" y="617.5" type="curve" smooth="yes"/>
			<point x="223.375" y="617.5"/>
			<point x="142.5" y="510.625"/>
			<point x="142.5" y="340" type="curve" smooth="yes"/>
			<point x="142.5" y="169.375"/>
			<point x="223.375" y="62.5"/>
			<point x="354.25" y="62.5" type="curve" smooth="yes"/>
			<point x="432" y="62.5"/>
			<point x="506.375" y="110.125"/>
			<point x="543.25" y="173.875" type="curve"/>
			<point x="543.25" y="261.25" type="line"/>
			<point x="372.625" y="261.25" type="line"/>
			<point x="372.625" y="318.75" type="line"/>
			<point x="613.25" y="318.75" type="line"/>
			<point x="613.25" y="0" type="line"/>
			<point x="543.25" y="0" type="line"/>
			<point x="543.25" y="79.25" type="line"/>
			<point x="505.125" y="29"/>
			<point x="425.625" y="-10"/>
			<point x="354.25" y="-10" type="curve" smooth="yes"/>
			<point x="171.75" y="-10"/>
			<point x="61.25" y="122.125"/>
			<point x="61.25" y="340" type="curve" smooth="yes"/>
			<point x="61.25" y="557.875"/>
			<point x="171.75" y="690"/>
			<point x="354.25" y="690" type="curve" smooth="yes"/>
			<point x="495.25" y="690"/>
			<point x="593.375" y="601.5"/>
			<point x="621.25" y="450.25" type="curve"/>
			<point x="548.75" y="450.25" type="line"/>
			<point x="525.25" y="556.375"/>
			<point x="453.625" y="617.5"/>
		</contour>
	</outline>
	<anchor name="top" x="347" y="740"/>
</glyph>
<glyph name="H" format="2">
	<unicode hex="0048"/>
	<advance width="624"/>
	<outline>
		<contour>
			<point x="542.5" y="680" type="line"/>
			<point x="542.5" y="0" type="line"/>
			<point x="461.25" y="0" type="line"/>
			<point x="461.25" y="307" type="line"/>
			<point x="162.5" y="307" type="line"/>
			<point x="162.5" y="0" type="line"/>
			<point x="81.25" y="0" type="line"/>
			<point x="81.25" y="680" type="line"/>
			<point x="162.5" y="680" type="line"/>
			<point x="162.5" y="379.5" type="line"/>
			<point x="461.25" y="379.5" type="line"/>
			<point x="461.25" y="680" type="line"/>
		</contour>
	</outline>
	<anchor name="top" x="312.375" y="740"/>
</glyph>
<glyph name="I" format="2">
	<unicode hex="0049"/>
	<advance width="244"/>
	<outline>
		<contour>
			<point x="162.5" y="0" type="line"/>
			<point x="81.25" y="0" type="line"/>
			<point x="81.25" y="680" type="line"/>
			<point x="162.5" y="680" type="line"/>
		</contour>
	</outline>
	<anchor name="top" x="120.875" y="740"/>
</glyph>
<glyph name="J" format="2">
	<unicode hex="004A"/>
	<advance width="311"/>
	<outline>
		<contour>
			<point x="92.75" y="0" type="curve" smooth="yes"/>
			<point x="50" y="0" type="line"/>
			<point x="50" y="72.5" type="line"/>
			<point x="76" y="72.5" type="line" smooth="yes"/>
			<point x="116" y="72.5"/>
			<point x="148" y="119.75"/>
			<point x="148" y="183.75" type="curve" smooth="yes"/>
			<point x="148" y="680" type="line"/>
			<point x="229.25" y="680" type="line"/>
			<point x="229.25" y="194" type="line" smooth="yes"/>
			<point x="229.25" y="78.75"/>
			<point x="191" y="0"/>
		</contour>
	</outline>
	<anchor name="top" x="185.375" y="740"/>
</glyph>
<glyph name="K" format="2">
	<unicode hex="004B"/>
	<advance width="576"/>
	<outline>
		<contour>
			<point x="162.5" y="283.625" type="line"/>
			<point x="162.5" y="0" type="line"/>
			<point x="81.25" y="0" type="line"/>
			<point x="81.25" y="680" type="line"/>
			<point x="162.5" y="680" type="line"/>
			<point x="162.5" y="353.125" type="line"/>
			<point x="249.375" y="370.125" type="line"/>
			<point x="435" y="680" type="line"/>
			<point x="526.25" y="680" type="line"/>
			<point x="326.25" y="350" type="line"/>
			<point x="566.25" y="0" type="line"/>
			<point x="467.5" y="0" type="line"/>
			<point x="259.25" y="305.875" type="line"/>
		</contour>
	</outline>
	<anchor name="top" x="272.875" y="740"/>
</glyph>
<glyph name="L" format="2">
	<unicode hex="004C"/>
	<advance width="541"/>
	<outline>
		<contour>
			<point x="162.5" y="680" type="line"/>
			<point x="162.5" y="72.5" type="line"/>
			<point x="469.375" y="72.5" type="line"/>
			<point x="469.375" y="0" type="line"/>
			<point x="81.25" y="0" type="line"/>
			<point x="81.25" y="680" type="line"/>
		</contour>
	</outline>
	<anchor name="top" x="121.625" y="740"/>
</glyph>
<glyph name="M" format="2">
	<unicode hex="004D"/>
	<advance width="799"/>
	<outline>
		<contour>
			<point x="717.5" y="680" type="line"/>
			<point x="717.5" y="0" type="line"/>
			<point x="636.25" y="0" type="line"/>
			<point x="636.25" y="495.75" type="line"/>
			<point x="445.625" y="0" type="line"/>
			<point x="352.375" y="0" type="line"/>
			<point x="162.5" y="494.625" type="line"/>
			<point x="162.5" y="0" type="line"/>
			<point x="81.25" y="0" type="line"/>
			<point x="81.25" y="680" type="line"/>
			<point x="171.25" y="680" type="line"/>
			<point x="371" y="175.625" type="line" smooth="yes"/>
			<point x="380.375" y="152.125"/>
			<point x="390.875" y="121.375"/>
			<point x="399.375" y="92.5" type="curve"/>
			<point x="407.875" y="121.375"/>
			<point x="418.375" y="152.125"/>
			<point x="427.75" y="175.625" type="curve" smooth="yes"/>
			<point x="627.5" y="680" type="line"/>
		</contour>
	</outline>
	<anchor name="top" x="402.625" y="740"/>
</glyph>
<glyph name="N" format="2">
	<unicode hex="004E"/>
	<advance width="654"/>
	<outline>
		<contour>
			<point x="162.5" y="482.5" type="curve" smooth="yes"/>
			<point x="162.5" y="0" type="line"/>
			<point x="81.25" y="0" type="line"/>
			<point x="81.25" y="680" type="line"/>
			<point x="171.25" y="680" type="line"/>
			<point x="493.875" y="132.625" type="line"/>
			<point x="491.5" y="157.375"/>
			<point x="491.5" y="180.125"/>
			<point x="491.5" y="197.5" type="curve" smooth="yes"/>
			<point x="491.5" y="680" type="line"/>
			<point x="572.75" y="680" type="line"/>
			<point x="572.75" y="0" type="line"/>
			<point x="482.75" y="0" type="line"/>
			<point x="160.125" y="547.375" type="line"/>
			<point x="162.5" y="522.625"/>
			<point x="162.5" y="499.875"/>
		</contour>
	</outline>
	<anchor name="top" x="321.125" y="740"/>
</glyph>
<glyph name="O" format="2">
	<unicode hex="004F"/>
	<advance width="709"/>
	<outline>
		<contour>
			<point x="354.25" y="617.5" type="curve" smooth="yes"/>
			<point x="223.375" y="617.5"/>
			<point x="142.5" y="510.625"/>
			<point x="142.5" y="340" type="curve" smooth="yes"/>
			<point x="142.5" y="169.375"/>
			<point x="223.375" y="62.5"/>
			<point x="354.25" y="62.5" type="curve" smooth="yes"/>
			<point x="485.125" y="62.5"/>
			<point x="566" y="169.375"/>
			<point x="566" y="340" type="curve" smooth="yes"/>
			<point x="566" y="510.625"/>
			<point x="485.125" y="617.5"/>
		</contour>
		<contour>
			<point x="354.25" y="-10" type="curve" smooth="yes"/>
			<point x="171.75" y="-10"/>
			<point x="61.25" y="122.125"/>
			<point x="61.25" y="340" type="curve" smooth="yes"/>
			<point x="61.25" y="557.875"/>
			<point x="171.75" y="690"/>
			<point x="354.25" y="690" type="curve" smooth="yes"/>
			<point x="536.75" y="690"/>
			<point x="647.25" y="557.875"/>
			<point x="647.25" y="340" type="curve" smooth="yes"/>
			<point x="647.25" y="122.125"/>
			<point x="536.75" y="-10"/>
		</contour>
	</outline>
	<anchor name="top" x="351.375" y="740"/>
</glyph>
<glyph name="P" format="2">
	<unicode hex="0050"/>
	<advance width="580"/>
	<outline>
		<contour>
			<point x="299.375" y="607.5" type="curve" smooth="yes"/>
			<point x="162.5" y="607.5" type="line"/>
			<point x="162.5" y="330" type="line"/>
			<point x="299.375" y="330" type="line" smooth="yes"/>
			<point x="401.875" y="330"/>
			<point x="450" y="397"/>
			<point x="450" y="475.75" type="curve" smooth="yes"/>
			<point x="450" y="557.25"/>
			<point x="394.375" y="607.5"/>
		</contour>
		<contour>
			<point x="280.625" y="257.5" type="curve" smooth="yes"/>
			<point x="162.5" y="257.5" type="line"/>
			<point x="162.5" y="0" type="line"/>
			<point x="81.25" y="0" type="line"/>
			<point x="81.25" y="680" type="line"/>
			<point x="280.625" y="680" type="line" smooth="yes"/>
			<point x="420.625" y="680"/>
			<point x="523.75" y="629.5"/>
			<point x="523.75" y="475.75" type="curve" smooth="yes"/>
			<point x="523.75" y="356.375"/>
			<point x="463.75" y="257.5"/>
		</contour>
	</outline>
	<anchor name="top" x="267" y="740"/>
</glyph>
<glyph name="Q" format="2">
	<unicode hex="0051"/>
	<advance width="709"/>
	<outline>
		<component base="O"/>
		<contour>
			<point x="592" y="-34" type="line"/>
			<point x="547.875" y="-72.75" type="line"/>
			<point x="370.125" y="111.375" type="line"/>
			<point x="414.25" y="150.125" type="line"/>
		</contour>
	</outline>
	<anchor name="top" x="353.25" y="740"/>
</glyph>
<glyph name="S" format="2">
	<unicode hex="0053"/>
	<advance width="619"/>
	<outline>
		<contour>
			<point x="61.25" y="204.25" type="curve"/>
			<point x="146.25" y="204.25" type="line"/>
			<point x="146.25" y="119.875"/>
			<point x="209.875" y="62.5"/>
			<point x="311.875" y="62.5" type="curve" smooth="yes"/>
			<point x="411.25" y="62.5"/>
			<point x="472.25" y="111.25"/>
			<point x="472.25" y="183.375" type="curve" smooth="yes"/>
			<point x="472.25" y="238.25"/>
			<point x="440.125" y="274.875"/>
			<point x="375.625" y="295" type="curve"/>
			<point x="190.5" y="366.125" type="line"/>
			<point x="123.375" y="390.5"/>
			<point name=".hr01" x="79.875" y="445"/>
			<point x="79.875" y="515.125" type="curve" smooth="yes"/>
			<point x="79.875" y="621.375"/>
			<point x="165.875" y="690"/>
			<point x="307.375" y="690" type="curve" smooth="yes"/>
			<point x="452" y="690"/>
			<point x="555.25" y="603.75"/>
			<point x="555.25" y="493.5" type="curve"/>
			<point x="470.25" y="493.5" type="line"/>
			<point x="470.25" y="565.375"/>
			<point x="404.125" y="617.5"/>
			<point x="294.625" y="617.5" type="curve" smooth="yes"/>
			<point x="213.625" y="617.5"/>
			<point x="164.875" y="580.125"/>
			<point x="164.875" y="515.5" type="curve" smooth="yes"/>
			<point x="164.875" y="467.125"/>
			<point x="195.625" y="429.375"/>
			<point x="251.125" y="411.25" type="curve"/>
			<point x="436.125" y="342.5" type="line" smooth="yes"/>
			<point x="516.875" y="313.375"/>
			<point x="557.25" y="262.125"/>
			<point x="557.25" y="180.375" type="curve" smooth="yes"/>
			<point x="557.25" y="62.75"/>
			<point x="468" y="-10"/>
			<point x="311.125" y="-10" type="curve" smooth="yes"/>
			<point x="159.375" y="-10"/>
			<point name=".hr02" x="61.25" y="76"/>
		</contour>
	</outline>
	<anchor name="top" x="292.625" y="740"/>
</glyph>
<glyph name="T" format="2">
	<unicode hex="0054"/>
	<advance width="480"/>
	<outline>
		<contour>
			<point x="280.625" y="607.5" type="line"/>
			<point x="280.625" y="0" type="line"/>
			<point x="199.375" y="0" type="line"/>
			<point x="199.375" y="607.5" type="line"/>
			<point x="10" y="607.5" type="line"/>
			<point x="10" y="680" type="line"/>
			<point x="470" y="680" type="line"/>
			<point x="470" y="607.5" type="line"/>
		</contour>
	</outline>
	<anchor name="top" x="236.375" y="740"/>
</glyph>
<glyph name="U" format="2">
	<unicode hex="0055"/>
	<advance width="590"/>
	<outline>
		<contour>
			<point x="50" y="245" type="curve" smooth="yes"/>
			<point x="50" y="680" type="line"/>
			<point x="130" y="680" type="line"/>
			<point x="130" y="272.5" type="line" smooth="yes"/>
			<point x="130" y="129.125"/>
			<point x="187.5" y="66.25"/>
			<point x="295" y="66.25" type="curve" smooth="yes"/>
			<point x="402.5" y="66.25"/>
			<point x="460" y="129.125"/>
			<point x="460" y="272.5" type="curve" smooth="yes"/>
			<point x="460" y="680" type="line"/>
			<point x="540" y="680" type="line"/>
			<point x="540" y="245" type="line" smooth="yes"/>
			<point x="540" y="76"/>
			<point x="452.5" y="-10"/>
			<point x="295" y="-10" type="curve" smooth="yes"/>
			<point x="137.5" y="-10"/>
			<point x="50" y="76"/>
		</contour>
	</outline>
	<anchor name="top" x="296.125" y="740"/>
</glyph>
<glyph name="V" format="2">
	<unicode hex="0056"/>
	<advance width="544"/>
	<outline>
		<contour>
			<point x="292.75" y="175.625" type="curve" smooth="yes"/>
			<point x="452.5" y="680" type="line"/>
			<point x="533.75" y="680" type="line"/>
			<point x="318.125" y="0" type="line"/>
			<point x="224.875" y="0" type="line"/>
			<point x="10" y="680" type="line"/>
			<point x="91.25" y="680" type="line"/>
			<point x="251" y="175.625" type="line" smooth="yes"/>
			<point x="258.5" y="152.25"/>
			<point x="266" y="123.5"/>
			<point x="271.875" y="95.875" type="curve"/>
			<point x="277.75" y="123.5"/>
			<point x="285.25" y="152.25"/>
		</contour>
	</outline>
	<anchor name="top" x="269.875" y="740"/>
</glyph>
<glyph name="W" format="2">
	<unicode hex="0057"/>
	<advance width="986"/>
	<outline>
		<contour>
			<point x="735.25" y="175.625" type="curve" smooth="yes"/>
			<point x="895" y="680" type="line"/>
			<point x="976.25" y="680" type="line"/>
			<point x="760.625" y="0" type="line"/>
			<point x="667.375" y="0" type="line"/>
			<point x="493.125" y="548.875" type="line"/>
			<point x="318.125" y="0" type="line"/>
			<point x="224.875" y="0" type="line"/>
			<point x="10" y="680" type="line"/>
			<point x="91.25" y="680" type="line"/>
			<point x="251" y="175.625" type="line" smooth="yes"/>
			<point x="258.5" y="152.25"/>
			<point x="266" y="123.5"/>
			<point x="271.875" y="95.875" type="curve"/>
			<point x="277.75" y="123.5"/>
			<point x="285.25" y="152.25"/>
			<point x="292.75" y="175.625" type="curve" smooth="yes"/>
			<point x="452.5" y="680" type="line"/>
			<point x="533.75" y="680" type="line"/>
			<point x="693.5" y="175.625" type="line" smooth="yes"/>
			<point x="701" y="152.25"/>
			<point x="708.5" y="123.5"/>
			<point x="714.375" y="95.875" type="curve"/>
			<point x="720.25" y="123.5"/>
			<point x="727.75" y="152.25"/>
		</contour>
	</outline>
	<anchor name="top" x="493.625" y="740"/>
</glyph>
<glyph name="X" format="2">
	<unicode hex="0058"/>
	<advance width="660"/>
	<outline>
		<contour>
			<point x="564.5" y="680" type="line"/>
			<point x="372.75" y="352" type="line"/>
			<point x="579" y="0" type="line"/>
			<point x="480.75" y="0" type="line"/>
			<point x="323.5" y="268.625" type="line"/>
			<point x="165.875" y="0" type="line"/>
			<point x="68.75" y="0" type="line"/>
			<point x="275.25" y="351.625" type="line"/>
			<point x="82.5" y="680" type="line"/>
			<point x="180" y="680" type="line"/>
			<point x="323.875" y="434.625" type="line"/>
			<point x="468.125" y="680" type="line"/>
		</contour>
	</outline>
	<anchor name="top" x="325.625" y="740"/>
</glyph>
<glyph name="Y" format="2">
	<unicode hex="0059"/>
	<advance width="594"/>
	<outline>
		<contour>
			<point x="256.375" y="272.5" type="line"/>
			<point x="44.375" y="680" type="line"/>
			<point x="127.5" y="680" type="line"/>
			<point x="296" y="361.75" type="line"/>
			<point x="298" y="361.75" type="line"/>
			<point x="469" y="680" type="line"/>
			<point x="550.25" y="680" type="line"/>
			<point x="337.625" y="272.5" type="line"/>
			<point x="337.625" y="0" type="line"/>
			<point x="256.375" y="0" type="line"/>
		</contour>
	</outline>
	<anchor name="top" x="298.875" y="740"/>
</glyph>
<glyph name="Z" format="2">
	<unicode hex="005A"/>
	<advance width="549"/>
	<outline>
		<contour>
			<point x="496.25" y="72.5" type="line"/>
			<point x="496.25" y="0" type="line"/>
			<point x="24.375" y="0" type="line"/>
			<point x="24.375" y="38.75" type="line"/>
			<point x="374.75" y="607.5" type="line"/>
			<point x="38.75" y="607.5" type="line"/>
			<point x="38.75" y="680" type="line"/>
			<point x="491" y="680" type="line"/>
			<point x="491" y="641.25" type="line"/>
			<point x="141.25" y="72.5" type="line"/>
		</contour>
	</outline>
	<anchor name="top" x="254.875" y="740"/>
</glyph>
<glyph name="bracketleft" format="2">
	<unicode hex="005B"/>
	<advance width="398"/>
	<outline>
		<contour>
			<point x="70" y="817.5" type="line"/>
			<point x="327.5" y="817.5" type="line"/>
			<point x="327.5" y="745" type="line"/>
			<point x="150" y="745" type="line"/>
			<point x="150" y="-46" type="line"/>
			<point x="327.5" y="-46" type="line"/>
			<point x="327.5" y="-118.5" type="line"/>
			<point x="70" y="-118.5" type="line"/>
		</contour>
	</outline>
</glyph>
<glyph name="backslash" format="2">
	<unicode hex="005C"/>
	<advance width="531"/>
	<outline>
		<contour>
			<point x="392" y="0" type="line"/>
			<point x="45" y="700" type="line"/>
			<point x="137" y="700" type="line"/>
			<point x="485.5" y="0" type="line"/>
		</contour>
	</outline>
</glyph>
<glyph name="bracketright" format="2">
	<unicode hex="005D"/>
	<advance width="398"/>
	<outline>
		<contour>
			<point x="70" y="-118.5" type="line"/>
			<point x="70" y="-46" type="line"/>
			<point x="247.5" y="-46" type="line"/>
			<point x="247.5" y="745" type="line"/>
			<point x="70" y="745" type="line"/>
			<point x="70" y="817.5" type="line"/>
			<point x="327.5" y="817.5" type="line"/>
			<point x="327.5" y="-118.5" type="line"/>
		</contour>
	</outline>
</glyph>
<glyph name="asciicircum" format="2">
	<unicode hex="005E"/>
	<advance width="497"/>
	<outline>
		<contour>
			<point x="45.625" y="520" type="line"/>
			<point x="196.875" y="800" type="line"/>
			<point x="299.625" y="800" type="line"/>
			<point x="450.875" y="520" type="line"/>
			<point x="361.125" y="520" type="line"/>
			<point x="236.625" y="749.5" type="line"/>
			<point x="263.625" y="749.5" type="line"/>
			<point x="139.125" y="520" type="line"/>
		</contour>
	</outline>
</glyph>
<glyph name="grave" format="2">
	<unicode hex="0060"/>
	<advance width="265"/>
	<outline>
		<contour>
			<point x="121.25" y="520" type="line"/>
			<point x="42.5" y="707.5" type="line"/>
			<point x="141.5" y="707.5" type="line"/>
			<point x="191.5" y="520" type="line"/>
		</contour>
	</outline>
</glyph>
<glyph name="a" format="2">
	<unicode hex="0061"/>
	<advance width="474"/>
	<outline>
		<contour>
			<point x="48.75" y="123" type="curve" smooth="yes"/>
			<point x="48.75" y="206.875"/>
			<point x="103.5" y="248.625"/>
			<point x="240.375" y="270.375" type="curve"/>
			<point x="350.75" y="289.625" type="line"/>
			<point x="350.75" y="253.75" type="line"/>
			<point x="248.75" y="231.75" type="line" smooth="yes"/>
			<point x="158" y="212.25"/>
			<point x="132.5" y="187.625"/>
			<point x="132.5" y="130" type="curve" smooth="yes"/>
			<point x="132.5" y="81.375"/>
			<point x="174.25" y="47.5"/>
			<point x="224.375" y="47.5" type="curve" smooth="yes"/>
			<point x="261.5" y="47.5"/>
			<point x="310.25" y="69.5"/>
			<point x="342" y="102" type="curve"/>
			<point x="356.125" y="117.25" type="line"/>
			<point x="356.125" y="51.5" type="line"/>
			<point x="338.625" y="51.5" type="line"/>
			<point x="295.875" y="11.75"/>
			<point x="246.375" y="-11.5"/>
			<point x="185.75" y="-11.5" type="curve" smooth="yes"/>
			<point x="104.75" y="-11.5"/>
			<point x="48.75" y="44"/>
		</contour>
		<contour>
			<point x="353.25" y="0" type="line"/>
			<point x="342" y="54" type="line"/>
			<point x="342" y="335" type="line" smooth="yes"/>
			<point x="342" y="388.25"/>
			<point x="309.75" y="418.125"/>
			<point x="247" y="418.125" type="curve" smooth="yes"/>
			<point x="195.75" y="418.125"/>
			<point x="159" y="381.75"/>
			<point x="153.75" y="330" type="curve"/>
			<point name=".hr01" x="72.25" y="330" type="line"/>
			<point x="79.875" y="413.25"/>
			<point x="146.125" y="471.5"/>
			<point x="253" y="471.5" type="curve" smooth="yes"/>
			<point x="363.625" y="471.5"/>
			<point x="422" y="414.125"/>
			<point x="422" y="336.5" type="curve" smooth="yes"/>
			<point x="422" y="0" type="line"/>
		</contour>
	</outline>
	<anchor name="top" x="251.5" y="520"/>
</glyph>
<glyph name="b" format="2">
	<unicode hex="0062"/>
	<advance width="538"/>
	<outline>
		<contour>
			<point x="140.625" y="244.5" type="curve" smooth="yes"/>
			<point x="140.625" y="218.5" type="line" smooth="yes"/>
			<point x="140.625" y="97.75"/>
			<point x="217" y="47.5"/>
			<point x="274.375" y="47.5" type="curve" smooth="yes"/>
			<point x="343.5" y="47.5"/>
			<point x="411" y="108"/>
			<point x="411" y="233.5" type="curve" smooth="yes"/>
			<point x="411" y="356.125"/>
			<point x="352.25" y="412.5"/>
			<point x="272.5" y="412.5" type="curve" smooth="yes"/>
			<point x="201.125" y="412.5"/>
			<point x="140.625" y="339.875"/>
		</contour>
		<contour>
			<point x="131.25" y="103.375" type="line"/>
			<point x="130.125" y="337.375" type="line"/>
			<point x="140.625" y="359.375" type="line" smooth="yes"/>
			<point x="172.5" y="430.625"/>
			<point x="224.625" y="471.5"/>
			<point x="299.125" y="471.5" type="curve" smooth="yes"/>
			<point x="410.125" y="471.5"/>
			<point x="494.75" y="386.375"/>
			<point x="494.75" y="233.5" type="curve" smooth="yes"/>
			<point x="494.75" y="80.25"/>
			<point x="392.625" y="-11.5"/>
			<point x="297.625" y="-11.5" type="curve" smooth="yes"/>
			<point x="231.125" y="-11.5"/>
			<point x="175.125" y="23.5"/>
			<point x="140.625" y="103.375" type="curve"/>
		</contour>
		<contour>
			<point x="60.625" y="0" type="line"/>
			<point x="60.625" y="700" type="line"/>
			<point x="140.625" y="700" type="line"/>
			<point x="140.625" y="103.375" type="line"/>
			<point x="138.625" y="103.375" type="line"/>
			<point x="124.375" y="0" type="line"/>
		</contour>
	</outline>
</glyph>
<glyph name="h" format="2">
	<unicode hex="0068"/>
	<advance width="545"/>
	<outline>
		<contour>
			<point x="138" y="289.125" type="line"/>
			<point x="138" y="369.5" type="line"/>
			<point x="155" y="369.5" type="line"/>
			<point x="196.125" y="435.625"/>
			<point x="255.75" y="471.5"/>
			<point x="321.125" y="471.5" type="curve" smooth="yes"/>
			<point x="415.75" y="471.5"/>
			<point x="469.875" y="412.625"/>
			<point x="469.875" y="309" type="curve" smooth="yes"/>
			<point x="469.875" y="0" type="line"/>
			<point x="389.875" y="0" type="line"/>
			<point x="389.875" y="287.625" type="line" smooth="yes"/>
			<point x="389.875" y="364.625"/>
			<point x="348.25" y="409"/>
			<point x="284.75" y="409" type="curve" smooth="yes"/>
			<point x="220.375" y="409"/>
			<point x="159.5" y="352"/>
			<point x="155" y="289.125" type="curve"/>
		</contour>
		<contour>
			<point x="75" y="0" type="line"/>
			<point x="75" y="700" type="line"/>
			<point x="155" y="700" type="line"/>
			<point x="155" y="0" type="line"/>
		</contour>
	</outline>
</glyph>
<glyph name="i" format="2">
	<unicode hex="0069"/>
	<advance width="250"/>
	<outline>
		<contour>
			<point x="165" y="0" type="line"/>
			<point x="85" y="0" type="line"/>
			<point x="85" y="460" type="line"/>
			<point x="165" y="460" type="line"/>
		</contour>
		<contour>
			<point x="165" y="520" type="line"/>
			<point x="85" y="520" type="line"/>
			<point x="85" y="633.75" type="line"/>
			<point x="165" y="633.75" type="line"/>
		</contour>
	</outline>
</glyph>
<glyph name="k" format="2">
	<unicode hex="006B"/>
	<advance width="514"/>
	<outline>
		<contour>
			<point x="125" y="196.875" type="line"/>
			<point x="125" y="278.25" type="line"/>
			<point x="185.375" y="294.875" type="line"/>
			<point x="310.25" y="460" type="line"/>
			<point x="410.875" y="460" type="line"/>
			<point x="260.875" y="265.125" type="line"/>
			<point x="425.25" y="0" type="line"/>
			<point x="327.125" y="0" type="line"/>
			<point x="193.625" y="215.375" type="line"/>
		</contour>
		<contour>
			<point x="45" y="0" type="line"/>
			<point x="45" y="700" type="line"/>
			<point x="125" y="700" type="line"/>
			<point x="125" y="0" type="line"/>
		</contour>
	</outline>
</glyph>
<glyph name="l" format="2">
	<unicode hex="006C"/>
	<advance width="230"/>
	<outline>
		<contour>
			<point x="155" y="0" type="line"/>
			<point x="75" y="0" type="line"/>
			<point x="75" y="700" type="line"/>
			<point x="155" y="700" type="line"/>
		</contour>
	</outline>
</glyph>
<glyph name="m" format="2">
	<unicode hex="006D"/>
	<advance width="826"/>
	<outline>
		<contour>
			<point x="155" y="310" type="curve"/>
			<point x="155" y="0" type="line"/>
			<point x="75" y="0" type="line"/>
			<point x="75" y="460" type="line"/>
			<point x="135" y="460" type="line"/>
			<point x="151" y="379" type="line"/>
			<point x="185" y="425"/>
			<point x="231" y="470"/>
			<point x="303" y="470" type="curve" smooth="yes"/>
			<point x="397" y="470"/>
			<point x="432" y="424"/>
			<point x="445" y="374" type="curve"/>
			<point x="479" y="422"/>
			<point x="526" y="470"/>
			<point x="601" y="470" type="curve" smooth="yes"/>
			<point x="745" y="470"/>
			<point x="751" y="362"/>
			<point x="751" y="295" type="curve" smooth="yes"/>
			<point x="751" y="0" type="line"/>
			<point x="671" y="0" type="line"/>
			<point x="671" y="295" type="line" smooth="yes"/>
			<point x="671" y="339"/>
			<point x="662" y="405"/>
			<point x="579" y="405" type="curve" smooth="yes"/>
			<point x="537" y="405"/>
			<point x="477" y="372"/>
			<point x="453" y="309" type="curve"/>
			<point x="453" y="304"/>
			<point x="453" y="300"/>
			<point x="453" y="295" type="curve" smooth="yes"/>
			<point x="453" y="0" type="line"/>
			<point x="373" y="0" type="line"/>
			<point x="373" y="295" type="line" smooth="yes"/>
			<point x="373" y="339"/>
			<point x="364" y="405"/>
			<point x="281" y="405" type="curve" smooth="yes"/>
			<point x="239" y="405"/>
			<point x="179" y="372"/>
		</contour>
	</outline>
</glyph>
<glyph name="n" format="2">
	<unicode hex="006E"/>
	<advance width="545"/>
	<outline>
		<contour>
			<point x="138" y="289.125" type="line"/>
			<point x="138" y="369.5" type="line"/>
			<point x="155" y="369.5" type="line"/>
			<point x="196.125" y="435.625"/>
			<point x="255.75" y="471.5"/>
			<point x="321.125" y="471.5" type="curve" smooth="yes"/>
			<point x="415.75" y="471.5"/>
			<point x="469.875" y="412.625"/>
			<point x="469.875" y="309" type="curve" smooth="yes"/>
			<point x="469.875" y="0" type="line"/>
			<point x="389.875" y="0" type="line"/>
			<point x="389.875" y="287.625" type="line" smooth="yes"/>
			<point x="389.875" y="364.625"/>
			<point x="348.25" y="409"/>
			<point x="284.75" y="409" type="curve" smooth="yes"/>
			<point x="220.375" y="409"/>
			<point x="159.5" y="352"/>
			<point x="155" y="289.125" type="curve"/>
		</contour>
		<contour>
			<point x="75" y="0" type="line"/>
			<point x="75" y="460" type="line"/>
			<point x="145" y="460" type="line"/>
			<point x="152.875" y="369.5" type="line"/>
			<point x="155" y="369.5" type="line"/>
			<point x="155" y="0" type="line"/>
		</contour>
	</outline>
</glyph>
<glyph name="o" format="2">
	<unicode hex="006F"/>
	<advance width="521"/>
	<outline>
		<contour>
			<point x="116.875" y="230" type="curve" smooth="yes"/>
			<point x="116.875" y="109.625"/>
			<point x="176.25" y="40"/>
			<point x="260.625" y="40" type="curve" smooth="yes"/>
			<point x="344.75" y="40"/>
			<point x="404.375" y="108"/>
			<point x="404.375" y="230" type="curve" smooth="yes"/>
			<point x="404.375" y="350.375"/>
			<point x="345" y="420"/>
			<point x="260.625" y="420" type="curve" smooth="yes"/>
			<point x="176.5" y="420"/>
			<point x="116.875" y="352"/>
		</contour>
		<contour>
			<point x="33.125" y="230" type="curve" smooth="yes"/>
			<point x="33.125" y="372.875"/>
			<point x="116.25" y="471.5"/>
			<point x="260.625" y="471.5" type="curve" smooth="yes"/>
			<point x="405.75" y="471.5"/>
			<point x="488.125" y="372.625"/>
			<point x="488.125" y="230" type="curve" smooth="yes"/>
			<point x="488.125" y="87.125"/>
			<point x="405" y="-11.5"/>
			<point x="260.625" y="-11.5" type="curve" smooth="yes"/>
			<point x="115.5" y="-11.5"/>
			<point x="33.125" y="87.375"/>
		</contour>
	</outline>
	<anchor name="top" x="258.125" y="526.25"/>
</glyph>
<glyph name="p" format="2">
	<unicode hex="0070"/>
	<advance width="500"/>
	<outline>
		<contour>
			<point x="134.375" y="230.75" type="curve" smooth="yes"/>
			<point x="134.375" y="226" type="line" smooth="yes"/>
			<point x="134.375" y="123"/>
			<point x="185.375" y="55"/>
			<point x="254.375" y="55" type="curve" smooth="yes"/>
			<point x="347.375" y="55"/>
			<point x="385.375" y="123"/>
			<point x="385.375" y="231" type="curve" smooth="yes"/>
			<point x="385.375" y="306"/>
			<point x="366.375" y="405"/>
			<point x="254.375" y="405" type="curve" smooth="yes"/>
			<point x="171.375" y="405"/>
			<point x="134.375" y="314.75"/>
		</contour>
		<contour>
			<point x="54.375" y="-200" type="line"/>
			<point x="54.375" y="460" type="line"/>
			<point x="114.375" y="460" type="line"/>
			<point x="132.5" y="377.25" type="line"/>
			<point x="160.75" y="436"/>
			<point x="208.75" y="470"/>
			<point x="279.375" y="470" type="curve" smooth="yes"/>
			<point x="404.375" y="470"/>
			<point x="465.375" y="350"/>
			<point x="465.375" y="231" type="curve" smooth="yes"/>
			<point x="465.375" y="111"/>
			<point x="401.375" y="-10"/>
			<point x="275.375" y="-10" type="curve" smooth="yes"/>
			<point x="208.625" y="-10"/>
			<point x="160.375" y="19.125"/>
			<point x="134.375" y="68.375" type="curve"/>
			<point x="134.375" y="-200" type="line"/>
		</contour>
	</outline>
</glyph>
<glyph name="dieresis" format="2">
	<unicode hex="00A8"/>
	<advance width="314"/>
	<outline>
		<contour>
			<point x="98.75" y="520" type="line"/>
			<point x="56.25" y="520" type="line"/>
			<point x="56.25" y="600" type="line"/>
			<point x="98.75" y="600" type="line"/>
		</contour>
		<contour>
			<point x="258" y="520" type="line"/>
			<point x="215.5" y="520" type="line"/>
			<point x="215.5" y="600" type="line"/>
			<point x="258" y="600" type="line"/>
		</contour>
	</outline>
</glyph>
<glyph name="guillemotleft" format="2">
	<unicode hex="00AB"/>
	<advance width="495"/>
	<outline>
		<contour>
			<point x="199" y="31" type="line"/>
			<point x="61" y="230" type="line"/>
			<point x="199" y="428" type="line"/>
			<point x="263" y="428" type="line"/>
			<point x="150" y="230" type="line"/>
			<point x="263" y="31" type="line"/>
		</contour>
		<contour>
			<point x="369" y="31" type="line"/>
			<point x="231" y="230" type="line"/>
			<point x="369" y="428" type="line"/>
			<point x="433" y="428" type="line"/>
			<point x="320" y="230" type="line"/>
			<point x="433" y="31" type="line"/>
		</contour>
	</outline>
</glyph>
<glyph name="acute" format="2">
	<unicode hex="00B4"/>
	<advance width="300"/>
	<outline>
		<contour>
			<point x="153.75" y="508.75" type="line"/>
			<point x="77.5" y="508.75" type="line"/>
			<point x="135" y="700" type="line"/>
			<point x="227.25" y="700" type="line"/>
		</contour>
	</outline>
</glyph>
<glyph name="uni00B5" format="2">
	<unicode hex="00B5"/>
	<advance width="495"/>
	<outline>
		<contour>
			<point x="139" y="-177" type="line"/>
			<point x="60" y="-177" type="line"/>
			<point x="60" y="461" type="line"/>
			<point x="138" y="461" type="line"/>
			<point x="138" y="266" type="line" smooth="yes"/>
			<point x="138" y="126"/>
			<point x="157" y="60"/>
			<point x="246" y="60" type="curve" smooth="yes"/>
			<point x="270" y="60"/>
			<point x="311" y="69"/>
			<point x="338" y="112" type="curve" smooth="yes"/>
			<point x="356" y="142"/>
			<point x="356" y="186"/>
			<point x="356" y="265" type="curve" smooth="yes"/>
			<point x="356" y="461" type="line"/>
			<point x="434" y="461" type="line"/>
			<point x="434" y="0" type="line"/>
			<point x="365" y="0" type="line"/>
			<point x="365" y="54" type="line"/>
			<point x="364" y="54"/>
			<point x="364" y="54"/>
			<point x="363" y="54" type="curve"/>
			<point x="349" y="30"/>
			<point x="322" y="-11"/>
			<point x="249" y="-11" type="curve" smooth="yes"/>
			<point x="181" y="-11"/>
			<point x="156" y="46"/>
			<point x="139" y="46" type="curve"/>
		</contour>
	</outline>
</glyph>
<glyph name="paragraph" format="2">
	<unicode hex="00B6"/>
	<advance width="478"/>
	<outline>
		<contour>
			<point x="-1" y="454" type="curve" smooth="yes"/>
			<point x="-1" y="572"/>
			<point x="84" y="637"/>
			<point x="191" y="637" type="curve" smooth="yes"/>
			<point x="480" y="637" type="line"/>
			<point x="480" y="562" type="line"/>
			<point x="417" y="562" type="line"/>
			<point x="417" y="-177" type="line"/>
			<point x="344" y="-177" type="line"/>
			<point x="344" y="562" type="line"/>
			<point x="247" y="562" type="line"/>
			<point x="247" y="-177" type="line"/>
			<point x="174" y="-177" type="line"/>
			<point x="174" y="277" type="line"/>
			<point x="54" y="284"/>
			<point x="-1" y="365"/>
		</contour>
	</outline>
</glyph>
<glyph name="onequarter" format="2">
	<unicode hex="00BC"/>
	<advance width="742"/>
	<outline>
		<contour>
			<point x="595" y="101" type="line"/>
			<point x="595" y="214" type="line"/>
			<point x="495" y="101" type="line"/>
		</contour>
		<contour>
			<point x="55" y="510" type="curve"/>
			<point x="55" y="564" type="line"/>
			<point x="93" y="573"/>
			<point x="143" y="614"/>
			<point x="168" y="645" type="curve"/>
			<point x="215" y="645" type="line"/>
			<point x="215" y="319" type="line"/>
			<point x="152" y="319" type="line"/>
			<point x="152" y="560" type="line"/>
			<point x="125" y="538"/>
			<point x="89" y="519"/>
		</contour>
		<contour>
			<point x="657" y="651" type="line"/>
			<point x="178" y="-22" type="line"/>
			<point x="109" y="-22" type="line"/>
			<point x="589" y="651" type="line"/>
		</contour>
		<contour>
			<point x="595" y="-13" type="line"/>
			<point x="595" y="53" type="line"/>
			<point x="428" y="53" type="line"/>
			<point x="428" y="107" type="line"/>
			<point x="603" y="312" type="line"/>
			<point x="657" y="312" type="line"/>
			<point x="657" y="101" type="line"/>
			<point x="702" y="101" type="line"/>
			<point x="702" y="53" type="line"/>
			<point x="657" y="53" type="line"/>
			<point x="657" y="-13" type="line"/>
		</contour>
	</outline>
</glyph>
<glyph name="Aring" format="2">
	<unicode hex="00C5"/>
	<advance width="544"/>
	<outline>
		<contour>
			<point x="365" y="279.375" type="line"/>
			<point x="271.875" y="571.625" type="line"/>
			<point x="178.75" y="279.375" type="line"/>
		</contour>
		<contour>
			<point x="240.875" y="859" type="curve" smooth="yes"/>
			<point x="240.875" y="842"/>
			<point x="254.875" y="828"/>
			<point x="271.875" y="828" type="curve" smooth="yes"/>
			<point x="288.875" y="828"/>
			<point x="302.875" y="842"/>
			<point x="302.875" y="859" type="curve" smooth="yes"/>
			<point x="302.875" y="876"/>
			<point x="288.875" y="890"/>
			<point x="271.875" y="890" type="curve" smooth="yes"/>
			<point x="254.875" y="890"/>
			<point x="240.875" y="876"/>
		</contour>
		<contour>
			<point x="452.5" y="0" type="line"/>
			<point x="389.375" y="199.375" type="line"/>
			<point x="154.375" y="199.375" type="line"/>
			<point x="91.25" y="0" type="line"/>
			<point x="10" y="0" type="line"/>
			<point x="224.875" y="680" type="line"/>
			<point x="318.125" y="680" type="line"/>
			<point x="533.75" y="0" type="line"/>
		</contour>
		<contour>
			<point x="193.875" y="859" type="curve" smooth="yes"/>
			<point x="193.875" y="902"/>
			<point x="228.875" y="937"/>
			<point x="271.875" y="937" type="curve" smooth="yes"/>
			<point x="314.875" y="937"/>
			<point x="349.875" y="902"/>
			<point x="349.875" y="859" type="curve" smooth="yes"/>
			<point x="349.875" y="816"/>
			<point x="314.875" y="781"/>
			<point x="271.875" y="781" type="curve" smooth="yes"/>
			<point x="228.875" y="781"/>
			<point x="193.875" y="816"/>
		</contour>
	</outline>
</glyph>
<glyph name="AE" format="2">
	<unicode hex="00C6"/>
	<advance width="830"/>
	<outline>
		<contour>
			<point x="390" y="610" type="line"/>
			<point x="290" y="610" type="line"/>
			<point x="220" y="372" type="line"/>
			<point x="390" y="372" type="line"/>
		</contour>
		<contour>
			<point x="200" y="282" type="line"/>
			<point x="120" y="0" type="line"/>
			<point x="30" y="0" type="line"/>
			<point x="240" y="700" type="line"/>
			<point x="800" y="700" type="line"/>
			<point name=".hr01" x="800" y="620" type="line"/>
			<point x="480" y="620" type="line"/>
			<point x="480" y="397" type="line"/>
			<point x="760" y="397" type="line"/>
			<point x="760" y="317" type="line"/>
			<point x="480" y="317" type="line"/>
			<point x="480" y="80" type="line"/>
			<point x="800" y="80" type="line"/>
			<point x="800" y="0" type="line"/>
			<point x="390" y="0" type="line"/>
			<point name=".hr02" x="390" y="282" type="line"/>
		</contour>
	</outline>
</glyph>
<glyph name="Ccedilla" format="2">
	<unicode hex="00C7"/>
	<advance width="683"/>
	<outline>
		<contour>
			<point x="256.75" y="-193" type="curve"/>
			<point x="256.75" y="-164" type="line"/>
			<point x="269.75" y="-167"/>
			<point x="290.75" y="-170"/>
			<point x="310.75" y="-170" type="curve" smooth="yes"/>
			<point x="351.75" y="-170"/>
			<point x="369.75" y="-148"/>
			<point x="369.75" y="-118" type="curve" smooth="yes"/>
			<point x="369.75" y="-82"/>
			<point x="320.75" y="-70"/>
			<point x="290.75" y="-67" type="curve"/>
			<point x="318.125" y="-8.625" type="line"/>
			<point x="157.5" y="7.875"/>
			<point x="61.25" y="136.375"/>
			<point x="61.25" y="340" type="curve" smooth="yes"/>
			<point x="61.25" y="557.875"/>
			<point x="171.75" y="690"/>
			<point x="354.25" y="690" type="curve" smooth="yes"/>
			<point x="495.25" y="690"/>
			<point x="593.375" y="601.5"/>
			<point x="621.25" y="450.25" type="curve"/>
			<point x="548.75" y="450.25" type="line"/>
			<point x="525.25" y="556.375"/>
			<point x="453.625" y="617.5"/>
			<point x="354.25" y="617.5" type="curve" smooth="yes"/>
			<point x="223.375" y="617.5"/>
			<point x="142.5" y="510.625"/>
			<point x="142.5" y="340" type="curve" smooth="yes"/>
			<point x="142.5" y="169.375"/>
			<point x="223.375" y="62.5"/>
			<point x="354.25" y="62.5" type="curve" smooth="yes"/>
			<point x="446.5" y="62.5"/>
			<point x="520" y="114.75"/>
			<point x="539.375" y="199" type="curve"/>
			<point x="611.875" y="199" type="line"/>
			<point x="589.375" y="81.25"/>
			<point x="501.5" y="0"/>
			<point x="378.375" y="-8.75" type="curve"/>
			<point x="359.75" y="-46" type="line"/>
			<point x="382.75" y="-54"/>
			<point x="426.75" y="-70"/>
			<point x="426.75" y="-123" type="curve" smooth="yes"/>
			<point x="426.75" y="-177"/>
			<point x="381.75" y="-209"/>
			<point x="326.75" y="-209" type="curve" smooth="yes"/>
			<point x="293.75" y="-209"/>
			<point x="270.75" y="-200"/>
		</contour>
	</outline>
</glyph>
<glyph name="Ntilde" format="2">
	<unicode hex="00D1"/>
	<advance width="654"/>
	<outline>
		<contour>
			<point x="162.5" y="482.5" type="curve" smooth="yes"/>
			<point x="162.5" y="0" type="line"/>
			<point x="81.25" y="0" type="line"/>
			<point x="81.25" y="680" type="line"/>
			<point x="171.25" y="680" type="line"/>
			<point x="493.875" y="132.625" type="line"/>
			<point x="491.5" y="157.375"/>
			<point x="491.5" y="180.125"/>
			<point x="491.5" y="197.5" type="curve" smooth="yes"/>
			<point x="491.5" y="680" type="line"/>
			<point x="572.75" y="680" type="line"/>
			<point x="572.75" y="0" type="line"/>
			<point x="482.75" y="0" type="line"/>
			<point x="160.125" y="547.375" type="line"/>
			<point x="162.5" y="522.625"/>
			<point x="162.5" y="499.875"/>
		</contour>
		<contour>
			<point x="238.5" y="760" type="curve"/>
			<point x="188.5" y="760" type="line"/>
			<point x="202.5" y="847"/>
			<point x="238.5" y="880"/>
			<point name=".hr01" x="278.5" y="880" type="curve" smooth="yes"/>
			<point x="303.5" y="880"/>
			<point x="325.5" y="870"/>
			<point x="347.5" y="859" type="curve"/>
			<point x="363.5" y="850"/>
			<point x="384.5" y="840"/>
			<point name=".hr02" x="404.5" y="840" type="curve" smooth="yes"/>
			<point x="424.5" y="840"/>
			<point x="439.5" y="852"/>
			<point x="444.5" y="880" type="curve"/>
			<point name=".hr03" x="494.5" y="880" type="line"/>
			<point x="480.5" y="793"/>
			<point x="444.5" y="760"/>
			<point name=".hr04" x="404.5" y="760" type="curve" smooth="yes"/>
			<point x="379.5" y="760"/>
			<point x="358.5" y="769"/>
			<point x="337.5" y="780" type="curve" smooth="yes"/>
			<point x="320.5" y="789"/>
			<point x="298.5" y="800"/>
			<point name=".hr05" x="278.5" y="800" type="curve" smooth="yes"/>
			<point x="258.5" y="800"/>
			<point x="243.5" y="788"/>
		</contour>
	</outline>
</glyph>
<glyph name="ucircumflex" format="2">
	<unicode hex="00FB"/>
	<advance width="478"/>
	<outline>
		<contour>
			<point x="354" y="154" type="curve"/>
			<point x="354" y="460" type="line"/>
			<point x="433" y="460" type="line"/>
			<point x="433" y="0" type="line"/>
			<point x="374" y="0" type="line"/>
			<point x="357" y="83" type="line"/>
			<point x="323" y="36"/>
			<point x="275" y="-10"/>
			<point x="200" y="-10" type="curve" smooth="yes"/>
			<point x="51" y="-10"/>
			<point x="45" y="98"/>
			<point x="45" y="165" type="curve" smooth="yes"/>
			<point x="45" y="460" type="line"/>
			<point x="125" y="460" type="line"/>
			<point x="125" y="165" type="line" smooth="yes"/>
			<point x="125" y="121"/>
			<point x="134" y="55"/>
			<point x="222" y="55" type="curve" smooth="yes"/>
			<point x="266" y="55"/>
			<point x="330" y="90"/>
		</contour>
		<contour>
			<point x="239" y="638.75" type="line"/>
			<point x="135.5" y="520" type="line"/>
			<point x="87.75" y="520" type="line"/>
			<point x="200.25" y="687.5" type="line"/>
			<point x="277.75" y="687.5" type="line"/>
			<point x="390.25" y="520" type="line"/>
			<point x="342.5" y="520" type="line"/>
		</contour>
	</outline>
</glyph>
<glyph name="Abreve" format="2">
	<unicode hex="0102"/>
	<advance width="570"/>
	<outline>
		<contour>
			<point x="362.5" y="279.375" type="line"/>
			<point x="269.375" y="571.625" type="line"/>
			<point x="176.25" y="279.375" type="line"/>
		</contour>
		<contour>
			<point x="450" y="0" type="line"/>
			<point x="386.875" y="199.375" type="line"/>
			<point x="151.875" y="199.375" type="line"/>
			<point x="88.75" y="0" type="line"/>
			<point x="7.5" y="0" type="line"/>
			<point x="222.375" y="680" type="line"/>
			<point x="315.625" y="680" type="line"/>
			<point x="531.25" y="0" type="line"/>
		</contour>
		<contour>
			<point x="130" y="890" type="curve"/>
			<point x="210" y="890" type="line"/>
			<point x="210" y="830"/>
			<point x="250" y="810"/>
			<point x="285" y="810" type="curve" smooth="yes"/>
			<point x="320" y="810"/>
			<point x="360" y="830"/>
			<point x="360" y="890" type="curve"/>
			<point x="440" y="890" type="line"/>
			<point x="440" y="790"/>
			<point x="365" y="750"/>
			<point x="285" y="750" type="curve" smooth="yes"/>
			<point x="205" y="750"/>
			<point x="130" y="790"/>
		</contour>
	</outline>
</glyph>
<glyph name="Cacute" format="2">
	<unicode hex="0106"/>
	<advance width="683"/>
	<outline>
		<contour>
			<point x="354.25" y="617.5" type="curve" smooth="yes"/>
			<point x="223.375" y="617.5"/>
			<point x="142.5" y="510.625"/>
			<point x="142.5" y="340" type="curve" smooth="yes"/>
			<point x="142.5" y="169.375"/>
			<point x="223.375" y="62.5"/>
			<point x="354.25" y="62.5" type="curve" smooth="yes"/>
			<point x="446.5" y="62.5"/>
			<point x="520" y="114.75"/>
			<point x="539.375" y="199" type="curve"/>
			<point x="611.875" y="199" type="line"/>
			<point x="587.75" y="74.125"/>
			<point x="489.875" y="-10"/>
			<point x="354.25" y="-10" type="curve" smooth="yes"/>
			<point x="171.75" y="-10"/>
			<point x="61.25" y="122.125"/>
			<point x="61.25" y="340" type="curve" smooth="yes"/>
			<point x="61.25" y="557.875"/>
			<point x="171.75" y="690"/>
			<point x="354.25" y="690" type="curve" smooth="yes"/>
			<point x="495.25" y="690"/>
			<point x="593.375" y="601.5"/>
			<point x="621.25" y="450.25" type="curve"/>
			<point x="548.75" y="450.25" type="line"/>
			<point x="525.25" y="556.375"/>
			<point x="453.625" y="617.5"/>
		</contour>
		<contour>
			<point x="451.375" y="901.25" type="line"/>
			<point x="382.875" y="710" type="line"/>
			<point x="306.625" y="710" type="line"/>
			<point x="364.125" y="901.25" type="line"/>
		</contour>
	</outline>
</glyph>
<glyph name="Cdotaccent" format="2">
	<unicode hex="010A"/>
	<advance width="683"/>
	<outline>
		<contour>
			<point x="354.25" y="617.5" type="curve" smooth="yes"/>
			<point x="223.375" y="617.5"/>
			<point x="142.5" y="510.625"/>
			<point x="142.5" y="340" type="curve" smooth="yes"/>
			<point x="142.5" y="169.375"/>
			<point x="223.375" y="62.5"/>
			<point x="354.25" y="62.5" type="curve" smooth="yes"/>
			<point x="446.5" y="62.5"/>
			<point x="520" y="114.75"/>
			<point x="539.375" y="199" type="curve"/>
			<point x="611.875" y="199" type="line"/>
			<point x="587.75" y="74.125"/>
			<point x="489.875" y="-10"/>
			<point x="354.25" y="-10" type="curve" smooth="yes"/>
			<point x="171.75" y="-10"/>
			<point x="61.25" y="122.125"/>
			<point x="61.25" y="340" type="curve" smooth="yes"/>
			<point x="61.25" y="557.875"/>
			<point x="171.75" y="690"/>
			<point x="354.25" y="690" type="curve" smooth="yes"/>
			<point x="495.25" y="690"/>
			<point x="593.375" y="601.5"/>
			<point x="621.25" y="450.25" type="curve"/>
			<point x="548.75" y="450.25" type="line"/>
			<point x="525.25" y="556.375"/>
			<point x="453.625" y="617.5"/>
		</contour>
		<contour>
			<point x="386.25" y="842.5" type="line"/>
			<point x="386.25" y="740" type="line"/>
			<point x="306.25" y="740" type="line"/>
			<point x="306.25" y="842.5" type="line"/>
		</contour>
	</outline>
</glyph>
<glyph name="Ccaron" format="2">
	<unicode hex="010C"/>
	<advance width="683"/>
	<outline>
		<contour>
			<point x="354.25" y="617.5" type="curve" smooth="yes"/>
			<point x="223.375" y="617.5"/>
			<point x="142.5" y="510.625"/>
			<point x="142.5" y="340" type="curve" smooth="yes"/>
			<point x="142.5" y="169.375"/>
			<point x="223.375" y="62.5"/>
			<point x="354.25" y="62.5" type="curve" smooth="yes"/>
			<point x="446.5" y="62.5"/>
			<point x="520" y="114.75"/>
			<point x="539.375" y="199" type="curve"/>
			<point x="611.875" y="199" type="line"/>
			<point x="587.75" y="74.125"/>
			<point x="489.875" y="-10"/>
			<point x="354.25" y="-10" type="curve" smooth="yes"/>
			<point x="171.75" y="-10"/>
			<point x="61.25" y="122.125"/>
			<point x="61.25" y="340" type="curve" smooth="yes"/>
			<point x="61.25" y="557.875"/>
			<point x="171.75" y="690"/>
			<point x="354.25" y="690" type="curve" smooth="yes"/>
			<point x="495.25" y="690"/>
			<point x="593.375" y="601.5"/>
			<point x="621.25" y="450.25" type="curve"/>
			<point x="548.75" y="450.25" type="line"/>
			<point x="525.25" y="556.375"/>
			<point x="453.625" y="617.5"/>
		</contour>
		<contour>
			<point x="386.25" y="740" type="line"/>
			<point x="306.25" y="740" type="line"/>
			<point x="206.25" y="900" type="line"/>
			<point x="270.25" y="900" type="line"/>
			<point x="346.25" y="815" type="line"/>
			<point x="422.25" y="900" type="line"/>
			<point x="486.25" y="900" type="line"/>
		</contour>
	</outline>
</glyph>
<glyph name="Dcaron" format="2">
	<unicode hex="010E"/>
	<advance width="634"/>
	<outline>
		<contour>
			<point x="162.5" y="607.5" type="line"/>
			<point x="162.5" y="72.5" type="line"/>
			<point x="295.5" y="72.5" type="line" smooth="yes"/>
			<point x="425" y="72.5"/>
			<point x="491.875" y="185.5"/>
			<point x="491.875" y="340" type="curve" smooth="yes"/>
			<point x="491.875" y="508"/>
			<point x="427" y="607.5"/>
			<point x="295.5" y="607.5" type="curve" smooth="yes"/>
		</contour>
		<contour>
			<point x="81.25" y="680" type="line"/>
			<point x="295.5" y="680" type="line" smooth="yes"/>
			<point x="485.5" y="680"/>
			<point x="572.5" y="545.25"/>
			<point x="572.5" y="340" type="curve" smooth="yes"/>
			<point x="572.5" y="133.625"/>
			<point x="485.875" y="0"/>
			<point x="295.5" y="0" type="curve" smooth="yes"/>
			<point x="81.25" y="0" type="line"/>
		</contour>
		<contour>
			<point x="356.875" y="760" type="line"/>
			<point x="276.875" y="760" type="line"/>
			<point x="176.875" y="920" type="line"/>
			<point x="240.875" y="920" type="line"/>
			<point x="316.875" y="835" type="line"/>
			<point x="392.875" y="920" type="line"/>
			<point x="456.875" y="920" type="line"/>
		</contour>
	</outline>
</glyph>
<glyph name="Dcroat" format="2">
	<unicode hex="0110"/>
	<advance width="705"/>
	<outline>
		<contour>
			<point x="240" y="320" type="line"/>
			<point x="190" y="320" type="line"/>
			<point x="190" y="80" type="line"/>
			<point x="378" y="80" type="line" smooth="yes"/>
			<point x="528" y="80"/>
			<point x="570" y="241"/>
			<point x="570" y="350" type="curve" smooth="yes"/>
			<point x="570" y="498"/>
			<point x="527" y="620"/>
			<point x="378" y="620" type="curve" smooth="yes"/>
			<point x="190" y="620" type="line"/>
			<point x="190" y="400" type="line"/>
			<point x="240" y="400" type="line"/>
		</contour>
		<contour>
			<point x="100" y="0" type="line"/>
			<point x="100" y="320" type="line"/>
			<point x="20" y="320" type="line"/>
			<point x="20" y="400" type="line"/>
			<point x="100" y="400" type="line"/>
			<point x="100" y="700" type="line"/>
			<point x="378" y="700" type="line" smooth="yes"/>
			<point x="568" y="700"/>
			<point x="660" y="550"/>
			<point x="660" y="350" type="curve" smooth="yes"/>
			<point x="660" y="147"/>
			<point x="569" y="0"/>
			<point x="378" y="0" type="curve" smooth="yes"/>
		</contour>
	</outline>
</glyph>
<glyph name="Emacron" format="2">
	<unicode hex="0112"/>
	<advance width="510"/>
	<outline>
		<contour>
			<point x="420" y="313.75" type="line"/>
			<point x="162.5" y="313.75" type="line"/>
			<point x="162.5" y="68.75" type="line"/>
			<point x="460" y="68.75" type="line"/>
			<point x="460" y="0" type="line"/>
			<point x="81.25" y="0" type="line"/>
			<point x="81.25" y="680" type="line"/>
			<point x="460" y="680" type="line"/>
			<point x="460" y="611.25" type="line"/>
			<point x="162.5" y="611.25" type="line"/>
			<point x="162.5" y="382.5" type="line"/>
			<point x="420" y="382.5" type="line"/>
		</contour>
		<contour>
			<point name=".hr01" x="390" y="860" type="line"/>
			<point x="390" y="790" type="line"/>
			<point x="120" y="790" type="line"/>
			<point x="120" y="860" type="line"/>
		</contour>
	</outline>
</glyph>
<glyph name="Ebreve" format="2">
	<unicode hex="0114"/>
	<advance width="510"/>
	<outline>
		<contour>
			<point x="420" y="313.75" type="line"/>
			<point x="162.5" y="313.75" type="line"/>
			<point x="162.5" y="68.75" type="line"/>
			<point x="460" y="68.75" type="line"/>
			<point x="460" y="0" type="line"/>
			<point x="81.25" y="0" type="line"/>
			<point x="81.25" y="680" type="line"/>
			<point x="460" y="680" type="line"/>
			<point x="460" y="611.25" type="line"/>
			<point x="162.5" y="611.25" type="line"/>
			<point x="162.5" y="382.5" type="line"/>
			<point x="420" y="382.5" type="line"/>
		</contour>
		<contour>
			<point name=".hr01" x="100" y="880" type="curve"/>
			<point x="180" y="880" type="line"/>
			<point x="180" y="820"/>
			<point x="220" y="800"/>
			<point x="255" y="800" type="curve" smooth="yes"/>
			<point x="290" y="800"/>
			<point x="330" y="820"/>
			<point x="330" y="880" type="curve"/>
			<point x="410" y="880" type="line"/>
			<point x="410" y="780"/>
			<point x="335" y="740"/>
			<point x="255" y="740" type="curve" smooth="yes"/>
			<point x="175" y="740"/>
			<point x="100" y="780"/>
		</contour>
	</outline>
</glyph>
<glyph name="Edotaccent" format="2">
	<unicode hex="0116"/>
	<advance width="510"/>
	<outline>
		<contour>
			<point x="420" y="313.75" type="line"/>
			<point x="162.5" y="313.75" type="line"/>
			<point x="162.5" y="68.75" type="line"/>
			<point x="460" y="68.75" type="line"/>
			<point x="460" y="0" type="line"/>
			<point x="81.25" y="0" type="line"/>
			<point x="81.25" y="680" type="line"/>
			<point x="460" y="680" type="line"/>
			<point x="460" y="611.25" type="line"/>
			<point x="162.5" y="611.25" type="line"/>
			<point x="162.5" y="382.5" type="line"/>
			<point x="420" y="382.5" type="line"/>
		</contour>
		<contour>
			<point x="295" y="842.5" type="line"/>
			<point x="295" y="740" type="line"/>
			<point x="215" y="740" type="line"/>
			<point x="215" y="842.5" type="line"/>
		</contour>
	</outline>
</glyph>
<glyph name="edotaccent" format="2">
	<unicode hex="0117"/>
	<advance width="518"/>
	<outline>
		<contour>
			<point x="139" y="278" type="curve"/>
			<point x="379" y="278" type="line"/>
			<point x="379" y="278"/>
			<point x="371" y="402"/>
			<point x="259" y="402" type="curve" smooth="yes"/>
			<point x="147" y="402"/>
			<point x="139" y="278"/>
		</contour>
		<contour>
			<point x="50" y="240" type="curve" smooth="yes"/>
			<point x="50" y="360"/>
			<point x="119" y="470"/>
			<point x="259" y="470" type="curve" smooth="yes"/>
			<point x="399" y="470"/>
			<point x="468" y="360"/>
			<point x="468" y="240" type="curve" smooth="yes"/>
			<point x="468" y="210" type="line"/>
			<point x="134" y="210" type="line"/>
			<point x="134" y="140"/>
			<point x="179" y="58"/>
			<point x="259" y="58" type="curve" smooth="yes"/>
			<point x="329" y="58"/>
			<point x="365" y="98"/>
			<point x="375" y="142" type="curve"/>
			<point x="458" y="142" type="line"/>
			<point x="443" y="73"/>
			<point x="409" y="-10"/>
			<point x="259" y="-10" type="curve" smooth="yes"/>
			<point x="109" y="-10"/>
			<point x="50" y="120"/>
		</contour>
		<contour>
			<point x="318.75" y="662.5" type="line"/>
			<point x="318.75" y="560" type="line"/>
			<point x="238.75" y="560" type="line"/>
			<point x="238.75" y="662.5" type="line"/>
		</contour>
	</outline>
</glyph>
<glyph name="Ecaron" format="2">
	<unicode hex="011A"/>
	<advance width="510"/>
	<outline>
		<contour>
			<point x="420" y="313.75" type="line"/>
			<point x="162.5" y="313.75" type="line"/>
			<point x="162.5" y="68.75" type="line"/>
			<point x="460" y="68.75" type="line"/>
			<point x="460" y="0" type="line"/>
			<point x="81.25" y="0" type="line"/>
			<point x="81.25" y="680" type="line"/>
			<point x="460" y="680" type="line"/>
			<point x="460" y="611.25" type="line"/>
			<point x="162.5" y="611.25" type="line"/>
			<point x="162.5" y="382.5" type="line"/>
			<point x="420" y="382.5" type="line"/>
		</contour>
		<contour>
			<point x="295" y="740" type="line"/>
			<point x="215" y="740" type="line"/>
			<point x="115" y="900" type="line"/>
			<point x="179" y="900" type="line"/>
			<point x="255" y="815" type="line"/>
			<point x="331" y="900" type="line"/>
			<point x="395" y="900" type="line"/>
		</contour>
	</outline>
</glyph>
<glyph name="Gcircumflex" format="2">
	<unicode hex="011C"/>
	<advance width="685"/>
	<outline>
		<contour>
			<point x="354.25" y="617.5" type="curve" smooth="yes"/>
			<point x="223.375" y="617.5"/>
			<point x="142.5" y="510.625"/>
			<point x="142.5" y="340" type="curve" smooth="yes"/>
			<point x="142.5" y="169.375"/>
			<point x="223.375" y="62.5"/>
			<point x="354.25" y="62.5" type="curve" smooth="yes"/>
			<point x="432" y="62.5"/>
			<point x="506.375" y="110.125"/>
			<point x="543.25" y="173.875" type="curve"/>
			<point x="543.25" y="261.25" type="line"/>
			<point x="372.625" y="261.25" type="line"/>
			<point x="372.625" y="318.75" type="line"/>
			<point x="613.25" y="318.75" type="line"/>
			<point x="613.25" y="0" type="line"/>
			<point x="543.25" y="0" type="line"/>
			<point x="543.25" y="79.25" type="line"/>
			<point x="505.125" y="29"/>
			<point x="425.625" y="-10"/>
			<point x="354.25" y="-10" type="curve" smooth="yes"/>
			<point x="171.75" y="-10"/>
			<point x="61.25" y="122.125"/>
			<point x="61.25" y="340" type="curve" smooth="yes"/>
			<point x="61.25" y="557.875"/>
			<point x="171.75" y="690"/>
			<point x="354.25" y="690" type="curve" smooth="yes"/>
			<point x="495.25" y="690"/>
			<point x="593.375" y="601.5"/>
			<point x="621.25" y="450.25" type="curve"/>
			<point x="548.75" y="450.25" type="line"/>
			<point x="525.25" y="556.375"/>
			<point x="453.625" y="617.5"/>
		</contour>
		<contour>
			<point x="343.75" y="858.75" type="line"/>
			<point x="240.25" y="740" type="line"/>
			<point x="192.5" y="740" type="line"/>
			<point x="305" y="907.5" type="line"/>
			<point x="382.5" y="907.5" type="line"/>
			<point x="495" y="740" type="line"/>
			<point x="447.25" y="740" type="line"/>
		</contour>
	</outline>
</glyph>
<glyph name="gcircumflex" format="2">
	<unicode hex="011D"/>
	<advance width="492"/>
	<outline>
		<contour>
			<point x="115" y="230" type="curve" smooth="yes"/>
			<point x="115" y="159"/>
			<point x="141" y="65"/>
			<point x="246" y="65" type="curve" smooth="yes"/>
			<point x="331" y="65"/>
			<point x="367" y="143"/>
			<point x="367" y="210" type="curve" smooth="yes"/>
			<point x="367" y="245" type="line" smooth="yes"/>
			<point x="367" y="347"/>
			<point x="311" y="405"/>
			<point x="246" y="405" type="curve" smooth="yes"/>
			<point x="156" y="405"/>
			<point x="115" y="337"/>
		</contour>
		<contour>
			<point x="35" y="230" type="curve" smooth="yes"/>
			<point x="35" y="355"/>
			<point x="96" y="470"/>
			<point x="226" y="470" type="curve" smooth="yes"/>
			<point x="284" y="470"/>
			<point x="344" y="439"/>
			<point x="367" y="388" type="curve"/>
			<point x="387" y="459" type="line"/>
			<point x="447" y="459" type="line"/>
			<point x="447" y="27" type="line" smooth="yes"/>
			<point x="447" y="-146"/>
			<point x="362" y="-200"/>
			<point x="244" y="-200" type="curve" smooth="yes"/>
			<point x="114" y="-200"/>
			<point x="62" y="-106"/>
			<point x="52" y="-54" type="curve"/>
			<point x="135" y="-54" type="line"/>
			<point x="153" y="-113"/>
			<point x="206" y="-134"/>
			<point x="244" y="-134" type="curve" smooth="yes"/>
			<point x="316" y="-134"/>
			<point x="367" y="-91"/>
			<point x="367" y="27" type="curve" smooth="yes"/>
			<point x="367" y="89" type="line"/>
			<point x="339" y="33"/>
			<point x="286" y="-1"/>
			<point x="227" y="-1" type="curve" smooth="yes"/>
			<point x="56" y="-1"/>
			<point x="35" y="144"/>
		</contour>
		<contour>
			<point x="241" y="638.75" type="line"/>
			<point x="137.5" y="520" type="line"/>
			<point x="89.75" y="520" type="line"/>
			<point x="202.25" y="687.5" type="line"/>
			<point x="279.75" y="687.5" type="line"/>
			<point x="392.25" y="520" type="line"/>
			<point x="344.5" y="520" type="line"/>
		</contour>
	</outline>
</glyph>
<glyph name="Gbreve" format="2">
	<unicode hex="011E"/>
	<advance width="685"/>
	<outline>
		<contour>
			<point x="354.25" y="617.5" type="curve" smooth="yes"/>
			<point x="223.375" y="617.5"/>
			<point x="142.5" y="510.625"/>
			<point x="142.5" y="340" type="curve" smooth="yes"/>
			<point x="142.5" y="169.375"/>
			<point x="223.375" y="62.5"/>
			<point x="354.25" y="62.5" type="curve" smooth="yes"/>
			<point x="432" y="62.5"/>
			<point x="506.375" y="110.125"/>
			<point x="543.25" y="173.875" type="curve"/>
			<point x="543.25" y="261.25" type="line"/>
			<point x="372.625" y="261.25" type="line"/>
			<point x="372.625" y="318.75" type="line"/>
			<point x="613.25" y="318.75" type="line"/>
			<point x="613.25" y="0" type="line"/>
			<point x="543.25" y="0" type="line"/>
			<point x="543.25" y="79.25" type="line"/>
			<point x="505.125" y="29"/>
			<point x="425.625" y="-10"/>
			<point x="354.25" y="-10" type="curve" smooth="yes"/>
			<point x="171.75" y="-10"/>
			<point x="61.25" y="122.125"/>
			<point x="61.25" y="340" type="curve" smooth="yes"/>
			<point x="61.25" y="557.875"/>
			<point x="171.75" y="690"/>
			<point x="354.25" y="690" type="curve" smooth="yes"/>
			<point x="495.25" y="690"/>
			<point x="593.375" y="601.5"/>
			<point x="621.25" y="450.25" type="curve"/>
			<point x="548.75" y="450.25" type="line"/>
			<point x="525.25" y="556.375"/>
			<point x="453.625" y="617.5"/>
		</contour>
		<contour>
			<point x="188.75" y="880" type="curve"/>
			<point x="268.75" y="880" type="line"/>
			<point x="268.75" y="820"/>
			<point x="308.75" y="800"/>
			<point x="343.75" y="800" type="curve" smooth="yes"/>
			<point x="378.75" y="800"/>
			<point x="418.75" y="820"/>
			<point x="418.75" y="880" type="curve"/>
			<point x="498.75" y="880" type="line"/>
			<point x="498.75" y="780"/>
			<point x="423.75" y="740"/>
			<point x="343.75" y="740" type="curve" smooth="yes"/>
			<point x="263.75" y="740"/>
			<point x="188.75" y="780"/>
		</contour>
	</outline>
</glyph>
<glyph name="Gdotaccent" format="2">
	<unicode hex="0120"/>
	<advance width="685"/>
	<outline>
		<contour>
			<point x="354.25" y="617.5" type="curve" smooth="yes"/>
			<point x="223.375" y="617.5"/>
			<point x="142.5" y="510.625"/>
			<point x="142.5" y="340" type="curve" smooth="yes"/>
			<point x="142.5" y="169.375"/>
			<point x="223.375" y="62.5"/>
			<point x="354.25" y="62.5" type="curve" smooth="yes"/>
			<point x="432" y="62.5"/>
			<point x="506.375" y="110.125"/>
			<point x="543.25" y="173.875" type="curve"/>
			<point x="543.25" y="261.25" type="line"/>
			<point x="372.625" y="261.25" type="line"/>
			<point x="372.625" y="318.75" type="line"/>
			<point x="613.25" y="318.75" type="line"/>
			<point x="613.25" y="0" type="line"/>
			<point x="543.25" y="0" type="line"/>
			<point x="543.25" y="79.25" type="line"/>
			<point x="505.125" y="29"/>
			<point x="425.625" y="-10"/>
			<point x="354.25" y="-10" type="curve" smooth="yes"/>
			<point x="171.75" y="-10"/>
			<point x="61.25" y="122.125"/>
			<point x="61.25" y="340" type="curve" smooth="yes"/>
			<point x="61.25" y="557.875"/>
			<point x="171.75" y="690"/>
			<point x="354.25" y="690" type="curve" smooth="yes"/>
			<point x="495.25" y="690"/>
			<point x="593.375" y="601.5"/>
			<point x="621.25" y="450.25" type="curve"/>
			<point x="548.75" y="450.25" type="line"/>
			<point x="525.25" y="556.375"/>
			<point x="453.625" y="617.5"/>
		</contour>
		<contour>
			<point x="383.75" y="842.5" type="line"/>
			<point x="383.75" y="740" type="line"/>
			<point x="303.75" y="740" type="line"/>
			<point x="303.75" y="842.5" type="line"/>
		</contour>
	</outline>
</glyph>
<glyph name="uni0122" format="2">
	<unicode hex="0122"/>
	<advance width="685"/>
	<outline>
		<contour>
			<point x="354.25" y="617.5" type="curve" smooth="yes"/>
			<point x="223.375" y="617.5"/>
			<point x="142.5" y="510.625"/>
			<point x="142.5" y="340" type="curve" smooth="yes"/>
			<point x="142.5" y="169.375"/>
			<point x="223.375" y="62.5"/>
			<point x="354.25" y="62.5" type="curve" smooth="yes"/>
			<point x="432" y="62.5"/>
			<point x="506.375" y="110.125"/>
			<point x="543.25" y="173.875" type="curve"/>
			<point x="543.25" y="261.25" type="line"/>
			<point x="372.625" y="261.25" type="line"/>
			<point x="372.625" y="318.75" type="line"/>
			<point x="613.25" y="318.75" type="line"/>
			<point x="613.25" y="0" type="line"/>
			<point x="543.25" y="0" type="line"/>
			<point x="543.25" y="79.25" type="line"/>
			<point x="505.125" y="29"/>
			<point x="425.625" y="-10"/>
			<point x="354.25" y="-10" type="curve" smooth="yes"/>
			<point x="171.75" y="-10"/>
			<point x="61.25" y="122.125"/>
			<point x="61.25" y="340" type="curve" smooth="yes"/>
			<point x="61.25" y="557.875"/>
			<point x="171.75" y="690"/>
			<point x="354.25" y="690" type="curve" smooth="yes"/>
			<point x="495.25" y="690"/>
			<point x="593.375" y="601.5"/>
			<point x="621.25" y="450.25" type="curve"/>
			<point x="548.75" y="450.25" type="line"/>
			<point x="525.25" y="556.375"/>
			<point x="453.625" y="617.5"/>
		</contour>
		<contour>
			<point x="324.75" y="-140" type="line"/>
			<point x="302.75" y="-140" type="line"/>
			<point x="302.75" y="-60" type="line"/>
			<point x="382.75" y="-60" type="line"/>
			<point x="382.75" y="-140" type="line"/>
			<point x="336.75" y="-270" type="line"/>
			<point x="302.75" y="-270" type="line"/>
		</contour>
	</outline>
</glyph>
<glyph name="Hcircumflex" format="2">
	<unicode hex="0124"/>
	<advance width="624"/>
	<outline>
		<contour>
			<point x="542.5" y="680" type="line"/>
			<point x="542.5" y="0" type="line"/>
			<point x="461.25" y="0" type="line"/>
			<point x="461.25" y="307" type="line"/>
			<point x="162.5" y="307" type="line"/>
			<point x="162.5" y="0" type="line"/>
			<point x="81.25" y="0" type="line"/>
			<point x="81.25" y="680" type="line"/>
			<point x="162.5" y="680" type="line"/>
			<point x="162.5" y="379.5" type="line"/>
			<point x="461.25" y="379.5" type="line"/>
			<point x="461.25" y="680" type="line"/>
		</contour>
		<contour>
			<point x="311.875" y="878.75" type="line"/>
			<point x="208.375" y="760" type="line"/>
			<point x="160.625" y="760" type="line"/>
			<point x="273.125" y="927.5" type="line"/>
			<point x="350.625" y="927.5" type="line"/>
			<point x="463.125" y="760" type="line"/>
			<point x="415.375" y="760" type="line"/>
		</contour>
	</outline>
</glyph>
<glyph name="Itilde" format="2">
	<unicode hex="0128"/>
	<advance width="244"/>
	<outline>
		<contour>
			<point x="162.5" y="0" type="line"/>
			<point x="81.25" y="0" type="line"/>
			<point x="81.25" y="680" type="line"/>
			<point x="162.5" y="680" type="line"/>
		</contour>
		<contour>
			<point x="18.875" y="760" type="curve"/>
			<point x="-31.125" y="760" type="line"/>
			<point x="-17.125" y="847"/>
			<point name=".hr01" x="18.875" y="880"/>
			<point x="58.875" y="880" type="curve" smooth="yes"/>
			<point x="83.875" y="880"/>
			<point x="105.875" y="870"/>
			<point x="127.875" y="859" type="curve"/>
			<point x="143.875" y="850"/>
			<point name=".hr02" x="164.875" y="840"/>
			<point x="184.875" y="840" type="curve" smooth="yes"/>
			<point x="204.875" y="840"/>
			<point x="219.875" y="852"/>
			<point name=".hr03" x="224.875" y="880" type="curve"/>
			<point x="274.875" y="880" type="line"/>
			<point x="260.875" y="793"/>
			<point name=".hr04" x="224.875" y="760"/>
			<point x="184.875" y="760" type="curve" smooth="yes"/>
			<point x="159.875" y="760"/>
			<point x="138.875" y="769"/>
			<point x="117.875" y="780" type="curve" smooth="yes"/>
			<point x="100.875" y="789"/>
			<point name=".hr05" x="78.875" y="800"/>
			<point x="58.875" y="800" type="curve" smooth="yes"/>
			<point x="38.875" y="800"/>
			<point x="23.875" y="788"/>
		</contour>
	</outline>
</glyph>
<glyph name="itilde" format="2">
	<unicode hex="0129"/>
	<advance width="280"/>
	<outline>
		<contour>
			<point x="37" y="540" type="curve"/>
			<point x="-13" y="540" type="line"/>
			<point x="1" y="627"/>
			<point name=".hr01" x="37" y="660"/>
			<point x="77" y="660" type="curve" smooth="yes"/>
			<point x="102" y="660"/>
			<point x="124" y="650"/>
			<point x="146" y="639" type="curve"/>
			<point x="162" y="630"/>
			<point name=".hr02" x="183" y="620"/>
			<point x="203" y="620" type="curve" smooth="yes"/>
			<point x="223" y="620"/>
			<point x="238" y="632"/>
			<point name=".hr03" x="243" y="660" type="curve"/>
			<point x="293" y="660" type="line"/>
			<point x="279" y="573"/>
			<point name=".hr04" x="243" y="540"/>
			<point x="203" y="540" type="curve" smooth="yes"/>
			<point x="178" y="540"/>
			<point x="157" y="549"/>
			<point x="136" y="560" type="curve" smooth="yes"/>
			<point x="119" y="569"/>
			<point name=".hr05" x="97" y="580"/>
			<point x="77" y="580" type="curve" smooth="yes"/>
			<point x="57" y="580"/>
			<point x="42" y="568"/>
		</contour>
		<contour>
			<point name=".hr06" x="180" y="0" type="line"/>
			<point x="100" y="0" type="line"/>
			<point x="100" y="460" type="line"/>
			<point x="180" y="460" type="line"/>
		</contour>
	</outline>
</glyph>
<glyph name="Ibreve" format="2">
	<unicode hex="012C"/>
	<advance width="244"/>
	<outline>
		<contour>
			<point x="162.5" y="0" type="line"/>
			<point x="81.25" y="0" type="line"/>
			<point x="81.25" y="680" type="line"/>
			<point x="162.5" y="680" type="line"/>
		</contour>
		<contour>
			<point x="-33.125" y="880" type="curve"/>
			<point x="46.875" y="880" type="line"/>
			<point x="46.875" y="820"/>
			<point x="86.875" y="800"/>
			<point x="121.875" y="800" type="curve" smooth="yes"/>
			<point x="156.875" y="800"/>
			<point x="196.875" y="820"/>
			<point x="196.875" y="880" type="curve"/>
			<point x="276.875" y="880" type="line"/>
			<point x="276.875" y="780"/>
			<point x="201.875" y="740"/>
			<point x="121.875" y="740" type="curve" smooth="yes"/>
			<point x="41.875" y="740"/>
			<point x="-33.125" y="780"/>
		</contour>
	</outline>
</glyph>
<glyph name="ibreve" format="2">
	<unicode hex="012D"/>
	<advance width="280"/>
	<outline>
		<contour>
			<point x="-15" y="660" type="curve"/>
			<point x="65" y="660" type="line"/>
			<point x="65" y="600"/>
			<point x="105" y="580"/>
			<point x="140" y="580" type="curve" smooth="yes"/>
			<point x="175" y="580"/>
			<point x="215" y="600"/>
			<point x="215" y="660" type="curve"/>
			<point x="295" y="660" type="line"/>
			<point x="295" y="560"/>
			<point x="220" y="520"/>
			<point x="140" y="520" type="curve" smooth="yes"/>
			<point x="60" y="520"/>
			<point x="-15" y="560"/>
		</contour>
		<contour>
			<point x="180" y="0" type="line"/>
			<point x="100" y="0" type="line"/>
			<point x="100" y="460" type="line"/>
			<point x="180" y="460" type="line"/>
		</contour>
	</outline>
</glyph>
<glyph name="Iogonek" format="2">
	<unicode hex="012E"/>
	<advance width="244"/>
	<outline>
		<contour>
			<point x="42.75" y="-135.875" type="curve" smooth="yes"/>
			<point x="42.75" y="-86.25"/>
			<point x="68.5" y="-44.375"/>
			<point x="110.625" y="0" type="curve"/>
			<point name=".hr01" x="81.25" y="0" type="line"/>
			<point x="81.25" y="680" type="line"/>
			<point x="162.5" y="680" type="line"/>
			<point x="162.5" y="0" type="line"/>
			<point x="168.125" y="0" type="line"/>
			<point x="122.125" y="-48.5"/>
			<point name=".hr02" x="108.125" y="-78.75"/>
			<point x="108.125" y="-113.375" type="curve" smooth="yes"/>
			<point x="108.125" y="-141.625"/>
			<point x="123" y="-156.25"/>
			<point x="151.375" y="-156.25" type="curve" smooth="yes"/>
			<point x="165" y="-156.25"/>
			<point x="178.75" y="-149"/>
			<point x="188.375" y="-140.125" type="curve"/>
			<point x="200.625" y="-186.375" type="line"/>
			<point x="180.625" y="-201.625"/>
			<point x="155.125" y="-210"/>
			<point x="124.125" y="-210" type="curve" smooth="yes"/>
			<point x="72.375" y="-210"/>
			<point x="42.75" y="-183.125"/>
		</contour>
	</outline>
</glyph>
<glyph name="Idotaccent" format="2">
	<unicode hex="0130"/>
	<advance width="244"/>
	<outline>
		<contour>
			<point x="162.5" y="0" type="line"/>
			<point x="81.25" y="0" type="line"/>
			<point x="81.25" y="680" type="line"/>
			<point x="162.5" y="680" type="line"/>
		</contour>
		<contour>
			<point x="161.875" y="740" type="line"/>
			<point x="81.875" y="740" type="line"/>
			<point x="81.875" y="842.5" type="line"/>
			<point x="161.875" y="842.5" type="line"/>
		</contour>
	</outline>
</glyph>
<glyph name="dotlessi" format="2">
	<unicode hex="0131"/>
	<advance width="265"/>
	<outline>
		<contour>
			<point x="172.5" y="0" type="line"/>
			<point x="92.5" y="0" type="line"/>
			<point x="92.5" y="460" type="line"/>
			<point x="172.5" y="460" type="line"/>
		</contour>
	</outline>
	<anchor name="top" x="132.5" y="520"/>
</glyph>
<glyph name="Jcircumflex" format="2">
	<unicode hex="0134"/>
	<advance width="286"/>
	<outline>
		<contour>
			<point x="92.75" y="0" type="curve" smooth="yes"/>
			<point x="50" y="0" type="line"/>
			<point x="50" y="72.5" type="line"/>
			<point x="76" y="72.5" type="line" smooth="yes"/>
			<point x="116" y="72.5"/>
			<point x="148" y="119.75"/>
			<point x="148" y="183.75" type="curve" smooth="yes"/>
			<point x="148" y="680" type="line"/>
			<point x="229.25" y="680" type="line"/>
			<point x="229.25" y="194" type="line" smooth="yes"/>
			<point x="229.25" y="78.75"/>
			<point x="191" y="0"/>
		</contour>
		<contour>
			<point x="193" y="868.75" type="line"/>
			<point x="89.5" y="750" type="line"/>
			<point x="41.75" y="750" type="line"/>
			<point x="154.25" y="917.5" type="line"/>
			<point x="231.75" y="917.5" type="line"/>
			<point x="344.25" y="750" type="line"/>
			<point x="296.5" y="750" type="line"/>
		</contour>
	</outline>
</glyph>
<glyph name="jcircumflex" format="2">
	<unicode hex="0135"/>
	<advance width="220"/>
	<outline>
		<contour>
			<point x="-103" y="-90" type="curve"/>
			<point x="-24" y="-90" type="line"/>
			<point x="-8" y="-114"/>
			<point x="7" y="-120"/>
			<point x="30" y="-120" type="curve" smooth="yes"/>
			<point x="55" y="-120"/>
			<point x="70" y="-103"/>
			<point x="70" y="-55" type="curve" smooth="yes"/>
			<point x="70" y="460" type="line"/>
			<point x="150" y="460" type="line"/>
			<point x="150" y="-31" type="line" smooth="yes"/>
			<point x="150" y="-139"/>
			<point x="93" y="-200"/>
			<point x="28" y="-200" type="curve" smooth="yes"/>
			<point x="-36" y="-200"/>
			<point x="-87" y="-149"/>
		</contour>
		<contour>
			<point x="110" y="638.75" type="line"/>
			<point x="6.5" y="520" type="line"/>
			<point x="-41.25" y="520" type="line"/>
			<point x="71.25" y="687.5" type="line"/>
			<point x="148.75" y="687.5" type="line"/>
			<point x="261.25" y="520" type="line"/>
			<point x="213.5" y="520" type="line"/>
		</contour>
	</outline>
</glyph>
<glyph name="Lacute" format="2">
	<unicode hex="0139"/>
	<advance width="541"/>
	<outline>
		<contour>
			<point x="162.5" y="680" type="line"/>
			<point x="162.5" y="72.5" type="line"/>
			<point x="469.375" y="72.5" type="line"/>
			<point x="469.375" y="0" type="line"/>
			<point x="81.25" y="0" type="line"/>
			<point x="81.25" y="680" type="line"/>
		</contour>
		<contour>
			<point x="231.375" y="901.25" type="line"/>
			<point x="162.875" y="710" type="line"/>
			<point x="86.625" y="710" type="line"/>
			<point x="144.125" y="901.25" type="line"/>
		</contour>
	</outline>
</glyph>
<glyph name="uni0145" format="2">
	<unicode hex="0145"/>
	<advance width="600"/>
	<outline>
		<contour>
			<point x="53.75" y="482.5" type="curve" smooth="yes"/>
			<point x="53.75" y="0" type="line"/>
			<point x="-27.5" y="0" type="line"/>
			<point x="-27.5" y="680" type="line"/>
			<point x="62.5" y="680" type="line"/>
			<point x="385.125" y="132.625" type="line"/>
			<point x="382.75" y="157.375"/>
			<point x="382.75" y="180.125"/>
			<point x="382.75" y="197.5" type="curve" smooth="yes"/>
			<point x="382.75" y="680" type="line"/>
			<point x="464" y="680" type="line"/>
			<point x="464" y="0" type="line"/>
			<point x="374" y="0" type="line"/>
			<point x="51.375" y="547.375" type="line"/>
			<point x="53.75" y="522.625"/>
			<point x="53.75" y="499.875"/>
		</contour>
		<contour>
			<point x="282" y="-140" type="line"/>
			<point x="260" y="-140" type="line"/>
			<point x="260" y="-60" type="line"/>
			<point x="340" y="-60" type="line"/>
			<point x="340" y="-140" type="line"/>
			<point x="294" y="-270" type="line"/>
			<point x="260" y="-270" type="line"/>
		</contour>
	</outline>
</glyph>
<glyph name="Omacron" format="2">
	<unicode hex="014C"/>
	<advance width="709"/>
	<outline>
		<contour>
			<point x="354.25" y="617.5" type="curve" smooth="yes"/>
			<point x="223.375" y="617.5"/>
			<point x="142.5" y="510.625"/>
			<point x="142.5" y="340" type="curve" smooth="yes"/>
			<point x="142.5" y="169.375"/>
			<point x="223.375" y="62.5"/>
			<point x="354.25" y="62.5" type="curve" smooth="yes"/>
			<point x="485.125" y="62.5"/>
			<point x="566" y="169.375"/>
			<point x="566" y="340" type="curve" smooth="yes"/>
			<point x="566" y="510.625"/>
			<point x="485.125" y="617.5"/>
		</contour>
		<contour>
			<point x="354.25" y="-10" type="curve" smooth="yes"/>
			<point x="171.75" y="-10"/>
			<point x="61.25" y="122.125"/>
			<point x="61.25" y="340" type="curve" smooth="yes"/>
			<point x="61.25" y="557.875"/>
			<point x="171.75" y="690"/>
			<point x="354.25" y="690" type="curve" smooth="yes"/>
			<point x="536.75" y="690"/>
			<point x="647.25" y="557.875"/>
			<point x="647.25" y="340" type="curve" smooth="yes"/>
			<point x="647.25" y="122.125"/>
			<point x="536.75" y="-10"/>
		</contour>
		<contour>
			<point x="490" y="860" type="line"/>
			<point x="490" y="790" type="line"/>
			<point x="220" y="790" type="line"/>
			<point x="220" y="860" type="line"/>
		</contour>
	</outline>
</glyph>
<glyph name="Obreve" format="2">
	<unicode hex="014E"/>
	<advance width="709"/>
	<outline>
		<contour>
			<point x="354.25" y="617.5" type="curve" smooth="yes"/>
			<point x="223.375" y="617.5"/>
			<point x="142.5" y="510.625"/>
			<point x="142.5" y="340" type="curve" smooth="yes"/>
			<point x="142.5" y="169.375"/>
			<point x="223.375" y="62.5"/>
			<point x="354.25" y="62.5" type="curve" smooth="yes"/>
			<point x="485.125" y="62.5"/>
			<point x="566" y="169.375"/>
			<point x="566" y="340" type="curve" smooth="yes"/>
			<point x="566" y="510.625"/>
			<point x="485.125" y="617.5"/>
		</contour>
		<contour>
			<point x="354.25" y="-10" type="curve" smooth="yes"/>
			<point x="171.75" y="-10"/>
			<point x="61.25" y="122.125"/>
			<point x="61.25" y="340" type="curve" smooth="yes"/>
			<point x="61.25" y="557.875"/>
			<point x="171.75" y="690"/>
			<point x="354.25" y="690" type="curve" smooth="yes"/>
			<point x="536.75" y="690"/>
			<point x="647.25" y="557.875"/>
			<point x="647.25" y="340" type="curve" smooth="yes"/>
			<point x="647.25" y="122.125"/>
			<point x="536.75" y="-10"/>
		</contour>
		<contour>
			<point x="200" y="880" type="curve"/>
			<point x="280" y="880" type="line"/>
			<point x="280" y="820"/>
			<point x="320" y="800"/>
			<point x="355" y="800" type="curve" smooth="yes"/>
			<point x="390" y="800"/>
			<point x="430" y="820"/>
			<point x="430" y="880" type="curve"/>
			<point x="510" y="880" type="line"/>
			<point x="510" y="780"/>
			<point x="435" y="740"/>
			<point x="355" y="740" type="curve" smooth="yes"/>
			<point x="275" y="740"/>
			<point x="200" y="780"/>
		</contour>
	</outline>
</glyph>
<glyph name="Ohungarumlaut" format="2">
	<unicode hex="0150"/>
	<advance width="709"/>
	<outline>
		<contour>
			<point x="354.25" y="617.5" type="curve" smooth="yes"/>
			<point x="223.375" y="617.5"/>
			<point x="142.5" y="510.625"/>
			<point x="142.5" y="340" type="curve" smooth="yes"/>
			<point x="142.5" y="169.375"/>
			<point x="223.375" y="62.5"/>
			<point x="354.25" y="62.5" type="curve" smooth="yes"/>
			<point x="485.125" y="62.5"/>
			<point x="566" y="169.375"/>
			<point x="566" y="340" type="curve" smooth="yes"/>
			<point x="566" y="510.625"/>
			<point x="485.125" y="617.5"/>
		</contour>
		<contour>
			<point x="354.25" y="-10" type="curve" smooth="yes"/>
			<point x="171.75" y="-10"/>
			<point x="61.25" y="122.125"/>
			<point x="61.25" y="340" type="curve" smooth="yes"/>
			<point x="61.25" y="557.875"/>
			<point x="171.75" y="690"/>
			<point x="354.25" y="690" type="curve" smooth="yes"/>
			<point x="536.75" y="690"/>
			<point x="647.25" y="557.875"/>
			<point x="647.25" y="340" type="curve" smooth="yes"/>
			<point x="647.25" y="122.125"/>
			<point x="536.75" y="-10"/>
		</contour>
		<contour>
			<point x="362.25" y="910" type="line"/>
			<point x="301.25" y="730" type="line"/>
			<point x="237.25" y="730" type="line"/>
			<point x="282.25" y="910" type="line"/>
		</contour>
		<contour>
			<point x="472.25" y="910" type="line"/>
			<point x="396.25" y="730" type="line"/>
			<point x="332.25" y="730" type="line"/>
			<point x="392.25" y="910" type="line"/>
		</contour>
	</outline>
</glyph>
<glyph name="Sacute" format="2">
	<unicode hex="015A"/>
	<advance width="582"/>
	<outline>
		<contour>
			<point x="322" y="750" type="line"/>
			<point x="258" y="750" type="line"/>
			<point x="308" y="910" type="line"/>
			<point x="388" y="910" type="line"/>
		</contour>
		<contour>
			<point x="43.5" y="204.25" type="curve"/>
			<point x="128.5" y="204.25" type="line"/>
			<point x="128.5" y="119.875"/>
			<point x="192.125" y="62.5"/>
			<point x="294.125" y="62.5" type="curve" smooth="yes"/>
			<point x="393.5" y="62.5"/>
			<point x="454.5" y="111.25"/>
			<point x="454.5" y="183.375" type="curve" smooth="yes"/>
			<point x="454.5" y="238.25"/>
			<point x="422.375" y="274.875"/>
			<point x="357.875" y="295" type="curve"/>
			<point x="172.75" y="366.125" type="line"/>
			<point x="105.625" y="390.5"/>
			<point name=".hr01" x="62.125" y="445"/>
			<point x="62.125" y="515.125" type="curve" smooth="yes"/>
			<point x="62.125" y="621.375"/>
			<point x="148.125" y="690"/>
			<point x="289.625" y="690" type="curve" smooth="yes"/>
			<point x="434.25" y="690"/>
			<point x="537.5" y="603.75"/>
			<point x="537.5" y="493.5" type="curve"/>
			<point x="452.5" y="493.5" type="line"/>
			<point x="452.5" y="565.375"/>
			<point x="386.375" y="617.5"/>
			<point x="276.875" y="617.5" type="curve" smooth="yes"/>
			<point x="195.875" y="617.5"/>
			<point x="147.125" y="580.125"/>
			<point x="147.125" y="515.5" type="curve" smooth="yes"/>
			<point x="147.125" y="467.125"/>
			<point x="177.875" y="429.375"/>
			<point x="233.375" y="411.25" type="curve"/>
			<point x="418.375" y="342.5" type="line" smooth="yes"/>
			<point x="499.125" y="313.375"/>
			<point x="539.5" y="262.125"/>
			<point x="539.5" y="180.375" type="curve" smooth="yes"/>
			<point x="539.5" y="62.75"/>
			<point x="450.25" y="-10"/>
			<point x="293.375" y="-10" type="curve" smooth="yes"/>
			<point x="141.625" y="-10"/>
			<point name=".hr02" x="43.5" y="76"/>
		</contour>
	</outline>
</glyph>
<glyph name="Scircumflex" format="2">
	<unicode hex="015C"/>
	<advance width="582"/>
	<outline>
		<contour>
			<point x="43.5" y="204.25" type="curve"/>
			<point x="128.5" y="204.25" type="line"/>
			<point x="128.5" y="119.875"/>
			<point x="192.125" y="62.5"/>
			<point x="294.125" y="62.5" type="curve" smooth="yes"/>
			<point x="393.5" y="62.5"/>
			<point x="454.5" y="111.25"/>
			<point x="454.5" y="183.375" type="curve" smooth="yes"/>
			<point x="454.5" y="238.25"/>
			<point x="422.375" y="274.875"/>
			<point x="357.875" y="295" type="curve"/>
			<point x="172.75" y="366.125" type="line"/>
			<point x="105.625" y="390.5"/>
			<point name=".hr01" x="62.125" y="445"/>
			<point x="62.125" y="515.125" type="curve" smooth="yes"/>
			<point x="62.125" y="621.375"/>
			<point x="148.125" y="690"/>
			<point x="289.625" y="690" type="curve" smooth="yes"/>
			<point x="434.25" y="690"/>
			<point x="537.5" y="603.75"/>
			<point x="537.5" y="493.5" type="curve"/>
			<point x="452.5" y="493.5" type="line"/>
			<point x="452.5" y="565.375"/>
			<point x="386.375" y="617.5"/>
			<point x="276.875" y="617.5" type="curve" smooth="yes"/>
			<point x="195.875" y="617.5"/>
			<point x="147.125" y="580.125"/>
			<point x="147.125" y="515.5" type="curve" smooth="yes"/>
			<point x="147.125" y="467.125"/>
			<point x="177.875" y="429.375"/>
			<point x="233.375" y="411.25" type="curve"/>
			<point x="418.375" y="342.5" type="line" smooth="yes"/>
			<point x="499.125" y="313.375"/>
			<point x="539.5" y="262.125"/>
			<point x="539.5" y="180.375" type="curve" smooth="yes"/>
			<point x="539.5" y="62.75"/>
			<point x="450.25" y="-10"/>
			<point x="293.375" y="-10" type="curve" smooth="yes"/>
			<point x="141.625" y="-10"/>
			<point name=".hr02" x="43.5" y="76"/>
		</contour>
		<contour>
			<point x="290" y="868.75" type="line"/>
			<point x="186.5" y="750" type="line"/>
			<point x="138.75" y="750" type="line"/>
			<point x="251.25" y="917.5" type="line"/>
			<point x="328.75" y="917.5" type="line"/>
			<point x="441.25" y="750" type="line"/>
			<point x="393.5" y="750" type="line"/>
		</contour>
	</outline>
</glyph>
<glyph name="Scaron" format="2">
	<unicode hex="0160"/>
	<advance width="582"/>
	<outline>
		<contour>
			<point x="43.5" y="204.25" type="curve"/>
			<point x="128.5" y="204.25" type="line"/>
			<point x="128.5" y="119.875"/>
			<point x="192.125" y="62.5"/>
			<point x="294.125" y="62.5" type="curve" smooth="yes"/>
			<point x="393.5" y="62.5"/>
			<point x="454.5" y="111.25"/>
			<point x="454.5" y="183.375" type="curve" smooth="yes"/>
			<point x="454.5" y="238.25"/>
			<point x="422.375" y="274.875"/>
			<point x="357.875" y="295" type="curve"/>
			<point x="172.75" y="366.125" type="line"/>
			<point x="105.625" y="390.5"/>
			<point name=".hr01" x="62.125" y="445"/>
			<point x="62.125" y="515.125" type="curve" smooth="yes"/>
			<point x="62.125" y="621.375"/>
			<point x="148.125" y="690"/>
			<point x="289.625" y="690" type="curve" smooth="yes"/>
			<point x="434.25" y="690"/>
			<point x="537.5" y="603.75"/>
			<point x="537.5" y="493.5" type="curve"/>
			<point x="452.5" y="493.5" type="line"/>
			<point x="452.5" y="565.375"/>
			<point x="386.375" y="617.5"/>
			<point x="276.875" y="617.5" type="curve" smooth="yes"/>
			<point x="195.875" y="617.5"/>
			<point x="147.125" y="580.125"/>
			<point x="147.125" y="515.5" type="curve" smooth="yes"/>
			<point x="147.125" y="467.125"/>
			<point x="177.875" y="429.375"/>
			<point x="233.375" y="411.25" type="curve"/>
			<point x="418.375" y="342.5" type="line" smooth="yes"/>
			<point x="499.125" y="313.375"/>
			<point x="539.5" y="262.125"/>
			<point x="539.5" y="180.375" type="curve" smooth="yes"/>
			<point x="539.5" y="62.75"/>
			<point x="450.25" y="-10"/>
			<point x="293.375" y="-10" type="curve" smooth="yes"/>
			<point x="141.625" y="-10"/>
			<point name=".hr02" x="43.5" y="76"/>
		</contour>
		<contour>
			<point x="330" y="750" type="line"/>
			<point x="250" y="750" type="line"/>
			<point x="150" y="910" type="line"/>
			<point x="214" y="910" type="line"/>
			<point x="290" y="825" type="line"/>
			<point x="366" y="910" type="line"/>
			<point x="430" y="910" type="line"/>
		</contour>
	</outline>
</glyph>
<glyph name="uni0162" format="2">
	<unicode hex="0162"/>
	<advance width="480"/>
	<outline>
		<contour>
			<point x="280.625" y="607.5" type="line"/>
			<point x="280.625" y="0" type="line"/>
			<point x="199.375" y="0" type="line"/>
			<point x="199.375" y="607.5" type="line"/>
			<point x="10" y="607.5" type="line"/>
			<point x="10" y="680" type="line"/>
			<point x="470" y="680" type="line"/>
			<point x="470" y="607.5" type="line"/>
		</contour>
		<contour>
			<point x="222" y="-140" type="line"/>
			<point x="200" y="-140" type="line"/>
			<point x="200" y="-60" type="line"/>
			<point x="280" y="-60" type="line"/>
			<point x="280" y="-140" type="line"/>
			<point x="234" y="-270" type="line"/>
			<point x="200" y="-270" type="line"/>
		</contour>
	</outline>
</glyph>
<glyph name="Tcaron" format="2">
	<unicode hex="0164"/>
	<advance width="480"/>
	<outline>
		<contour>
			<point x="280.625" y="607.5" type="line"/>
			<point x="280.625" y="0" type="line"/>
			<point x="199.375" y="0" type="line"/>
			<point x="199.375" y="607.5" type="line"/>
			<point x="10" y="607.5" type="line"/>
			<point x="10" y="680" type="line"/>
			<point x="470" y="680" type="line"/>
			<point x="470" y="607.5" type="line"/>
		</contour>
		<contour>
			<point x="280" y="740" type="line"/>
			<point x="200" y="740" type="line"/>
			<point x="100" y="900" type="line"/>
			<point x="164" y="900" type="line"/>
			<point x="240" y="815" type="line"/>
			<point x="316" y="900" type="line"/>
			<point x="380" y="900" type="line"/>
		</contour>
	</outline>
</glyph>
<glyph name="tcaron" format="2">
	<unicode hex="0165"/>
	<advance width="511"/>
	<outline>
		<contour>
			<point x="105" y="400" type="line"/>
			<point x="30" y="400" type="line"/>
			<point x="30" y="440" type="line"/>
			<point x="105" y="460" type="line"/>
			<point x="105" y="480" type="line"/>
			<point x="125" y="610" type="line"/>
			<point x="185" y="610" type="line"/>
			<point x="185" y="460" type="line"/>
			<point x="269" y="460" type="line"/>
			<point x="269" y="400" type="line"/>
			<point x="185" y="400" type="line"/>
			<point x="185" y="181" type="line" smooth="yes"/>
			<point x="185" y="83"/>
			<point x="197" y="56"/>
			<point x="266" y="56" type="curve" smooth="yes"/>
			<point x="300" y="56" type="line"/>
			<point x="300" y="-9" type="line"/>
			<point x="267" y="-9" type="line"/>
			<point x="117" y="0"/>
			<point x="105" y="44"/>
			<point x="105" y="180" type="curve" smooth="yes"/>
		</contour>
		<contour>
			<point x="415" y="490" type="line"/>
			<point x="381" y="490" type="line"/>
			<point x="403" y="620" type="line"/>
			<point x="381" y="620" type="line"/>
			<point x="381" y="700" type="line"/>
			<point x="461" y="700" type="line"/>
			<point x="461" y="620" type="line"/>
		</contour>
	</outline>
</glyph>
<glyph name="Utilde" format="2">
	<unicode hex="0168"/>
	<advance width="590"/>
	<outline>
		<contour>
			<point x="50" y="245" type="curve" smooth="yes"/>
			<point x="50" y="680" type="line"/>
			<point x="130" y="680" type="line"/>
			<point x="130" y="272.5" type="line" smooth="yes"/>
			<point x="130" y="129.125"/>
			<point x="187.5" y="66.25"/>
			<point x="295" y="66.25" type="curve" smooth="yes"/>
			<point x="402.5" y="66.25"/>
			<point x="460" y="129.125"/>
			<point x="460" y="272.5" type="curve" smooth="yes"/>
			<point x="460" y="680" type="line"/>
			<point x="540" y="680" type="line"/>
			<point x="540" y="245" type="line" smooth="yes"/>
			<point x="540" y="76"/>
			<point x="452.5" y="-10"/>
			<point x="295" y="-10" type="curve" smooth="yes"/>
			<point x="137.5" y="-10"/>
			<point x="50" y="76"/>
		</contour>
		<contour>
			<point x="192" y="760" type="curve"/>
			<point x="142" y="760" type="line"/>
			<point x="156" y="847"/>
			<point x="192" y="880"/>
			<point name=".hr01" x="232" y="880" type="curve" smooth="yes"/>
			<point x="257" y="880"/>
			<point x="279" y="870"/>
			<point x="301" y="859" type="curve"/>
			<point x="317" y="850"/>
			<point x="338" y="840"/>
			<point name=".hr02" x="358" y="840" type="curve" smooth="yes"/>
			<point x="378" y="840"/>
			<point x="393" y="852"/>
			<point x="398" y="880" type="curve"/>
			<point name=".hr03" x="448" y="880" type="line"/>
			<point x="434" y="793"/>
			<point x="398" y="760"/>
			<point name=".hr04" x="358" y="760" type="curve" smooth="yes"/>
			<point x="333" y="760"/>
			<point x="312" y="769"/>
			<point x="291" y="780" type="curve" smooth="yes"/>
			<point x="274" y="789"/>
			<point x="252" y="800"/>
			<point name=".hr05" x="232" y="800" type="curve" smooth="yes"/>
			<point x="212" y="800"/>
			<point x="197" y="788"/>
		</contour>
	</outline>
</glyph>
<glyph name="Umacron" format="2">
	<unicode hex="016A"/>
	<advance width="560"/>
	<outline>
		<contour>
			<point x="415" y="750" type="line"/>
			<point x="145" y="750" type="line"/>
			<point x="145" y="820" type="line"/>
			<point x="415" y="820" type="line"/>
		</contour>
		<contour>
			<point x="35" y="245" type="curve" smooth="yes"/>
			<point x="35" y="680" type="line"/>
			<point x="115" y="680" type="line"/>
			<point x="115" y="272.5" type="line" smooth="yes"/>
			<point x="115" y="129.125"/>
			<point x="172.5" y="66.25"/>
			<point x="280" y="66.25" type="curve" smooth="yes"/>
			<point x="387.5" y="66.25"/>
			<point x="445" y="129.125"/>
			<point x="445" y="272.5" type="curve" smooth="yes"/>
			<point x="445" y="680" type="line"/>
			<point x="525" y="680" type="line"/>
			<point x="525" y="245" type="line" smooth="yes"/>
			<point x="525" y="76"/>
			<point x="437.5" y="-10"/>
			<point x="280" y="-10" type="curve" smooth="yes"/>
			<point x="122.5" y="-10"/>
			<point x="35" y="76"/>
		</contour>
	</outline>
</glyph>
<glyph name="Ubreve" format="2">
	<unicode hex="016C"/>
	<advance width="560"/>
	<outline>
		<contour>
			<point x="125" y="890" type="curve"/>
			<point x="205" y="890" type="line"/>
			<point x="205" y="830"/>
			<point x="245" y="810"/>
			<point x="280" y="810" type="curve" smooth="yes"/>
			<point x="315" y="810"/>
			<point x="355" y="830"/>
			<point x="355" y="890" type="curve"/>
			<point x="435" y="890" type="line"/>
			<point x="435" y="790"/>
			<point x="360" y="750"/>
			<point x="280" y="750" type="curve" smooth="yes"/>
			<point x="200" y="750"/>
			<point x="125" y="790"/>
		</contour>
		<contour>
			<point x="35" y="245" type="curve" smooth="yes"/>
			<point x="35" y="680" type="line"/>
			<point x="115" y="680" type="line"/>
			<point x="115" y="272.5" type="line" smooth="yes"/>
			<point x="115" y="129.125"/>
			<point x="172.5" y="66.25"/>
			<point x="280" y="66.25" type="curve" smooth="yes"/>
			<point x="387.5" y="66.25"/>
			<point x="445" y="129.125"/>
			<point x="445" y="272.5" type="curve" smooth="yes"/>
			<point x="445" y="680" type="line"/>
			<point x="525" y="680" type="line"/>
			<point x="525" y="245" type="line" smooth="yes"/>
			<point x="525" y="76"/>
			<point x="437.5" y="-10"/>
			<point x="280" y="-10" type="curve" smooth="yes"/>
			<point x="122.5" y="-10"/>
			<point x="35" y="76"/>
		</contour>
	</outline>
</glyph>
<glyph name="Uring" format="2">
	<unicode hex="016E"/>
	<advance width="560"/>
	<outline>
		<contour>
			<point x="240" y="819" type="curve" smooth="yes"/>
			<point x="240" y="802"/>
			<point x="254" y="788"/>
			<point x="271" y="788" type="curve" smooth="yes"/>
			<point x="288" y="788"/>
			<point x="302" y="802"/>
			<point x="302" y="819" type="curve" smooth="yes"/>
			<point x="302" y="836"/>
			<point x="288" y="850"/>
			<point x="271" y="850" type="curve" smooth="yes"/>
			<point x="254" y="850"/>
			<point x="240" y="836"/>
		</contour>
		<contour>
			<point x="35" y="245" type="curve" smooth="yes"/>
			<point x="35" y="680" type="line"/>
			<point x="115" y="680" type="line"/>
			<point x="115" y="272.5" type="line" smooth="yes"/>
			<point x="115" y="129.125"/>
			<point x="172.5" y="66.25"/>
			<point x="280" y="66.25" type="curve" smooth="yes"/>
			<point x="387.5" y="66.25"/>
			<point x="445" y="129.125"/>
			<point x="445" y="272.5" type="curve" smooth="yes"/>
			<point x="445" y="680" type="line"/>
			<point x="525" y="680" type="line"/>
			<point x="525" y="245" type="line" smooth="yes"/>
			<point x="525" y="76"/>
			<point x="437.5" y="-10"/>
			<point x="280" y="-10" type="curve" smooth="yes"/>
			<point x="122.5" y="-10"/>
			<point x="35" y="76"/>
		</contour>
		<contour>
			<point x="193" y="819" type="curve" smooth="yes"/>
			<point x="193" y="862"/>
			<point x="228" y="897"/>
			<point x="271" y="897" type="curve" smooth="yes"/>
			<point x="314" y="897"/>
			<point x="349" y="862"/>
			<point x="349" y="819" type="curve" smooth="yes"/>
			<point x="349" y="776"/>
			<point x="314" y="741"/>
			<point x="271" y="741" type="curve" smooth="yes"/>
			<point x="228" y="741"/>
			<point x="193" y="776"/>
		</contour>
	</outline>
</glyph>
<glyph name="Uhungarumlaut" format="2">
	<unicode hex="0170"/>
	<advance width="590"/>
	<outline>
		<contour>
			<point x="50" y="245" type="curve" smooth="yes"/>
			<point x="50" y="680" type="line"/>
			<point x="130" y="680" type="line"/>
			<point x="130" y="272.5" type="line" smooth="yes"/>
			<point x="130" y="129.125"/>
			<point x="187.5" y="66.25"/>
			<point x="295" y="66.25" type="curve" smooth="yes"/>
			<point x="402.5" y="66.25"/>
			<point x="460" y="129.125"/>
			<point x="460" y="272.5" type="curve" smooth="yes"/>
			<point x="460" y="680" type="line"/>
			<point x="540" y="680" type="line"/>
			<point x="540" y="245" type="line" smooth="yes"/>
			<point x="540" y="76"/>
			<point x="452.5" y="-10"/>
			<point x="295" y="-10" type="curve" smooth="yes"/>
			<point x="137.5" y="-10"/>
			<point x="50" y="76"/>
		</contour>
		<contour>
			<point x="337" y="730" type="line"/>
			<point x="273" y="730" type="line"/>
			<point x="333" y="910" type="line"/>
			<point x="413" y="910" type="line"/>
		</contour>
		<contour>
			<point x="242" y="730" type="line"/>
			<point x="178" y="730" type="line"/>
			<point x="223" y="910" type="line"/>
			<point x="303" y="910" type="line"/>
		</contour>
	</outline>
</glyph>
<glyph name="uni01C5" format="2">
	<unicode hex="01C5"/>
	<advance width="1110"/>
	<outline>
		<contour>
			<point x="328" y="620" type="curve" smooth="yes"/>
			<point x="140" y="620" type="line"/>
			<point x="140" y="80" type="line"/>
			<point x="328" y="80" type="line" smooth="yes"/>
			<point x="478" y="80"/>
			<point x="520" y="241"/>
			<point x="520" y="350" type="curve" smooth="yes"/>
			<point x="520" y="498"/>
			<point x="477" y="620"/>
		</contour>
		<contour>
			<point x="328" y="0" type="curve" smooth="yes"/>
			<point x="50" y="0" type="line"/>
			<point x="50" y="700" type="line"/>
			<point x="328" y="700" type="line" smooth="yes"/>
			<point x="518" y="700"/>
			<point x="610" y="550"/>
			<point x="610" y="350" type="curve" smooth="yes"/>
			<point x="610" y="147"/>
			<point x="519" y="0"/>
		</contour>
		<contour>
			<point x="1070" y="65" type="line"/>
			<point x="1070" y="0" type="line"/>
			<point name=".hr01" x="700" y="0" type="line"/>
			<point x="700" y="65" type="line"/>
			<point x="970" y="395" type="line"/>
			<point x="700" y="395" type="line"/>
			<point x="700" y="460" type="line"/>
			<point x="1070" y="460" type="line"/>
			<point x="1070" y="395" type="line"/>
			<point x="810" y="65" type="line"/>
		</contour>
		<contour>
			<point x="930" y="530" type="line"/>
			<point x="850" y="530" type="line"/>
			<point x="730" y="710" type="line"/>
			<point x="794" y="710" type="line"/>
			<point x="890" y="583" type="line"/>
			<point x="986" y="710" type="line"/>
			<point x="1050" y="710" type="line"/>
		</contour>
	</outline>
</glyph>
<glyph name="uni01C8" format="2">
	<unicode hex="01C8"/>
	<advance width="790"/>
	<outline>
		<contour>
			<point x="720" y="560" type="line"/>
			<point x="640" y="560" type="line"/>
			<point x="640" y="640" type="line"/>
			<point x="720" y="640" type="line"/>
		</contour>
		<contour>
			<point x="492" y="-100" type="curve"/>
			<point x="557" y="-100" type="line"/>
			<point x="560" y="-132"/>
			<point x="581" y="-140"/>
			<point x="596" y="-140" type="curve" smooth="yes"/>
			<point x="620" y="-140"/>
			<point x="640" y="-136"/>
			<point x="640" y="-80" type="curve" smooth="yes"/>
			<point x="640" y="460" type="line"/>
			<point x="720" y="460" type="line"/>
			<point x="720" y="-60" type="line" smooth="yes"/>
			<point x="720" y="-181"/>
			<point x="664" y="-200"/>
			<point x="600" y="-200" type="curve" smooth="yes"/>
			<point x="544" y="-200"/>
			<point x="496" y="-162"/>
		</contour>
		<contour>
			<point x="122" y="680" type="line"/>
			<point x="122" y="20" type="line"/>
			<point x="451" y="20" type="line"/>
			<point x="451" y="0" type="line"/>
			<point x="100" y="0" type="line"/>
			<point x="100" y="680" type="line"/>
		</contour>
	</outline>
</glyph>
<glyph name="uni01C9" format="2">
	<unicode hex="01C9"/>
	<advance width="450"/>
	<outline>
		<contour>
			<point x="380" y="560" type="line"/>
			<point x="300" y="560" type="line"/>
			<point x="300" y="640" type="line"/>
			<point x="380" y="640" type="line"/>
		</contour>
		<contour>
			<point x="152" y="-100" type="curve"/>
			<point x="217" y="-100" type="line"/>
			<point x="220" y="-132"/>
			<point x="241" y="-140"/>
			<point x="256" y="-140" type="curve" smooth="yes"/>
			<point x="280" y="-140"/>
			<point x="300" y="-136"/>
			<point x="300" y="-80" type="curve" smooth="yes"/>
			<point x="300" y="460" type="line"/>
			<point x="380" y="460" type="line"/>
			<point x="380" y="-60" type="line" smooth="yes"/>
			<point x="380" y="-181"/>
			<point x="324" y="-200"/>
			<point x="260" y="-200" type="curve" smooth="yes"/>
			<point x="204" y="-200"/>
			<point x="156" y="-162"/>
		</contour>
		<contour>
			<point x="150" y="0" type="line"/>
			<point x="70" y="0" type="line"/>
			<point x="70" y="700" type="line"/>
			<point x="150" y="700" type="line"/>
		</contour>
	</outline>
</glyph>
<glyph name="uni01CA" format="2">
	<unicode hex="01CA"/>
	<advance width="886"/>
	<outline>
		<contour>
			<point x="53.75" y="482.5" type="curve" smooth="yes"/>
			<point x="53.75" y="0" type="line"/>
			<point x="-27.5" y="0" type="line"/>
			<point x="-27.5" y="680" type="line"/>
			<point x="62.5" y="680" type="line"/>
			<point x="385.125" y="132.625" type="line"/>
			<point x="382.75" y="157.375"/>
			<point x="382.75" y="180.125"/>
			<point x="382.75" y="197.5" type="curve" smooth="yes"/>
			<point x="382.75" y="680" type="line"/>
			<point x="464" y="680" type="line"/>
			<point x="464" y="0" type="line"/>
			<point x="374" y="0" type="line"/>
			<point x="51.375" y="547.375" type="line"/>
			<point x="53.75" y="522.625"/>
			<point x="53.75" y="499.875"/>
		</contour>
		<contour>
			<point x="692.75" y="0" type="curve" smooth="yes"/>
			<point x="650" y="0" type="line"/>
			<point x="650" y="72.5" type="line"/>
			<point x="676" y="72.5" type="line" smooth="yes"/>
			<point x="716" y="72.5"/>
			<point x="748" y="119.75"/>
			<point x="748" y="183.75" type="curve" smooth="yes"/>
			<point x="748" y="680" type="line"/>
			<point x="829.25" y="680" type="line"/>
			<point x="829.25" y="194" type="line" smooth="yes"/>
			<point x="829.25" y="78.75"/>
			<point x="791" y="0"/>
		</contour>
	</outline>
</glyph>
<glyph name="uni01CB" format="2">
	<unicode hex="01CB"/>
	<advance width="830"/>
	<outline>
		<contour>
			<point x="532" y="-100" type="curve"/>
			<point x="597" y="-100" type="line"/>
			<point x="600" y="-132"/>
			<point x="621" y="-140"/>
			<point x="636" y="-140" type="curve" smooth="yes"/>
			<point x="660" y="-140"/>
			<point x="680" y="-136"/>
			<point x="680" y="-80" type="curve" smooth="yes"/>
			<point x="680" y="460" type="line"/>
			<point x="760" y="460" type="line"/>
			<point x="760" y="-60" type="line" smooth="yes"/>
			<point x="760" y="-181"/>
			<point x="704" y="-200"/>
			<point x="640" y="-200" type="curve" smooth="yes"/>
			<point x="584" y="-200"/>
			<point x="536" y="-162"/>
		</contour>
		<contour>
			<point x="53.75" y="482.5" type="curve" smooth="yes"/>
			<point x="53.75" y="0" type="line"/>
			<point x="-27.5" y="0" type="line"/>
			<point x="-27.5" y="680" type="line"/>
			<point x="62.5" y="680" type="line"/>
			<point x="385.125" y="132.625" type="line"/>
			<point x="382.75" y="157.375"/>
			<point x="382.75" y="180.125"/>
			<point x="382.75" y="197.5" type="curve" smooth="yes"/>
			<point x="382.75" y="680" type="line"/>
			<point x="464" y="680" type="line"/>
			<point x="464" y="0" type="line"/>
			<point x="374" y="0" type="line"/>
			<point x="51.375" y="547.375" type="line"/>
			<point x="53.75" y="522.625"/>
			<point x="53.75" y="499.875"/>
		</contour>
		<contour>
			<point x="760" y="640" type="line"/>
			<point x="760" y="560" type="line"/>
			<point name=".hr01" x="680" y="560" type="line"/>
			<point x="680" y="640" type="line"/>
		</contour>
	</outline>
</glyph>
<glyph name="uni01CC" format="2">
	<unicode hex="01CC"/>
	<advance width="708"/>
	<outline>
		<contour>
			<point x="638" y="560" type="line"/>
			<point x="558" y="560" type="line"/>
			<point x="558" y="640" type="line"/>
			<point x="638" y="640" type="line"/>
		</contour>
		<contour>
			<point x="410" y="-100" type="curve"/>
			<point x="475" y="-100" type="line"/>
			<point x="478" y="-132"/>
			<point x="499" y="-140"/>
			<point x="514" y="-140" type="curve" smooth="yes"/>
			<point x="538" y="-140"/>
			<point x="558" y="-136"/>
			<point x="558" y="-80" type="curve" smooth="yes"/>
			<point x="558" y="460" type="line"/>
			<point x="638" y="460" type="line"/>
			<point x="638" y="-60" type="line" smooth="yes"/>
			<point x="638" y="-181"/>
			<point x="582" y="-200"/>
			<point x="518" y="-200" type="curve" smooth="yes"/>
			<point x="462" y="-200"/>
			<point x="414" y="-162"/>
		</contour>
		<contour>
			<point x="125" y="0" type="line"/>
			<point x="45" y="0" type="line"/>
			<point x="45" y="460" type="line"/>
			<point x="115" y="460" type="line"/>
			<point x="125" y="347.5" type="line"/>
		</contour>
	</outline>
</glyph>
<glyph name="uni01CF" format="2">
	<unicode hex="01CF"/>
	<advance width="244"/>
	<outline>
		<contour>
			<point x="162.5" y="680" type="line"/>
			<point x="162.5" y="0" type="line"/>
			<point x="81.25" y="0" type="line"/>
			<point x="81.25" y="680" type="line"/>
		</contour>
		<contour>
			<point x="161.875" y="740" type="line"/>
			<point x="81.875" y="740" type="line"/>
			<point x="-18.125" y="900" type="line"/>
			<point x="45.875" y="900" type="line"/>
			<point x="121.875" y="815" type="line"/>
			<point x="197.875" y="900" type="line"/>
			<point x="261.875" y="900" type="line"/>
		</contour>
	</outline>
</glyph>
<glyph name="uni01D1" format="2">
	<unicode hex="01D1"/>
	<advance width="709"/>
	<outline>
		<contour>
			<point x="354.25" y="617.5" type="curve" smooth="yes"/>
			<point x="223.375" y="617.5"/>
			<point x="142.5" y="510.625"/>
			<point x="142.5" y="340" type="curve" smooth="yes"/>
			<point x="142.5" y="169.375"/>
			<point x="223.375" y="62.5"/>
			<point x="354.25" y="62.5" type="curve" smooth="yes"/>
			<point x="485.125" y="62.5"/>
			<point x="566" y="169.375"/>
			<point x="566" y="340" type="curve" smooth="yes"/>
			<point x="566" y="510.625"/>
			<point x="485.125" y="617.5"/>
		</contour>
		<contour>
			<point x="354.25" y="-10" type="curve" smooth="yes"/>
			<point x="171.75" y="-10"/>
			<point x="61.25" y="122.125"/>
			<point x="61.25" y="340" type="curve" smooth="yes"/>
			<point x="61.25" y="557.875"/>
			<point x="171.75" y="690"/>
			<point x="354.25" y="690" type="curve" smooth="yes"/>
			<point x="536.75" y="690"/>
			<point x="647.25" y="557.875"/>
			<point x="647.25" y="340" type="curve" smooth="yes"/>
			<point x="647.25" y="122.125"/>
			<point x="536.75" y="-10"/>
		</contour>
		<contour>
			<point x="395" y="740" type="line"/>
			<point x="315" y="740" type="line"/>
			<point x="215" y="900" type="line"/>
			<point x="279" y="900" type="line"/>
			<point x="355" y="815" type="line"/>
			<point x="431" y="900" type="line"/>
			<point x="495" y="900" type="line"/>
		</contour>
	</outline>
</glyph>
<glyph name="uni01D3" format="2">
	<unicode hex="01D3"/>
	<advance width="560"/>
	<outline>
		<contour>
			<point x="35" y="245" type="curve" smooth="yes"/>
			<point x="35" y="680" type="line"/>
			<point x="115" y="680" type="line"/>
			<point x="115" y="272.5" type="line" smooth="yes"/>
			<point x="115" y="129.125"/>
			<point x="172.5" y="66.25"/>
			<point x="280" y="66.25" type="curve" smooth="yes"/>
			<point x="387.5" y="66.25"/>
			<point x="445" y="129.125"/>
			<point x="445" y="272.5" type="curve" smooth="yes"/>
			<point x="445" y="680" type="line"/>
			<point x="525" y="680" type="line"/>
			<point x="525" y="245" type="line" smooth="yes"/>
			<point x="525" y="76"/>
			<point x="437.5" y="-10"/>
			<point x="280" y="-10" type="curve" smooth="yes"/>
			<point x="122.5" y="-10"/>
			<point x="35" y="76"/>
		</contour>
		<contour>
			<point x="320" y="750" type="line"/>
			<point x="240" y="750" type="line"/>
			<point x="140" y="910" type="line"/>
			<point x="204" y="910" type="line"/>
			<point x="280" y="825" type="line"/>
			<point x="356" y="910" type="line"/>
			<point x="420" y="910" type="line"/>
		</contour>
	</outline>
</glyph>
<glyph name="uni01DE" format="2">
	<unicode hex="01DE"/>
	<advance width="544"/>
	<outline>
		<contour>
			<point x="365" y="279.375" type="line"/>
			<point x="271.875" y="571.625" type="line"/>
			<point x="178.75" y="279.375" type="line"/>
		</contour>
		<contour>
			<point x="452.5" y="0" type="line"/>
			<point x="389.375" y="199.375" type="line"/>
			<point x="154.375" y="199.375" type="line"/>
			<point x="91.25" y="0" type="line"/>
			<point x="10" y="0" type="line"/>
			<point x="224.875" y="680" type="line"/>
			<point x="318.125" y="680" type="line"/>
			<point x="533.75" y="0" type="line"/>
		</contour>
		<contour>
			<point x="341.25" y="860" type="line"/>
			<point x="371.25" y="816.25" type="line"/>
			<point x="324.375" y="838.75" type="line"/>
			<point x="391.875" y="807.5" type="line"/>
			<point x="379.375" y="740" type="line"/>
			<point x="311.875" y="771.25" type="line"/>
			<point x="261.875" y="790" type="line"/>
			<point x="231.875" y="758.75" type="line"/>
			<point x="219.375" y="740" type="line"/>
			<point x="151.875" y="771.25" type="line"/>
			<point x="105" y="838.75" type="line"/>
			<point x="172.5" y="882.5" type="line"/>
		</contour>
	</outline>
</glyph>
<glyph name="uni01E8" format="2">
	<unicode hex="01E8"/>
	<advance width="576"/>
	<outline>
		<contour>
			<point x="162.5" y="283.625" type="line"/>
			<point x="162.5" y="0" type="line"/>
			<point x="81.25" y="0" type="line"/>
			<point x="81.25" y="680" type="line"/>
			<point x="162.5" y="680" type="line"/>
			<point x="162.5" y="353.125" type="line"/>
			<point x="249.375" y="370.125" type="line"/>
			<point x="435" y="680" type="line"/>
			<point x="526.25" y="680" type="line"/>
			<point x="326.25" y="350" type="line"/>
			<point x="566.25" y="0" type="line"/>
			<point x="467.5" y="0" type="line"/>
			<point x="259.25" y="305.875" type="line"/>
		</contour>
		<contour>
			<point x="328.125" y="760" type="line"/>
			<point x="248.125" y="760" type="line"/>
			<point x="148.125" y="920" type="line"/>
			<point x="212.125" y="920" type="line"/>
			<point x="288.125" y="835" type="line"/>
			<point x="364.125" y="920" type="line"/>
			<point x="428.125" y="920" type="line"/>
		</contour>
	</outline>
</glyph>
<glyph name="uni01EC" format="2">
	<unicode hex="01EC"/>
	<advance width="660"/>
	<outline>
		<contour>
			<point x="140" y="350" type="curve" smooth="yes"/>
			<point x="140" y="200"/>
			<point x="187" y="70"/>
			<point x="328" y="70" type="curve" smooth="yes"/>
			<point x="477" y="70"/>
			<point x="520" y="236"/>
			<point x="520" y="350" type="curve" smooth="yes"/>
			<point x="520" y="503"/>
			<point x="477" y="630"/>
			<point x="328" y="630" type="curve" smooth="yes"/>
			<point x="189" y="630"/>
			<point x="140" y="502"/>
		</contour>
		<contour>
			<point x="50" y="350" type="curve" smooth="yes"/>
			<point x="50" y="560"/>
			<point x="146" y="710"/>
			<point x="328" y="710" type="curve" smooth="yes"/>
			<point x="519" y="710"/>
			<point x="610" y="555"/>
			<point x="610" y="350" type="curve" smooth="yes"/>
			<point x="610" y="141"/>
			<point x="521" y="-10"/>
			<point x="334" y="-10" type="curve" smooth="yes"/>
			<point x="141" y="-10"/>
			<point x="50" y="138"/>
		</contour>
		<contour>
			<point x="465" y="850" type="line"/>
			<point x="465" y="785" type="line"/>
			<point x="195" y="785" type="line"/>
			<point x="195" y="850" type="line"/>
		</contour>
		<contour>
			<point x="441" y="-124" type="curve" smooth="yes"/>
			<point x="441" y="-70"/>
			<point x="478" y="-25"/>
			<point x="512" y="0" type="curve"/>
			<point x="570" y="0" type="line"/>
			<point x="529" y="-31"/>
			<point x="502" y="-69"/>
			<point x="502" y="-108" type="curve" smooth="yes"/>
			<point x="502" y="-135"/>
			<point x="522" y="-154"/>
			<point x="548" y="-154" type="curve" smooth="yes"/>
			<point x="562" y="-154"/>
			<point x="577" y="-149"/>
			<point x="588" y="-141" type="curve"/>
			<point x="610" y="-182" type="line"/>
			<point x="597" y="-191" type="line"/>
			<point x="578" y="-202"/>
			<point x="551" y="-209"/>
			<point x="531" y="-209" type="curve" smooth="yes"/>
			<point x="481" y="-209"/>
			<point x="441" y="-180"/>
		</contour>
	</outline>
</glyph>
<glyph name="uni01F0" format="2">
	<unicode hex="01F0"/>
	<advance width="220"/>
	<outline>
		<contour>
			<point x="-103" y="-90" type="curve"/>
			<point x="-24" y="-90" type="line"/>
			<point x="-8" y="-114"/>
			<point x="7" y="-120"/>
			<point x="30" y="-120" type="curve" smooth="yes"/>
			<point x="55" y="-120"/>
			<point x="70" y="-103"/>
			<point x="70" y="-55" type="curve" smooth="yes"/>
			<point x="70" y="460" type="line"/>
			<point x="150" y="460" type="line"/>
			<point x="150" y="-31" type="line" smooth="yes"/>
			<point x="150" y="-139"/>
			<point x="93" y="-200"/>
			<point x="28" y="-200" type="curve" smooth="yes"/>
			<point x="-36" y="-200"/>
			<point x="-87" y="-149"/>
		</contour>
		<contour>
			<point x="150" y="520" type="line"/>
			<point x="70" y="520" type="line"/>
			<point x="-30" y="680" type="line"/>
			<point x="34" y="680" type="line"/>
			<point x="110" y="595" type="line"/>
			<point x="186" y="680" type="line"/>
			<point x="250" y="680" type="line"/>
		</contour>
	</outline>
</glyph>
<glyph name="uni01F2" format="2">
	<unicode hex="01F2"/>
	<advance width="1084"/>
	<outline>
		<contour>
			<point x="162.5" y="607.5" type="line"/>
			<point x="162.5" y="72.5" type="line"/>
			<point x="295.5" y="72.5" type="line" smooth="yes"/>
			<point x="425" y="72.5"/>
			<point x="491.875" y="185.5"/>
			<point x="491.875" y="340" type="curve" smooth="yes"/>
			<point x="491.875" y="508"/>
			<point x="427" y="607.5"/>
			<point x="295.5" y="607.5" type="curve" smooth="yes"/>
		</contour>
		<contour>
			<point x="81.25" y="680" type="line"/>
			<point x="295.5" y="680" type="line" smooth="yes"/>
			<point x="485.5" y="680"/>
			<point x="572.5" y="545.25"/>
			<point x="572.5" y="340" type="curve" smooth="yes"/>
			<point x="572.5" y="133.625"/>
			<point x="485.875" y="0"/>
			<point x="295.5" y="0" type="curve" smooth="yes"/>
			<point x="81.25" y="0" type="line"/>
		</contour>
		<contour>
			<point name=".hr01" x="1043.75" y="65" type="line"/>
			<point x="1043.75" y="0" type="line"/>
			<point x="673.75" y="0" type="line"/>
			<point x="673.75" y="65" type="line"/>
			<point x="943.75" y="395" type="line"/>
			<point x="673.75" y="395" type="line"/>
			<point x="673.75" y="460" type="line"/>
			<point x="1043.75" y="460" type="line"/>
			<point x="1043.75" y="395" type="line"/>
			<point x="783.75" y="65" type="line"/>
		</contour>
	</outline>
</glyph>
<glyph name="uni0202" format="2">
	<unicode hex="0202"/>
	<advance width="570"/>
	<outline>
		<contour>
			<point x="362.5" y="279.375" type="line"/>
			<point x="269.375" y="571.625" type="line"/>
			<point x="176.25" y="279.375" type="line"/>
		</contour>
		<contour>
			<point x="450" y="0" type="line"/>
			<point x="386.875" y="199.375" type="line"/>
			<point x="151.875" y="199.375" type="line"/>
			<point x="88.75" y="0" type="line"/>
			<point x="7.5" y="0" type="line"/>
			<point x="222.375" y="680" type="line"/>
			<point x="315.625" y="680" type="line"/>
			<point x="531.25" y="0" type="line"/>
		</contour>
		<contour>
			<point x="205" y="720" type="curve"/>
			<point x="125" y="720" type="line"/>
			<point x="125" y="820"/>
			<point x="200" y="860"/>
			<point x="280" y="860" type="curve" smooth="yes"/>
			<point x="360" y="860"/>
			<point x="435" y="820"/>
			<point x="435" y="720" type="curve"/>
			<point x="355" y="720" type="line"/>
			<point x="355" y="780"/>
			<point x="315" y="800"/>
			<point x="280" y="800" type="curve" smooth="yes"/>
			<point x="245" y="800"/>
			<point x="205" y="780"/>
		</contour>
	</outline>
</glyph>
<glyph name="uni0204" format="2">
	<unicode hex="0204"/>
	<advance width="510"/>
	<outline>
		<contour>
			<point x="420" y="313.75" type="line"/>
			<point x="162.5" y="313.75" type="line"/>
			<point x="162.5" y="68.75" type="line"/>
			<point x="460" y="68.75" type="line"/>
			<point x="460" y="0" type="line"/>
			<point x="81.25" y="0" type="line"/>
			<point x="81.25" y="680" type="line"/>
			<point x="460" y="680" type="line"/>
			<point x="460" y="611.25" type="line"/>
			<point x="162.5" y="611.25" type="line"/>
			<point x="162.5" y="382.5" type="line"/>
			<point x="420" y="382.5" type="line"/>
		</contour>
		<contour>
			<point x="278" y="730" type="line"/>
			<point x="214" y="730" type="line"/>
			<point x="138" y="910" type="line"/>
			<point x="218" y="910" type="line"/>
		</contour>
		<contour>
			<point x="373" y="730" type="line"/>
			<point x="309" y="730" type="line"/>
			<point x="248" y="910" type="line"/>
			<point x="328" y="910" type="line"/>
		</contour>
	</outline>
</glyph>
<glyph name="uni0208" format="2">
	<unicode hex="0208"/>
	<advance width="244"/>
	<outline>
		<contour>
			<point x="162.5" y="0" type="line"/>
			<point x="81.25" y="0" type="line"/>
			<point x="81.25" y="680" type="line"/>
			<point x="162.5" y="680" type="line"/>
		</contour>
		<contour>
			<point x="175.875" y="730" type="line"/>
			<point x="114.875" y="910" type="line"/>
			<point x="194.875" y="910" type="line"/>
			<point x="239.875" y="730" type="line"/>
		</contour>
		<contour>
			<point x="80.875" y="730" type="line"/>
			<point x="4.875" y="910" type="line"/>
			<point x="84.875" y="910" type="line"/>
			<point x="144.875" y="730" type="line"/>
		</contour>
	</outline>
</glyph>
<glyph name="uni020A" format="2">
	<unicode hex="020A"/>
	<advance width="244"/>
	<outline>
		<contour>
			<point x="162.5" y="0" type="line"/>
			<point x="81.25" y="0" type="line"/>
			<point x="81.25" y="680" type="line"/>
			<point x="162.5" y="680" type="line"/>
		</contour>
		<contour>
			<point x="46.875" y="740" type="curve"/>
			<point x="-33.125" y="740" type="line"/>
			<point x="-33.125" y="840"/>
			<point x="41.875" y="880"/>
			<point x="121.875" y="880" type="curve" smooth="yes"/>
			<point x="201.875" y="880"/>
			<point x="276.875" y="840"/>
			<point x="276.875" y="740" type="curve"/>
			<point x="196.875" y="740" type="line"/>
			<point x="196.875" y="800"/>
			<point x="156.875" y="820"/>
			<point x="121.875" y="820" type="curve" smooth="yes"/>
			<point x="86.875" y="820"/>
			<point x="46.875" y="800"/>
		</contour>
	</outline>
</glyph>
<glyph name="uni020C" format="2">
	<unicode hex="020C"/>
	<advance width="709"/>
	<outline>
		<contour>
			<point x="354.25" y="617.5" type="curve" smooth="yes"/>
			<point x="223.375" y="617.5"/>
			<point x="142.5" y="510.625"/>
			<point x="142.5" y="340" type="curve" smooth="yes"/>
			<point x="142.5" y="169.375"/>
			<point x="223.375" y="62.5"/>
			<point x="354.25" y="62.5" type="curve" smooth="yes"/>
			<point x="485.125" y="62.5"/>
			<point x="566" y="169.375"/>
			<point x="566" y="340" type="curve" smooth="yes"/>
			<point x="566" y="510.625"/>
			<point x="485.125" y="617.5"/>
		</contour>
		<contour>
			<point x="354.25" y="-10" type="curve" smooth="yes"/>
			<point x="171.75" y="-10"/>
			<point x="61.25" y="122.125"/>
			<point x="61.25" y="340" type="curve" smooth="yes"/>
			<point x="61.25" y="557.875"/>
			<point x="171.75" y="690"/>
			<point x="354.25" y="690" type="curve" smooth="yes"/>
			<point x="536.75" y="690"/>
			<point x="647.25" y="557.875"/>
			<point x="647.25" y="340" type="curve" smooth="yes"/>
			<point x="647.25" y="122.125"/>
			<point x="536.75" y="-10"/>
		</contour>
		<contour>
			<point x="377.25" y="730" type="line"/>
			<point x="313.25" y="730" type="line"/>
			<point x="237.25" y="910" type="line"/>
			<point x="317.25" y="910" type="line"/>
		</contour>
		<contour>
			<point x="472.25" y="730" type="line"/>
			<point x="408.25" y="730" type="line"/>
			<point x="347.25" y="910" type="line"/>
			<point x="427.25" y="910" type="line"/>
		</contour>
	</outline>
</glyph>
<glyph name="uni020E" format="2">
	<unicode hex="020E"/>
	<advance width="709"/>
	<outline>
		<contour>
			<point x="354.25" y="617.5" type="curve" smooth="yes"/>
			<point x="223.375" y="617.5"/>
			<point x="142.5" y="510.625"/>
			<point x="142.5" y="340" type="curve" smooth="yes"/>
			<point x="142.5" y="169.375"/>
			<point x="223.375" y="62.5"/>
			<point x="354.25" y="62.5" type="curve" smooth="yes"/>
			<point x="485.125" y="62.5"/>
			<point x="566" y="169.375"/>
			<point x="566" y="340" type="curve" smooth="yes"/>
			<point x="566" y="510.625"/>
			<point x="485.125" y="617.5"/>
		</contour>
		<contour>
			<point x="354.25" y="-10" type="curve" smooth="yes"/>
			<point x="171.75" y="-10"/>
			<point x="61.25" y="122.125"/>
			<point x="61.25" y="340" type="curve" smooth="yes"/>
			<point x="61.25" y="557.875"/>
			<point x="171.75" y="690"/>
			<point x="354.25" y="690" type="curve" smooth="yes"/>
			<point x="536.75" y="690"/>
			<point x="647.25" y="557.875"/>
			<point x="647.25" y="340" type="curve" smooth="yes"/>
			<point x="647.25" y="122.125"/>
			<point x="536.75" y="-10"/>
		</contour>
		<contour>
			<point x="280" y="740" type="curve"/>
			<point x="200" y="740" type="line"/>
			<point x="200" y="840"/>
			<point x="275" y="880"/>
			<point x="355" y="880" type="curve" smooth="yes"/>
			<point x="435" y="880"/>
			<point x="510" y="840"/>
			<point x="510" y="740" type="curve"/>
			<point x="430" y="740" type="line"/>
			<point x="430" y="800"/>
			<point x="390" y="820"/>
			<point x="355" y="820" type="curve" smooth="yes"/>
			<point x="320" y="820"/>
			<point x="280" y="800"/>
		</contour>
	</outline>
</glyph>
<glyph name="uni0214" format="2">
	<unicode hex="0214"/>
	<advance width="590"/>
	<outline>
		<contour>
			<point x="50" y="245" type="curve" smooth="yes"/>
			<point x="50" y="680" type="line"/>
			<point x="130" y="680" type="line"/>
			<point x="130" y="272.5" type="line" smooth="yes"/>
			<point x="130" y="129.125"/>
			<point x="187.5" y="66.25"/>
			<point x="295" y="66.25" type="curve" smooth="yes"/>
			<point x="402.5" y="66.25"/>
			<point x="460" y="129.125"/>
			<point x="460" y="272.5" type="curve" smooth="yes"/>
			<point x="460" y="680" type="line"/>
			<point x="540" y="680" type="line"/>
			<point x="540" y="245" type="line" smooth="yes"/>
			<point x="540" y="76"/>
			<point x="452.5" y="-10"/>
			<point x="295" y="-10" type="curve" smooth="yes"/>
			<point x="137.5" y="-10"/>
			<point x="50" y="76"/>
		</contour>
		<contour>
			<point x="349" y="730" type="line"/>
			<point x="288" y="910" type="line"/>
			<point x="368" y="910" type="line"/>
			<point x="413" y="730" type="line"/>
		</contour>
		<contour>
			<point x="254" y="730" type="line"/>
			<point x="178" y="910" type="line"/>
			<point x="258" y="910" type="line"/>
			<point x="318" y="730" type="line"/>
		</contour>
	</outline>
</glyph>
<glyph name="uni0216" format="2">
	<unicode hex="0216"/>
	<advance width="560"/>
	<outline>
		<contour>
			<point x="200" y="720" type="curve"/>
			<point x="120" y="720" type="line"/>
			<point x="120" y="820"/>
			<point x="195" y="860"/>
			<point x="275" y="860" type="curve" smooth="yes"/>
			<point x="355" y="860"/>
			<point x="430" y="820"/>
			<point x="430" y="720" type="curve"/>
			<point x="350" y="720" type="line"/>
			<point x="350" y="780"/>
			<point x="310" y="800"/>
			<point x="275" y="800" type="curve" smooth="yes"/>
			<point x="240" y="800"/>
			<point x="200" y="780"/>
		</contour>
		<contour>
			<point x="35" y="245" type="curve" smooth="yes"/>
			<point x="35" y="680" type="line"/>
			<point x="115" y="680" type="line"/>
			<point x="115" y="272.5" type="line" smooth="yes"/>
			<point x="115" y="129.125"/>
			<point x="172.5" y="66.25"/>
			<point x="280" y="66.25" type="curve" smooth="yes"/>
			<point x="387.5" y="66.25"/>
			<point x="445" y="129.125"/>
			<point x="445" y="272.5" type="curve" smooth="yes"/>
			<point x="445" y="680" type="line"/>
			<point x="525" y="680" type="line"/>
			<point x="525" y="245" type="line" smooth="yes"/>
			<point x="525" y="76"/>
			<point x="437.5" y="-10"/>
			<point x="280" y="-10" type="curve" smooth="yes"/>
			<point x="122.5" y="-10"/>
			<point x="35" y="76"/>
		</contour>
	</outline>
</glyph>
<glyph name="uni0218" format="2">
	<unicode hex="0218"/>
	<advance width="582"/>
	<outline>
		<contour>
			<point x="264" y="-151" type="line"/>
			<point x="264" y="-71" type="line"/>
			<point x="344" y="-71" type="line"/>
			<point x="344" y="-151" type="line"/>
			<point x="298" y="-281" type="line"/>
			<point x="264" y="-281" type="line"/>
			<point x="286" y="-151" type="line"/>
		</contour>
		<contour>
			<point x="43.5" y="204.25" type="curve"/>
			<point x="128.5" y="204.25" type="line"/>
			<point x="128.5" y="119.875"/>
			<point x="192.125" y="62.5"/>
			<point x="294.125" y="62.5" type="curve" smooth="yes"/>
			<point x="393.5" y="62.5"/>
			<point x="454.5" y="111.25"/>
			<point x="454.5" y="183.375" type="curve" smooth="yes"/>
			<point x="454.5" y="238.25"/>
			<point x="422.375" y="274.875"/>
			<point x="357.875" y="295" type="curve"/>
			<point x="172.75" y="366.125" type="line"/>
			<point x="105.625" y="390.5"/>
			<point name=".hr01" x="62.125" y="445"/>
			<point x="62.125" y="515.125" type="curve" smooth="yes"/>
			<point x="62.125" y="621.375"/>
			<point x="148.125" y="690"/>
			<point x="289.625" y="690" type="curve" smooth="yes"/>
			<point x="434.25" y="690"/>
			<point x="537.5" y="603.75"/>
			<point x="537.5" y="493.5" type="curve"/>
			<point x="452.5" y="493.5" type="line"/>
			<point x="452.5" y="565.375"/>
			<point x="386.375" y="617.5"/>
			<point x="276.875" y="617.5" type="curve" smooth="yes"/>
			<point x="195.875" y="617.5"/>
			<point x="147.125" y="580.125"/>
			<point x="147.125" y="515.5" type="curve" smooth="yes"/>
			<point x="147.125" y="467.125"/>
			<point x="177.875" y="429.375"/>
			<point x="233.375" y="411.25" type="curve"/>
			<point x="418.375" y="342.5" type="line" smooth="yes"/>
			<point x="499.125" y="313.375"/>
			<point x="539.5" y="262.125"/>
			<point x="539.5" y="180.375" type="curve" smooth="yes"/>
			<point x="539.5" y="62.75"/>
			<point x="450.25" y="-10"/>
			<point x="293.375" y="-10" type="curve" smooth="yes"/>
			<point x="141.625" y="-10"/>
			<point name=".hr02" x="43.5" y="76"/>
		</contour>
	</outline>
</glyph>
<glyph name="uni021B" format="2">
	<unicode hex="021B"/>
	<advance width="331"/>
	<outline>
		<contour>
			<point x="164" y="-70" type="curve"/>
			<point x="244" y="-70" type="line"/>
			<point x="244" y="-150" type="line"/>
			<point x="198" y="-280" type="line"/>
			<point x="164" y="-280" type="line"/>
			<point x="186" y="-150" type="line"/>
			<point x="164" y="-150" type="line"/>
			<point x="164" y="-123"/>
			<point x="164" y="-97"/>
		</contour>
		<contour>
			<point x="105" y="380" type="line"/>
			<point name=".hr01" x="30" y="380" type="line"/>
			<point x="30" y="460" type="line"/>
			<point x="105" y="460" type="line"/>
			<point x="105" y="580" type="line"/>
			<point x="185" y="580" type="line"/>
			<point x="185" y="460" type="line"/>
			<point x="269" y="460" type="line"/>
			<point x="269" y="380" type="line"/>
			<point x="241" y="380"/>
			<point x="213" y="380"/>
			<point x="185" y="380" type="curve"/>
			<point x="185" y="314"/>
			<point x="184" y="247"/>
			<point x="184" y="181" type="curve" smooth="yes"/>
			<point x="184" y="83"/>
			<point x="197" y="57"/>
			<point x="266" y="56" type="curve"/>
			<point x="300" y="56" type="line"/>
			<point x="300" y="-9" type="line"/>
			<point x="267" y="-9" type="line"/>
			<point x="117" y="0"/>
			<point x="105" y="44"/>
			<point x="105" y="180" type="curve" smooth="yes"/>
		</contour>
	</outline>
</glyph>
<glyph name="uni0226" format="2">
	<unicode hex="0226"/>
	<advance width="570"/>
	<outline>
		<contour>
			<point x="362.5" y="279.375" type="line"/>
			<point x="269.375" y="571.625" type="line"/>
			<point x="176.25" y="279.375" type="line"/>
		</contour>
		<contour>
			<point x="450" y="0" type="line"/>
			<point x="386.875" y="199.375" type="line"/>
			<point x="151.875" y="199.375" type="line"/>
			<point x="88.75" y="0" type="line"/>
			<point x="7.5" y="0" type="line"/>
			<point x="222.375" y="680" type="line"/>
			<point x="315.625" y="680" type="line"/>
			<point x="531.25" y="0" type="line"/>
		</contour>
		<contour>
			<point x="333.75" y="852.5" type="line"/>
			<point x="333.75" y="750" type="line"/>
			<point x="253.75" y="750" type="line"/>
			<point x="253.75" y="852.5" type="line"/>
		</contour>
	</outline>
</glyph>
<glyph name="circumflex" format="2">
	<unicode hex="02C6"/>
	<advance width="340"/>
	<outline>
		<contour>
			<point x="170" y="651.25" type="line"/>
			<point x="66.5" y="520" type="line"/>
			<point x="18.75" y="520" type="line"/>
			<point x="131.25" y="700" type="line"/>
			<point x="208.75" y="700" type="line"/>
			<point x="321.25" y="520" type="line"/>
			<point x="273.5" y="520" type="line"/>
		</contour>
	</outline>
</glyph>
<glyph name="ogonek" format="2">
	<unicode hex="02DB"/>
	<advance width="313"/>
	<outline>
		<contour>
			<point x="77.5" y="-135.875" type="curve" smooth="yes"/>
			<point x="77.5" y="-86.25"/>
			<point x="103.25" y="-44.375"/>
			<point x="145.375" y="0" type="curve"/>
			<point x="202.875" y="0" type="line"/>
			<point x="156.875" y="-48.5"/>
			<point x="142.875" y="-78.75"/>
			<point x="142.875" y="-113.375" type="curve" smooth="yes"/>
			<point x="142.875" y="-141.625"/>
			<point x="157.75" y="-156.25"/>
			<point x="186.125" y="-156.25" type="curve" smooth="yes"/>
			<point x="199.75" y="-156.25"/>
			<point x="213.5" y="-149"/>
			<point x="223.125" y="-140.125" type="curve"/>
			<point x="235.375" y="-186.375" type="line"/>
			<point x="215.375" y="-201.625"/>
			<point x="189.875" y="-210"/>
			<point x="158.875" y="-210" type="curve" smooth="yes"/>
			<point x="107.125" y="-210"/>
			<point x="77.5" y="-183.125"/>
		</contour>
	</outline>
</glyph>
<glyph name="gravecomb" format="2">
	<unicode hex="0300"/>
	<outline>
		<contour>
			<point x="-277.75" y="520" type="line"/>
			<point x="-356.5" y="695" type="line"/>
			<point x="-257.5" y="695" type="line"/>
			<point x="-207.5" y="520" type="line"/>
		</contour>
	</outline>
	<anchor name="top" x="-242.5" y="520"/>
</glyph>
<glyph name="acutecomb" format="2">
	<unicode hex="0301"/>
	<outline>
		<contour>
			<point x="-168.5" y="520" type="line"/>
			<point x="-238.75" y="520" type="line"/>
			<point x="-188.75" y="707.5" type="line"/>
			<point x="-89.75" y="707.5" type="line"/>
		</contour>
	</outline>
	<anchor name="top" x="-205.125" y="520"/>
</glyph>
<glyph name="uni0307" format="2">
	<unicode hex="0307"/>
	<outline>
		<contour>
			<point x="-68.75" y="520" type="line"/>
			<point x="-148.75" y="520" type="line"/>
			<point x="-148.75" y="622.5" type="line"/>
			<point x="-68.75" y="622.5" type="line"/>
		</contour>
	</outline>
</glyph>
<glyph name="uni0308" format="2">
	<unicode hex="0308"/>
	<outline>
		<contour>
			<point x="-276.125" y="520" type="line"/>
			<point x="-352.375" y="520" type="line"/>
			<point x="-352.375" y="633.75" type="line"/>
			<point x="-276.125" y="633.75" type="line"/>
		</contour>
		<contour>
			<point x="-86.875" y="520" type="line"/>
			<point x="-163.125" y="520" type="line"/>
			<point x="-163.125" y="633.75" type="line"/>
			<point x="-86.875" y="633.75" type="line"/>
		</contour>
	</outline>
	<anchor name="top" x="-220.25" y="520"/>
</glyph>
<glyph name="uni030F" format="2">
	<unicode hex="030F"/>
	<outline>
		<contour>
			<point x="51" y="490" type="line"/>
			<point x="-10" y="670" type="line"/>
			<point x="70" y="670" type="line"/>
			<point x="115" y="490" type="line"/>
		</contour>
		<contour>
			<point x="-44" y="490" type="line"/>
			<point x="-120" y="670" type="line"/>
			<point x="-40" y="670" type="line"/>
			<point x="20" y="490" type="line"/>
		</contour>
	</outline>
</glyph>
<glyph name="uni0400" format="2">
	<unicode hex="0400"/>
	<advance width="510"/>
	<outline>
		<contour>
			<point x="420" y="313.75" type="line"/>
			<point x="162.5" y="313.75" type="line"/>
			<point x="162.5" y="68.75" type="line"/>
			<point x="460" y="68.75" type="line"/>
			<point x="460" y="0" type="line"/>
			<point x="81.25" y="0" type="line"/>
			<point x="81.25" y="680" type="line"/>
			<point x="460" y="680" type="line"/>
			<point x="460" y="611.25" type="line"/>
			<point x="162.5" y="611.25" type="line"/>
			<point x="162.5" y="382.5" type="line"/>
			<point x="420" y="382.5" type="line"/>
		</contour>
		<contour>
			<point x="287" y="740" type="line"/>
			<point x="223" y="740" type="line"/>
			<point x="157" y="900" type="line"/>
			<point x="237" y="900" type="line"/>
		</contour>
	</outline>
</glyph>
<glyph name="uni0402" format="2">
	<unicode hex="0402"/>
	<advance width="1255"/>
	<outline>
		<contour>
			<point x="931.625" y="-90" type="curve"/>
			<point x="1010.62" y="-90" type="line"/>
			<point x="1026.62" y="-114"/>
			<point x="1041.62" y="-120"/>
			<point x="1064.62" y="-120" type="curve" smooth="yes"/>
			<point x="1089.62" y="-120"/>
			<point x="1104.62" y="-103"/>
			<point x="1104.62" y="-55" type="curve" smooth="yes"/>
			<point x="1104.62" y="460" type="line"/>
			<point x="1184.62" y="460" type="line"/>
			<point x="1184.62" y="-31" type="line" smooth="yes"/>
			<point x="1184.62" y="-139"/>
			<point x="1127.62" y="-200"/>
			<point x="1062.62" y="-200" type="curve" smooth="yes"/>
			<point x="998.625" y="-200"/>
			<point x="947.625" y="-149"/>
		</contour>
		<contour>
			<point x="280.625" y="607.5" type="line"/>
			<point x="280.625" y="0" type="line"/>
			<point x="199.375" y="0" type="line"/>
			<point x="199.375" y="607.5" type="line"/>
			<point x="10" y="607.5" type="line"/>
			<point x="10" y="680" type="line"/>
			<point x="470" y="680" type="line"/>
			<point x="470" y="607.5" type="line"/>
		</contour>
		<contour>
			<point x="805.25" y="470" type="curve" smooth="yes"/>
			<point x="914.875" y="470"/>
			<point x="954" y="390.125"/>
			<point x="954" y="307.5" type="curve" smooth="yes"/>
			<point x="954" y="0" type="line"/>
			<point x="874" y="0" type="line"/>
			<point x="874" y="292.5" type="line" smooth="yes"/>
			<point x="874" y="360.875"/>
			<point x="836.875" y="420.625"/>
			<point x="768.875" y="420.625" type="curve" smooth="yes"/>
			<point x="696.625" y="420.625"/>
			<point x="635" y="351.25"/>
			<point x="635" y="266.25" type="curve" smooth="yes"/>
			<point x="635" y="0" type="line"/>
			<point x="555" y="0" type="line"/>
			<point x="555" y="700" type="line"/>
			<point name=".hr01" x="635" y="700" type="line"/>
			<point x="635" y="364.25" type="line"/>
			<point x="671.875" y="423.625"/>
			<point x="732.125" y="470"/>
		</contour>
	</outline>
</glyph>
<glyph name="uni040C" format="2">
	<unicode hex="040C"/>
	<advance width="576"/>
	<outline>
		<contour>
			<point x="162.5" y="283.625" type="line"/>
			<point x="162.5" y="0" type="line"/>
			<point x="81.25" y="0" type="line"/>
			<point x="81.25" y="680" type="line"/>
			<point x="162.5" y="680" type="line"/>
			<point x="162.5" y="353.125" type="line"/>
			<point x="249.375" y="370.125" type="line"/>
			<point x="435" y="680" type="line"/>
			<point x="526.25" y="680" type="line"/>
			<point x="326.25" y="350" type="line"/>
			<point x="566.25" y="0" type="line"/>
			<point x="467.5" y="0" type="line"/>
			<point x="259.25" y="305.875" type="line"/>
		</contour>
		<contour>
			<point x="360.5" y="921.25" type="line"/>
			<point x="292" y="730" type="line"/>
			<point x="215.75" y="730" type="line"/>
			<point x="273.25" y="921.25" type="line"/>
		</contour>
	</outline>
</glyph>
<glyph name="uni0411" format="2">
	<unicode hex="0411"/>
	<advance width="580"/>
	<outline>
		<contour>
			<point x="110" y="0" type="line"/>
			<point x="110" y="72.5" type="line"/>
			<point x="275" y="72.5" type="line" smooth="yes"/>
			<point x="371.25" y="72.5"/>
			<point x="413" y="142.5"/>
			<point x="413" y="212.5" type="curve" smooth="yes"/>
			<point x="413" y="287.375"/>
			<point x="368.25" y="344.5"/>
			<point x="275" y="344.5" type="curve" smooth="yes"/>
			<point x="110" y="344.5" type="line"/>
			<point x="110" y="417" type="line"/>
			<point x="280" y="417" type="line" smooth="yes"/>
			<point x="441" y="417"/>
			<point x="495" y="328.5"/>
			<point x="495" y="212.5" type="curve" smooth="yes"/>
			<point x="495" y="99.5"/>
			<point x="428" y="0"/>
			<point x="280" y="0" type="curve" smooth="yes"/>
		</contour>
		<contour>
			<point x="50" y="0" type="line"/>
			<point x="50" y="680" type="line"/>
			<point x="131.25" y="680" type="line"/>
			<point x="131.25" y="0" type="line"/>
		</contour>
		<contour>
			<point x="108.75" y="607.5" type="line"/>
			<point x="108.75" y="680" type="line"/>
			<point x="432.5" y="680" type="line"/>
			<point x="432.5" y="607.5" type="line"/>
		</contour>
	</outline>
</glyph>
<glyph name="uni0413" format="2">
	<unicode hex="0413"/>
	<advance width="490"/>
	<outline>
		<contour>
			<point x="460" y="611.25" type="line"/>
			<point x="162.5" y="611.25" type="line"/>
			<point x="162.5" y="0" type="line"/>
			<point x="81.25" y="0" type="line"/>
			<point x="81.25" y="680" type="line"/>
			<point x="460" y="680" type="line"/>
		</contour>
	</outline>
</glyph>
<glyph name="uni0417" format="2">
	<unicode hex="0417"/>
	<advance width="580"/>
	<outline>
		<contour>
			<point x="50" y="185" type="curve"/>
			<point x="140" y="185" type="line"/>
			<point x="140" y="137"/>
			<point x="198" y="80"/>
			<point x="285" y="80" type="curve" smooth="yes"/>
			<point x="361" y="80"/>
			<point x="440" y="114"/>
			<point x="440" y="205" type="curve" smooth="yes"/>
			<point x="440" y="315"/>
			<point x="359" y="337"/>
			<point x="265" y="337" type="curve" smooth="yes"/>
			<point x="210" y="337" type="line"/>
			<point x="210" y="364"/>
			<point x="210" y="390"/>
			<point x="210" y="417" type="curve"/>
			<point x="265" y="417" type="line" smooth="yes"/>
			<point x="353" y="417"/>
			<point name=".hr01" x="390" y="431"/>
			<point x="390" y="522" type="curve" smooth="yes"/>
			<point x="390" y="586"/>
			<point x="328" y="620"/>
			<point x="260" y="620" type="curve" smooth="yes"/>
			<point x="204" y="620"/>
			<point x="140" y="591"/>
			<point x="140" y="520" type="curve"/>
			<point x="50" y="520" type="line"/>
			<point x="50" y="634"/>
			<point x="153" y="700"/>
			<point x="260" y="700" type="curve" smooth="yes"/>
			<point x="403" y="700"/>
			<point x="480" y="642"/>
			<point x="480" y="522" type="curve" smooth="yes"/>
			<point x="480" y="464"/>
			<point x="445" y="412"/>
			<point x="378" y="384" type="curve"/>
			<point x="461" y="370"/>
			<point name=".hr02" x="530" y="322"/>
			<point x="530" y="205" type="curve" smooth="yes"/>
			<point x="530" y="64"/>
			<point x="422" y="0"/>
			<point x="285" y="0" type="curve" smooth="yes"/>
			<point x="176" y="0"/>
			<point x="50" y="62"/>
		</contour>
	</outline>
</glyph>
<glyph name="uni0427" format="2">
	<unicode hex="0427"/>
	<advance width="510"/>
	<outline>
		<contour>
			<point x="50" y="500" type="curve" smooth="yes"/>
			<point x="50" y="700" type="line"/>
			<point x="140" y="700" type="line"/>
			<point x="140" y="500" type="line" smooth="yes"/>
			<point x="140" y="439"/>
			<point x="144" y="397"/>
			<point x="238" y="397" type="curve" smooth="yes"/>
			<point x="370" y="397" type="line"/>
			<point x="370" y="700" type="line"/>
			<point x="460" y="700" type="line"/>
			<point x="460" y="0" type="line"/>
			<point x="370" y="0" type="line"/>
			<point x="370" y="317" type="line"/>
			<point x="208" y="317" type="line" smooth="yes"/>
			<point x="154" y="317"/>
			<point x="50" y="352"/>
		</contour>
	</outline>
</glyph>
<glyph name="uni042B" format="2">
	<unicode hex="042B"/>
	<advance width="782"/>
	<outline>
		<component base="uni042C"/>
		<contour>
			<point x="689.25" y="692.5" type="line"/>
			<point x="689.25" y="0" type="line"/>
			<point x="608" y="0" type="line"/>
			<point x="608" y="692.5" type="line"/>
		</contour>
	</outline>
</glyph>
<glyph name="uni0437" format="2">
	<unicode hex="0437"/>
	<advance width="501"/>
	<outline>
		<contour>
			<point x="50" y="150" type="curve"/>
			<point x="136" y="150" type="line"/>
			<point x="144" y="86"/>
			<point x="199" y="66"/>
			<point x="253" y="66" type="curve" smooth="yes"/>
			<point x="303" y="66"/>
			<point x="370" y="80"/>
			<point x="370" y="138" type="curve" smooth="yes"/>
			<point x="370" y="188"/>
			<point x="345" y="210"/>
			<point x="278" y="210" type="curve" smooth="yes"/>
			<point x="208" y="210" type="line"/>
			<point x="208" y="275" type="line"/>
			<point x="277" y="275" type="line" smooth="yes"/>
			<point x="339" y="275"/>
			<point name=".hr01" x="360" y="301"/>
			<point x="360" y="331" type="curve" smooth="yes"/>
			<point x="360" y="371"/>
			<point x="322" y="394"/>
			<point x="253" y="394" type="curve" smooth="yes"/>
			<point x="197" y="394"/>
			<point x="149" y="367"/>
			<point x="140" y="320" type="curve"/>
			<point x="50" y="320" type="line"/>
			<point x="62" y="407"/>
			<point x="150" y="470"/>
			<point x="253" y="470" type="curve" smooth="yes"/>
			<point x="359" y="470"/>
			<point x="440" y="416"/>
			<point x="440" y="338" type="curve" smooth="yes"/>
			<point x="440" y="298"/>
			<point x="423" y="270"/>
			<point x="376" y="250" type="curve"/>
			<point x="429" y="229"/>
			<point name=".hr02" x="451" y="189"/>
			<point x="451" y="140" type="curve" smooth="yes"/>
			<point x="451" y="51"/>
			<point x="368" y="-10"/>
			<point x="253" y="-10" type="curve" smooth="yes"/>
			<point x="160" y="-10"/>
			<point x="65" y="36"/>
		</contour>
	</outline>
</glyph>
<glyph name="uni043A" format="2">
	<unicode hex="043A"/>
	<advance width="478"/>
	<outline>
		<contour>
			<point x="150" y="0" type="line"/>
			<point x="70" y="0" type="line"/>
			<point x="70" y="460" type="line"/>
			<point x="150" y="460" type="line"/>
			<point x="150" y="270" type="line"/>
			<point x="217" y="270" type="line"/>
			<point x="274" y="387" type="line" smooth="yes"/>
			<point x="298" y="437"/>
			<point x="341" y="460"/>
			<point x="377" y="460" type="curve" smooth="yes"/>
			<point x="408" y="460" type="line"/>
			<point x="408" y="398" type="line"/>
			<point x="385" y="399"/>
			<point x="359" y="389"/>
			<point x="345" y="364" type="curve" smooth="yes"/>
			<point x="283" y="257" type="line"/>
			<point x="317" y="245"/>
			<point x="343" y="225"/>
			<point x="356" y="205" type="curve" smooth="yes"/>
			<point x="376" y="174"/>
			<point x="389" y="106"/>
			<point x="393" y="88" type="curve" smooth="yes"/>
			<point x="400" y="55"/>
			<point x="413" y="50"/>
			<point x="430" y="45" type="curve"/>
			<point x="430" y="-10" type="line"/>
			<point x="404" y="-10" type="line" smooth="yes"/>
			<point x="370" y="-10"/>
			<point x="336" y="7"/>
			<point x="325" y="59" type="curve" smooth="yes"/>
			<point x="315" y="107"/>
			<point x="315" y="134"/>
			<point x="287" y="168" type="curve" smooth="yes"/>
			<point x="268" y="191"/>
			<point x="236" y="205"/>
			<point x="217" y="205" type="curve" smooth="yes"/>
			<point x="150" y="205" type="line"/>
		</contour>
	</outline>
</glyph>
<glyph name="uni043C" format="2">
	<unicode hex="043C"/>
	<advance width="627"/>
	<outline>
		<contour>
			<point x="150" y="0" type="line"/>
			<point x="70" y="0" type="line"/>
			<point x="70" y="460" type="line"/>
			<point x="213" y="460" type="line"/>
			<point x="251" y="335"/>
			<point x="303" y="209"/>
			<point x="320" y="80" type="curve"/>
			<point x="327" y="125"/>
			<point x="334" y="144"/>
			<point x="343" y="180" type="curve"/>
			<point x="441" y="460" type="line"/>
			<point x="557" y="460" type="line"/>
			<point x="557" y="0" type="line"/>
			<point x="477" y="0" type="line"/>
			<point x="477" y="300" type="line" smooth="yes"/>
			<point x="477" y="340"/>
			<point x="477" y="360"/>
			<point x="482" y="390" type="curve"/>
			<point x="343" y="0" type="line"/>
			<point x="273" y="0" type="line"/>
			<point x="145" y="390" type="line"/>
			<point x="147" y="360"/>
			<point x="150" y="338"/>
			<point x="150" y="300" type="curve" smooth="yes"/>
		</contour>
	</outline>
</glyph>
<glyph name="uni0440" format="2">
	<unicode hex="0440"/>
	<advance width="500"/>
	<outline>
		<contour>
			<point x="134.375" y="230.75" type="curve" smooth="yes"/>
			<point x="134.375" y="226" type="line" smooth="yes"/>
			<point x="134.375" y="123"/>
			<point x="185.375" y="55"/>
			<point x="254.375" y="55" type="curve" smooth="yes"/>
			<point x="347.375" y="55"/>
			<point x="385.375" y="123"/>
			<point x="385.375" y="231" type="curve" smooth="yes"/>
			<point x="385.375" y="306"/>
			<point x="366.375" y="405"/>
			<point x="254.375" y="405" type="curve" smooth="yes"/>
			<point x="171.375" y="405"/>
			<point x="134.375" y="314.75"/>
		</contour>
		<contour>
			<point x="91.875" y="211.875" type="line"/>
			<point x="102.5" y="406.875" type="line"/>
			<point x="122.739" y="445"/>
			<point x="170.909" y="466.25"/>
			<point x="217.5" y="466.25" type="curve"/>
			<point x="297.001" y="460.816"/>
			<point x="339.94" y="366.798"/>
			<point x="341.25" y="287.25" type="curve"/>
			<point x="353.25" y="232.875"/>
			<point x="327.5" y="170"/>
			<point x="276.875" y="170" type="curve"/>
			<point x="284.375" y="170"/>
			<point x="272.875" y="142.5"/>
			<point x="258.5" y="127.25" type="curve"/>
			<point x="258.5" y="53.4361"/>
			<point x="234.5" y="-98.4955"/>
			<point x="187.25" y="-128.75" type="curve"/>
			<point x="149.35" y="-128.75"/>
			<point x="104.853" y="-117.125"/>
			<point x="84.375" y="-97.25" type="curve"/>
			<point x="84.375" y="211.875" type="line"/>
		</contour>
	</outline>
</glyph>
<glyph name="uni0451" format="2">
	<unicode hex="0451"/>
	<advance width="518"/>
	<outline>
		<contour>
			<point x="139" y="278" type="curve"/>
			<point x="379" y="278" type="line"/>
			<point x="379" y="278"/>
			<point x="371" y="402"/>
			<point x="259" y="402" type="curve" smooth="yes"/>
			<point x="147" y="402"/>
			<point x="139" y="278"/>
		</contour>
		<contour>
			<point x="50" y="240" type="curve" smooth="yes"/>
			<point x="50" y="360"/>
			<point x="119" y="470"/>
			<point x="259" y="470" type="curve" smooth="yes"/>
			<point x="399" y="470"/>
			<point x="468" y="360"/>
			<point name=".hr01" x="468" y="240" type="curve" smooth="yes"/>
			<point x="468" y="210" type="line"/>
			<point x="134" y="210" type="line"/>
			<point x="134" y="140"/>
			<point x="179" y="58"/>
			<point x="259" y="58" type="curve" smooth="yes"/>
			<point x="329" y="58"/>
			<point x="365" y="98"/>
			<point x="375" y="142" type="curve"/>
			<point x="458" y="142" type="line"/>
			<point x="443" y="73"/>
			<point x="409" y="-10"/>
			<point x="259" y="-10" type="curve" smooth="yes"/>
			<point x="109" y="-10"/>
			<point x="50" y="120"/>
		</contour>
		<contour>
			<point x="221" y="640" type="line"/>
			<point x="221" y="560" type="line"/>
			<point x="141" y="560" type="line"/>
			<point x="141" y="640" type="line"/>
		</contour>
		<contour>
			<point x="379" y="640" type="line"/>
			<point x="379" y="560" type="line"/>
			<point x="299" y="560" type="line"/>
			<point x="299" y="640" type="line"/>
		</contour>
	</outline>
</glyph>
<glyph name="uni0454" format="2">
	<unicode hex="0454"/>
	<advance width="451"/>
	<outline>
		<contour>
			<point x="45" y="210" type="curve" smooth="yes"/>
			<point x="45" y="346"/>
			<point x="106" y="470"/>
			<point x="229" y="470" type="curve" smooth="yes"/>
			<point x="323" y="470"/>
			<point x="395" y="421"/>
			<point x="416" y="330" type="curve"/>
			<point x="346" y="330" type="line"/>
			<point x="327" y="388"/>
			<point x="287" y="405"/>
			<point x="229" y="405" type="curve" smooth="yes"/>
			<point x="161" y="405"/>
			<point x="128" y="348"/>
			<point x="125" y="247" type="curve"/>
			<point x="248" y="247" type="line"/>
			<point x="248" y="190" type="line"/>
			<point x="125" y="190" type="line"/>
			<point x="125" y="128"/>
			<point x="165" y="55"/>
			<point x="229" y="55" type="curve" smooth="yes"/>
			<point x="296" y="55"/>
			<point x="322" y="83"/>
			<point x="346" y="140" type="curve"/>
			<point x="416" y="140" type="line"/>
			<point x="387" y="48"/>
			<point x="314" y="-10"/>
			<point x="229" y="-10" type="curve" smooth="yes"/>
			<point x="107" y="-10"/>
			<point x="45" y="98"/>
		</contour>
	</outline>
</glyph>
<glyph name="uni04D2" format="2">
	<unicode hex="04D2"/>
	<advance width="570"/>
	<outline>
		<contour>
			<point x="362.5" y="279.375" type="line"/>
			<point x="269.375" y="571.625" type="line"/>
			<point x="176.25" y="279.375" type="line"/>
		</contour>
		<contour>
			<point x="450" y="0" type="line"/>
			<point x="386.875" y="199.375" type="line"/>
			<point x="151.875" y="199.375" type="line"/>
			<point x="88.75" y="0" type="line"/>
			<point x="7.5" y="0" type="line"/>
			<point x="222.375" y="680" type="line"/>
			<point x="315.625" y="680" type="line"/>
			<point x="531.25" y="0" type="line"/>
		</contour>
		<contour>
			<point x="246" y="840" type="line"/>
			<point x="246" y="760" type="line"/>
			<point x="166" y="760" type="line"/>
			<point x="166" y="840" type="line"/>
		</contour>
		<contour>
			<point x="404" y="840" type="line"/>
			<point x="404" y="760" type="line"/>
			<point x="324" y="760" type="line"/>
			<point x="324" y="840" type="line"/>
		</contour>
	</outline>
</glyph>
<glyph name="uni04D9" format="2">
	<unicode hex="04D9"/>
	<advance width="471"/>
	<outline>
		<contour>
			<point x="352" y="170" type="curve"/>
			<point x="113" y="170" type="line"/>
			<point x="126" y="102"/>
			<point x="161" y="70"/>
			<point x="231" y="70" type="curve" smooth="yes"/>
			<point x="290" y="70"/>
			<point x="342" y="107"/>
		</contour>
		<contour>
			<point x="36" y="250" type="curve"/>
			<point x="352" y="250" type="line"/>
			<point x="343" y="323"/>
			<point x="313" y="390"/>
			<point x="230" y="390" type="curve" smooth="yes"/>
			<point x="186" y="390"/>
			<point x="139" y="372"/>
			<point x="116" y="346" type="curve"/>
			<point x="55" y="362" type="line"/>
			<point x="72" y="404"/>
			<point x="130" y="470"/>
			<point x="231" y="470" type="curve" smooth="yes"/>
			<point x="387" y="470"/>
			<point x="437" y="338"/>
			<point x="437" y="220" type="curve" smooth="yes"/>
			<point x="437" y="112"/>
			<point x="376" y="-10"/>
			<point x="231" y="-10" type="curve" smooth="yes"/>
			<point x="93" y="-10"/>
			<point x="36" y="112"/>
		</contour>
	</outline>
</glyph>
<glyph name="uni04ED" format="2">
	<unicode hex="04ED"/>
	<advance width="451"/>
	<outline>
		<contour>
			<point x="193" y="530" type="line"/>
			<point x="113" y="530" type="line"/>
			<point x="113" y="610" type="line"/>
			<point x="193" y="610" type="line"/>
		</contour>
		<contour>
			<point x="350" y="530" type="line"/>
			<point x="270" y="530" type="line"/>
			<point x="270" y="610" type="line"/>
			<point x="350" y="610" type="line"/>
		</contour>
		<contour>
			<point x="44" y="130" type="curve"/>
			<point x="114" y="130" type="line"/>
			<point x="133" y="72"/>
			<point x="172" y="55"/>
			<point x="231" y="55" type="curve" smooth="yes"/>
			<point x="299" y="55"/>
			<point x="332" y="112"/>
			<point name=".hr01" x="335" y="213" type="curve"/>
			<point x="212" y="213" type="line"/>
			<point x="212" y="270" type="line"/>
			<point x="335" y="270" type="line"/>
			<point x="335" y="332"/>
			<point x="295" y="405"/>
			<point x="231" y="405" type="curve" smooth="yes"/>
			<point x="189" y="405"/>
			<point x="142" y="397"/>
			<point x="114" y="320" type="curve"/>
			<point x="44" y="320" type="line"/>
			<point x="75" y="412"/>
			<point x="145" y="470"/>
			<point x="231" y="470" type="curve" smooth="yes"/>
			<point x="353" y="470"/>
			<point x="415" y="362"/>
			<point x="415" y="250" type="curve" smooth="yes"/>
			<point x="415" y="114"/>
			<point x="354" y="-10"/>
			<point x="231" y="-10" type="curve" smooth="yes"/>
			<point x="137" y="-10"/>
			<point x="65" y="39"/>
		</contour>
	</outline>
</glyph>
<glyph name="uni04EE" format="2">
	<unicode hex="04EE"/>
	<advance width="658"/>
	<outline>
		<contour>
			<point x="444" y="770" type="line"/>
			<point x="174" y="770" type="line"/>
			<point x="174" y="850" type="line"/>
			<point x="444" y="850" type="line"/>
		</contour>
		<contour>
			<point x="245" y="200" type="line"/>
			<point name=".hr01" x="30" y="700" type="line"/>
			<point x="137" y="700" type="line"/>
			<point x="300" y="278" type="line"/>
			<point x="521" y="700" type="line"/>
			<point x="628" y="700" type="line"/>
			<point x="251" y="0" type="line"/>
			<point x="140" y="0" type="line"/>
		</contour>
	</outline>
</glyph>
<glyph name="uni04F8" format="2">
	<unicode hex="04F8"/>
	<advance width="748"/>
	<outline>
		<contour>
			<point x="265" y="322" type="curve" smooth="yes"/>
			<point x="140" y="322" type="line"/>
			<point x="140" y="80" type="line"/>
			<point x="265" y="80" type="line" smooth="yes"/>
			<point x="414" y="80"/>
			<point x="440" y="131"/>
			<point x="440" y="205" type="curve" smooth="yes"/>
			<point x="440" y="273"/>
			<point x="410" y="322"/>
		</contour>
		<contour>
			<point x="265" y="0" type="curve" smooth="yes"/>
			<point x="50" y="0" type="line"/>
			<point x="50" y="700" type="line"/>
			<point x="140" y="700" type="line"/>
			<point x="140" y="402" type="line"/>
			<point x="265" y="402" type="line" smooth="yes"/>
			<point x="484" y="402"/>
			<point x="530" y="355"/>
			<point x="530" y="205" type="curve" smooth="yes"/>
			<point x="530" y="61"/>
			<point x="474" y="0"/>
		</contour>
		<contour>
			<point x="698" y="700" type="line"/>
			<point x="698" y="0" type="line"/>
			<point x="608" y="0" type="line"/>
			<point x="608" y="700" type="line"/>
		</contour>
		<contour>
			<point x="335" y="850" type="line"/>
			<point x="335" y="770" type="line"/>
			<point x="255" y="770" type="line"/>
			<point x="255" y="850" type="line"/>
		</contour>
		<contour>
			<point x="492" y="850" type="line"/>
			<point x="492" y="770" type="line"/>
			<point name=".hr01" x="412" y="770" type="line"/>
			<point x="412" y="850" type="line"/>
		</contour>
	</outline>
</glyph>
<glyph name="quotesinglbase" format="2">
	<unicode hex="201A"/>
	<advance width="198"/>
	<outline>
		<contour>
			<point x="80" y="0" type="line"/>
			<point x="58" y="0" type="line"/>
			<point x="58" y="80" type="line"/>
			<point x="138" y="80" type="line"/>
			<point x="138" y="0" type="line"/>
			<point x="92" y="-130" type="line"/>
			<point x="58" y="-130" type="line"/>
		</contour>
	</outline>
</glyph>
<glyph name="quotedblright" format="2">
	<unicode hex="201D"/>
	<advance width="290"/>
	<outline>
		<contour>
			<point x="84" y="490" type="line"/>
			<point x="50" y="490" type="line"/>
			<point x="72" y="620" type="line"/>
			<point x="50" y="620" type="line"/>
			<point x="50" y="700" type="line"/>
			<point x="130" y="700" type="line"/>
			<point x="130" y="620" type="line"/>
		</contour>
		<contour>
			<point x="200" y="490" type="line"/>
			<point x="166" y="490" type="line"/>
			<point x="188" y="620" type="line"/>
			<point x="166" y="620" type="line"/>
			<point x="166" y="700" type="line"/>
			<point x="246" y="700" type="line"/>
			<point x="246" y="620" type="line"/>
		</contour>
	</outline>
</glyph>
<glyph name="d.sc" format="2">
	<advance width="475"/>
	<outline>
		<contour>
			<point x="196" y="395" type="curve" smooth="yes"/>
			<point x="113" y="395" type="line"/>
			<point x="113" y="65" type="line"/>
			<point x="237" y="65" type="line" smooth="yes"/>
			<point x="327" y="65"/>
			<point x="363" y="150"/>
			<point x="363" y="230" type="curve" smooth="yes"/>
			<point x="363" y="343"/>
			<point x="327" y="395"/>
		</contour>
		<contour>
			<point x="236" y="0" type="curve" smooth="yes"/>
			<point x="33" y="0" type="line"/>
			<point x="33" y="460" type="line"/>
			<point x="236" y="460" type="line" smooth="yes"/>
			<point x="375" y="460"/>
			<point x="443" y="362"/>
			<point x="443" y="230" type="curve" smooth="yes"/>
			<point x="443" y="96"/>
			<point x="376" y="0"/>
		</contour>
	</outline>
</glyph>
<glyph name="seven.dnom" format="2">
	<advance width="381"/>
	<outline>
		<contour>
			<point x="288" y="177" type="curve"/>
			<point x="33" y="177" type="line"/>
			<point x="33" y="237" type="line"/>
			<point x="348" y="237" type="line"/>
			<point x="348" y="184" type="line"/>
			<point x="300" y="123" type="line"/>
			<point x="238" y="38"/>
			<point x="188" y="-63"/>
			<point x="188" y="-230" type="curve"/>
			<point x="120" y="-230" type="line"/>
			<point x="120" y="-24"/>
			<point x="202" y="79"/>
		</contour>
	</outline>
</glyph>
<glyph name="seven.superior" format="2">
	<advance width="381"/>
	<outline>
		<contour>
			<point x="288" y="821" type="curve"/>
			<point x="33" y="821" type="line"/>
			<point x="33" y="881" type="line"/>
			<point x="348" y="881" type="line"/>
			<point x="348" y="828" type="line"/>
			<point x="300" y="767" type="line"/>
			<point x="238" y="682"/>
			<point x="188" y="581"/>
			<point x="188" y="414" type="curve"/>
			<point x="120" y="414" type="line"/>
			<point x="120" y="620"/>
			<point x="202" y="723"/>
		</contour>
	</outline>
</glyph>
<glyph name="uni0431.sc" format="2">
	<advance width="422"/>
	<outline>
		<contour>
			<point x="205" y="208" type="curve" smooth="yes"/>
			<point x="113" y="208" type="line"/>
			<point x="113" y="65" type="line"/>
			<point x="205" y="65" type="line" smooth="yes"/>
			<point x="300" y="65"/>
			<point x="310" y="98"/>
			<point x="310" y="138" type="curve" smooth="yes"/>
			<point x="310" y="175"/>
			<point x="300" y="208"/>
		</contour>
		<contour>
			<point x="195" y="0" type="curve" smooth="yes"/>
			<point x="33" y="0" type="line"/>
			<point x="33" y="460" type="line"/>
			<point x="328" y="460" type="line"/>
			<point x="328" y="395" type="line"/>
			<point x="113" y="395" type="line"/>
			<point x="113" y="273" type="line"/>
			<point x="195" y="273" type="line" smooth="yes"/>
			<point x="345" y="273"/>
			<point x="390" y="238"/>
			<point x="390" y="138" type="curve" smooth="yes"/>
			<point x="390" y="38"/>
			<point x="345" y="0"/>
		</contour>
	</outline>
</glyph>
<glyph name="uni0433.sc" format="2">
	<advance width="360"/>
	<outline>
		<contour>
			<point x="120" y="0" type="line"/>
			<point x="40" y="0" type="line"/>
			<point x="40" y="460" type="line"/>
			<point x="330" y="460" type="line"/>
			<point x="330" y="395" type="line"/>
			<point x="120" y="395" type="line"/>
		</contour>
	</outline>
</glyph>
<glyph name="uni0439.sc" format="2">
	<advance width="455"/>
	<outline>
		<contour>
			<point x="73" y="670" type="curve"/>
			<point x="148" y="670" type="line"/>
			<point x="147" y="613"/>
			<point x="194" y="594"/>
			<point x="228" y="594" type="curve" smooth="yes"/>
			<point x="273" y="594"/>
			<point x="308" y="614"/>
			<point x="308" y="670" type="curve"/>
			<point x="383" y="670" type="line"/>
			<point x="383" y="579"/>
			<point x="316" y="530"/>
			<point x="228" y="530" type="curve" smooth="yes"/>
			<point x="142" y="530"/>
			<point x="73" y="581"/>
		</contour>
		<contour>
			<point x="133" y="0" type="line"/>
			<point x="33" y="0" type="line"/>
			<point x="33" y="460" type="line"/>
			<point x="113" y="460" type="line"/>
			<point x="113" y="142" type="line" smooth="yes"/>
			<point x="113" y="102"/>
			<point x="110" y="88"/>
			<point x="108" y="84" type="curve"/>
			<point x="323" y="460" type="line"/>
			<point x="423" y="460" type="line"/>
			<point name=".hr01" x="423" y="0" type="line"/>
			<point x="343" y="0" type="line"/>
			<point x="343" y="318" type="line"/>
			<point x="344" y="334"/>
			<point x="342" y="337"/>
			<point x="347" y="376" type="curve"/>
		</contour>
	</outline>
</glyph>
<glyph name="uni043A.loclBGR" format="2">
	<advance width="420"/>
	<outline>
		<contour>
			<point x="125" y="0" type="line"/>
			<point x="45" y="0" type="line"/>
			<point x="45" y="700" type="line"/>
			<point x="125" y="700" type="line"/>
			<point x="125" y="270" type="line"/>
			<point x="157" y="270" type="line"/>
			<point x="300" y="460" type="line"/>
			<point x="380" y="460" type="line"/>
			<point x="229" y="256" type="line"/>
			<point x="304" y="218"/>
			<point x="338" y="138"/>
			<point x="373" y="59" type="curve" smooth="yes"/>
			<point x="382" y="39"/>
			<point x="390" y="19"/>
			<point x="400" y="0" type="curve"/>
			<point x="320" y="0" type="line"/>
			<point x="279" y="78"/>
			<point x="255" y="166"/>
			<point x="167" y="210" type="curve"/>
			<point x="125" y="210" type="line"/>
		</contour>
	</outline>
</glyph>
<glyph name="uni043F.loclBGR" format="2">
	<advance width="545"/>
	<outline>
		<contour>
			<point x="321.125" y="470" type="curve" smooth="yes"/>
			<point x="430.75" y="470"/>
			<point x="469.875" y="390.125"/>
			<point x="469.875" y="307.5" type="curve" smooth="yes"/>
			<point x="469.875" y="0" type="line"/>
			<point x="389.875" y="0" type="line"/>
			<point x="389.875" y="292.5" type="line" smooth="yes"/>
			<point x="389.875" y="360.875"/>
			<point x="352.75" y="420.625"/>
			<point x="284.75" y="420.625" type="curve" smooth="yes"/>
			<point x="220.375" y="420.625"/>
			<point x="159.5" y="363.625"/>
			<point x="155" y="300.75" type="curve"/>
			<point x="155" y="0" type="line"/>
			<point x="75" y="0" type="line"/>
			<point x="75" y="460" type="line"/>
			<point x="145" y="460" type="line"/>
			<point x="152.875" y="366.75" type="line"/>
			<point x="189.75" y="426.25"/>
			<point x="249.875" y="470"/>
		</contour>
	</outline>
</glyph>
<glyph name="uni0445.alt" format="2">
	<advance width="550"/>
	<outline>
		<contour>
			<point x="50" y="-10" type="curve"/>
			<point x="50" y="55" type="line"/>
			<point x="149" y="55"/>
			<point x="225" y="110"/>
			<point x="225" y="230" type="curve" smooth="yes"/>
			<point x="225" y="358"/>
			<point x="150" y="405"/>
			<point x="50" y="405" type="curve"/>
			<point x="50" y="470" type="line"/>
			<point x="176" y="470"/>
			<point x="250" y="407"/>
			<point x="275" y="313" type="curve"/>
			<point x="300" y="408"/>
			<point x="374" y="470"/>
			<point x="500" y="470" type="curve"/>
			<point x="500" y="405" type="line"/>
			<point x="400" y="405"/>
			<point x="325" y="358"/>
			<point x="325" y="230" type="curve" smooth="yes"/>
			<point x="325" y="105"/>
			<point x="399" y="55"/>
			<point x="500" y="55" type="curve"/>
			<point x="500" y="-10" type="line"/>
			<point x="379" y="-10"/>
			<point x="303" y="56"/>
			<point x="276" y="150" type="curve"/>
			<point x="253" y="58"/>
			<point x="186" y="-10"/>
		</contour>
	</outline>
</glyph>
<glyph name="uni0445.sc" format="2">
	<advance width="432"/>
	<outline>
		<contour>
			<point x="113" y="0" type="line"/>
			<point x="20" y="0" type="line"/>
			<point x="171" y="230" type="line"/>
			<point x="20" y="460" type="line"/>
			<point x="110" y="460" type="line"/>
			<point x="217" y="280" type="line"/>
			<point x="322" y="460" type="line"/>
			<point x="413" y="460" type="line"/>
			<point x="263" y="230" type="line"/>
			<point x="413" y="0" type="line"/>
			<point x="321" y="0" type="line"/>
			<point x="217" y="180" type="line"/>
		</contour>
	</outline>
</glyph>
<glyph name="uni0446.sc" format="2">
	<advance width="471"/>
	<outline>
		<contour>
			<point x="377" y="0" type="line"/>
			<point x="33" y="0" type="line"/>
			<point x="33" y="460" type="line"/>
			<point x="113" y="460" type="line"/>
			<point x="113" y="65" type="line"/>
			<point x="297" y="65" type="line"/>
			<point x="297" y="460" type="line"/>
			<point x="377" y="460" type="line"/>
			<point x="377" y="65" type="line"/>
			<point name=".hr01" x="439" y="65" type="line"/>
			<point x="439" y="-92" type="line"/>
			<point x="377" y="-92" type="line"/>
		</contour>
	</outline>
</glyph>
<glyph name="uni044A.loclBGR" format="2">
	<advance width="571"/>
	<outline>
		<contour>
			<point x="206" y="187" type="curve" smooth="yes"/>
			<point x="206" y="106"/>
			<point x="251" y="55"/>
			<point x="325" y="55" type="curve" smooth="yes"/>
			<point x="392" y="55"/>
			<point x="446" y="114"/>
			<point x="446" y="190" type="curve" smooth="yes"/>
			<point x="446" y="266"/>
			<point x="400" y="325"/>
			<point x="325" y="325" type="curve" smooth="yes"/>
			<point x="270" y="325"/>
			<point x="206" y="286"/>
		</contour>
		<contour>
			<point x="125" y="190" type="curve" smooth="yes"/>
			<point x="125" y="395" type="line"/>
			<point x="35" y="395" type="line"/>
			<point x="35" y="460" type="line"/>
			<point x="205" y="460" type="line"/>
			<point x="205" y="310" type="line"/>
			<point x="229" y="344"/>
			<point x="282" y="390"/>
			<point x="345" y="390" type="curve" smooth="yes"/>
			<point x="464" y="390"/>
			<point x="526" y="307"/>
			<point x="526" y="190" type="curve" smooth="yes"/>
			<point x="526" y="100"/>
			<point x="465" y="-10"/>
			<point x="325" y="-10" type="curve" smooth="yes"/>
			<point x="202" y="-10"/>
			<point x="125" y="74"/>
		</contour>
	</outline>
</glyph>
<glyph name="uni044B.loclBGR" format="2">
	<advance width="620"/>
	<outline>
		<contour>
			<point x="121" y="190" type="curve" smooth="yes"/>
			<point x="121" y="187" type="line" smooth="yes"/>
			<point x="121" y="106"/>
			<point x="166" y="55"/>
			<point x="240" y="55" type="curve" smooth="yes"/>
			<point x="314" y="55"/>
			<point x="361" y="117"/>
			<point x="361" y="190" type="curve" smooth="yes"/>
			<point x="361" y="266"/>
			<point x="315" y="325"/>
			<point x="240" y="325" type="curve" smooth="yes"/>
			<point x="185" y="325"/>
			<point x="121" y="286"/>
		</contour>
		<contour>
			<point x="40" y="190" type="curve" smooth="yes"/>
			<point x="40" y="460" type="line"/>
			<point x="120" y="460" type="line"/>
			<point x="120" y="310" type="line"/>
			<point x="144" y="344"/>
			<point x="197" y="390"/>
			<point x="260" y="390" type="curve" smooth="yes"/>
			<point x="379" y="390"/>
			<point x="441" y="307"/>
			<point x="441" y="190" type="curve" smooth="yes"/>
			<point x="441" y="100"/>
			<point x="380" y="-10"/>
			<point x="240" y="-10" type="curve" smooth="yes"/>
			<point x="117" y="-10"/>
			<point x="40" y="74"/>
		</contour>
		<contour>
			<point x="575" y="460" type="line"/>
			<point x="575" y="0" type="line"/>
			<point x="495" y="0" type="line"/>
			<point x="495" y="460" type="line"/>
		</contour>
	</outline>
</glyph>
<glyph name="uni044B.sc" format="2">
	<advance width="576"/>
	<outline>
		<contour>
			<point x="212" y="208" type="curve" smooth="yes"/>
			<point x="120" y="208" type="line"/>
			<point x="120" y="65" type="line"/>
			<point x="212" y="65" type="line" smooth="yes"/>
			<point x="302" y="65"/>
			<point x="317" y="98"/>
			<point x="317" y="138" type="curve" smooth="yes"/>
			<point x="317" y="178"/>
			<point x="292" y="208"/>
		</contour>
		<contour>
			<point x="212" y="0" type="curve" smooth="yes"/>
			<point x="40" y="0" type="line"/>
			<point x="40" y="460" type="line"/>
			<point x="120" y="460" type="line"/>
			<point x="120" y="273" type="line"/>
			<point x="212" y="273" type="line" smooth="yes"/>
			<point x="372" y="273"/>
			<point x="397" y="218"/>
			<point x="397" y="138" type="curve" smooth="yes"/>
			<point x="397" y="58"/>
			<point x="372" y="0"/>
		</contour>
		<contour>
			<point x="536" y="460" type="line"/>
			<point x="536" y="0" type="line"/>
			<point x="456" y="0" type="line"/>
			<point x="456" y="460" type="line"/>
		</contour>
	</outline>
</glyph>
<glyph name="y.sc" format="2">
	<advance width="410"/>
	<outline>
		<contour>
			<point x="165" y="205" type="line"/>
			<point x="26" y="460" type="line"/>
			<point x="106" y="460" type="line"/>
			<point x="205" y="265" type="line"/>
			<point x="304" y="460" type="line"/>
			<point x="384" y="460" type="line"/>
			<point x="245" y="205" type="line"/>
			<point x="245" y="137"/>
			<point x="245" y="68"/>
			<point x="245" y="0" type="curve"/>
			<point x="165" y="0" type="line"/>
		</contour>
	</outline>
</glyph>
<glyph name="zero.inferior" format="2">
	<advance width="439"/>
	<outline>
		<contour>
			<point x="70" y="-226" type="curve" smooth="yes"/>
			<point x="70" y="-86"/>
			<point x="99" y="14"/>
			<point x="232" y="14" type="curve" smooth="yes"/>
			<point x="365" y="14"/>
			<point x="393" y="-86"/>
			<point x="393" y="-226" type="curve" smooth="yes"/>
			<point x="393" y="-366"/>
			<point x="365" y="-467"/>
			<point x="232" y="-467" type="curve" smooth="yes"/>
			<point x="99" y="-467"/>
			<point x="70" y="-366"/>
		</contour>
		<contour>
			<point x="138" y="-226" type="curve" smooth="yes"/>
			<point x="138" y="-323"/>
			<point x="138" y="-407"/>
			<point x="232" y="-407" type="curve" smooth="yes"/>
			<point x="326" y="-407"/>
			<point x="325" y="-323"/>
			<point x="325" y="-226" type="curve" smooth="yes"/>
			<point x="325" y="-129"/>
			<point x="326" y="-46"/>
			<point x="232" y="-46" type="curve" smooth="yes"/>
			<point x="138" y="-46"/>
			<point x="138" y="-129"/>
		</contour>
	</outline>
</glyph>
